G75*
%MOIN*%
%OFA0B0*%
%FSLAX25Y25*%
%IPPOS*%
%LPD*%
%AMOC8*
5,1,8,0,0,1.08239X$1,22.5*
%
%ADD10C,0.00000*%
%ADD11R,0.03937X0.04331*%
%ADD12R,0.03937X0.11024*%
%ADD13R,0.04331X0.03937*%
%ADD14R,0.03937X0.09055*%
%ADD15R,0.11024X0.03937*%
%ADD16R,0.04724X0.03150*%
%ADD17R,0.03150X0.04724*%
%ADD18R,0.06102X0.08661*%
%ADD19R,0.04232X0.01969*%
%ADD20C,0.01181*%
%ADD21R,0.13780X0.03937*%
%ADD22R,0.13780X0.06299*%
%ADD23R,0.03150X0.01181*%
%ADD24R,0.01181X0.03150*%
%ADD25R,0.10630X0.10630*%
%ADD26R,0.10630X0.03937*%
%ADD27R,0.08661X0.04724*%
%ADD28R,0.25197X0.22835*%
%ADD29R,0.07087X0.12598*%
D10*
X0076394Y0056709D02*
X0076394Y0253559D01*
X0371669Y0253559D01*
X0371669Y0056709D01*
X0076394Y0056709D01*
X0081906Y0068520D02*
X0081908Y0068678D01*
X0081914Y0068836D01*
X0081924Y0068994D01*
X0081938Y0069152D01*
X0081956Y0069309D01*
X0081977Y0069466D01*
X0082003Y0069622D01*
X0082033Y0069778D01*
X0082066Y0069933D01*
X0082104Y0070086D01*
X0082145Y0070239D01*
X0082190Y0070391D01*
X0082239Y0070542D01*
X0082292Y0070691D01*
X0082348Y0070839D01*
X0082408Y0070985D01*
X0082472Y0071130D01*
X0082540Y0071273D01*
X0082611Y0071415D01*
X0082685Y0071555D01*
X0082763Y0071692D01*
X0082845Y0071828D01*
X0082929Y0071962D01*
X0083018Y0072093D01*
X0083109Y0072222D01*
X0083204Y0072349D01*
X0083301Y0072474D01*
X0083402Y0072596D01*
X0083506Y0072715D01*
X0083613Y0072832D01*
X0083723Y0072946D01*
X0083836Y0073057D01*
X0083951Y0073166D01*
X0084069Y0073271D01*
X0084190Y0073373D01*
X0084313Y0073473D01*
X0084439Y0073569D01*
X0084567Y0073662D01*
X0084697Y0073752D01*
X0084830Y0073838D01*
X0084965Y0073922D01*
X0085101Y0074001D01*
X0085240Y0074078D01*
X0085381Y0074150D01*
X0085523Y0074220D01*
X0085667Y0074285D01*
X0085813Y0074347D01*
X0085960Y0074405D01*
X0086109Y0074460D01*
X0086259Y0074511D01*
X0086410Y0074558D01*
X0086562Y0074601D01*
X0086715Y0074640D01*
X0086870Y0074676D01*
X0087025Y0074707D01*
X0087181Y0074735D01*
X0087337Y0074759D01*
X0087494Y0074779D01*
X0087652Y0074795D01*
X0087809Y0074807D01*
X0087968Y0074815D01*
X0088126Y0074819D01*
X0088284Y0074819D01*
X0088442Y0074815D01*
X0088601Y0074807D01*
X0088758Y0074795D01*
X0088916Y0074779D01*
X0089073Y0074759D01*
X0089229Y0074735D01*
X0089385Y0074707D01*
X0089540Y0074676D01*
X0089695Y0074640D01*
X0089848Y0074601D01*
X0090000Y0074558D01*
X0090151Y0074511D01*
X0090301Y0074460D01*
X0090450Y0074405D01*
X0090597Y0074347D01*
X0090743Y0074285D01*
X0090887Y0074220D01*
X0091029Y0074150D01*
X0091170Y0074078D01*
X0091309Y0074001D01*
X0091445Y0073922D01*
X0091580Y0073838D01*
X0091713Y0073752D01*
X0091843Y0073662D01*
X0091971Y0073569D01*
X0092097Y0073473D01*
X0092220Y0073373D01*
X0092341Y0073271D01*
X0092459Y0073166D01*
X0092574Y0073057D01*
X0092687Y0072946D01*
X0092797Y0072832D01*
X0092904Y0072715D01*
X0093008Y0072596D01*
X0093109Y0072474D01*
X0093206Y0072349D01*
X0093301Y0072222D01*
X0093392Y0072093D01*
X0093481Y0071962D01*
X0093565Y0071828D01*
X0093647Y0071692D01*
X0093725Y0071555D01*
X0093799Y0071415D01*
X0093870Y0071273D01*
X0093938Y0071130D01*
X0094002Y0070985D01*
X0094062Y0070839D01*
X0094118Y0070691D01*
X0094171Y0070542D01*
X0094220Y0070391D01*
X0094265Y0070239D01*
X0094306Y0070086D01*
X0094344Y0069933D01*
X0094377Y0069778D01*
X0094407Y0069622D01*
X0094433Y0069466D01*
X0094454Y0069309D01*
X0094472Y0069152D01*
X0094486Y0068994D01*
X0094496Y0068836D01*
X0094502Y0068678D01*
X0094504Y0068520D01*
X0094502Y0068362D01*
X0094496Y0068204D01*
X0094486Y0068046D01*
X0094472Y0067888D01*
X0094454Y0067731D01*
X0094433Y0067574D01*
X0094407Y0067418D01*
X0094377Y0067262D01*
X0094344Y0067107D01*
X0094306Y0066954D01*
X0094265Y0066801D01*
X0094220Y0066649D01*
X0094171Y0066498D01*
X0094118Y0066349D01*
X0094062Y0066201D01*
X0094002Y0066055D01*
X0093938Y0065910D01*
X0093870Y0065767D01*
X0093799Y0065625D01*
X0093725Y0065485D01*
X0093647Y0065348D01*
X0093565Y0065212D01*
X0093481Y0065078D01*
X0093392Y0064947D01*
X0093301Y0064818D01*
X0093206Y0064691D01*
X0093109Y0064566D01*
X0093008Y0064444D01*
X0092904Y0064325D01*
X0092797Y0064208D01*
X0092687Y0064094D01*
X0092574Y0063983D01*
X0092459Y0063874D01*
X0092341Y0063769D01*
X0092220Y0063667D01*
X0092097Y0063567D01*
X0091971Y0063471D01*
X0091843Y0063378D01*
X0091713Y0063288D01*
X0091580Y0063202D01*
X0091445Y0063118D01*
X0091309Y0063039D01*
X0091170Y0062962D01*
X0091029Y0062890D01*
X0090887Y0062820D01*
X0090743Y0062755D01*
X0090597Y0062693D01*
X0090450Y0062635D01*
X0090301Y0062580D01*
X0090151Y0062529D01*
X0090000Y0062482D01*
X0089848Y0062439D01*
X0089695Y0062400D01*
X0089540Y0062364D01*
X0089385Y0062333D01*
X0089229Y0062305D01*
X0089073Y0062281D01*
X0088916Y0062261D01*
X0088758Y0062245D01*
X0088601Y0062233D01*
X0088442Y0062225D01*
X0088284Y0062221D01*
X0088126Y0062221D01*
X0087968Y0062225D01*
X0087809Y0062233D01*
X0087652Y0062245D01*
X0087494Y0062261D01*
X0087337Y0062281D01*
X0087181Y0062305D01*
X0087025Y0062333D01*
X0086870Y0062364D01*
X0086715Y0062400D01*
X0086562Y0062439D01*
X0086410Y0062482D01*
X0086259Y0062529D01*
X0086109Y0062580D01*
X0085960Y0062635D01*
X0085813Y0062693D01*
X0085667Y0062755D01*
X0085523Y0062820D01*
X0085381Y0062890D01*
X0085240Y0062962D01*
X0085101Y0063039D01*
X0084965Y0063118D01*
X0084830Y0063202D01*
X0084697Y0063288D01*
X0084567Y0063378D01*
X0084439Y0063471D01*
X0084313Y0063567D01*
X0084190Y0063667D01*
X0084069Y0063769D01*
X0083951Y0063874D01*
X0083836Y0063983D01*
X0083723Y0064094D01*
X0083613Y0064208D01*
X0083506Y0064325D01*
X0083402Y0064444D01*
X0083301Y0064566D01*
X0083204Y0064691D01*
X0083109Y0064818D01*
X0083018Y0064947D01*
X0082929Y0065078D01*
X0082845Y0065212D01*
X0082763Y0065348D01*
X0082685Y0065485D01*
X0082611Y0065625D01*
X0082540Y0065767D01*
X0082472Y0065910D01*
X0082408Y0066055D01*
X0082348Y0066201D01*
X0082292Y0066349D01*
X0082239Y0066498D01*
X0082190Y0066649D01*
X0082145Y0066801D01*
X0082104Y0066954D01*
X0082066Y0067107D01*
X0082033Y0067262D01*
X0082003Y0067418D01*
X0081977Y0067574D01*
X0081956Y0067731D01*
X0081938Y0067888D01*
X0081924Y0068046D01*
X0081914Y0068204D01*
X0081908Y0068362D01*
X0081906Y0068520D01*
X0081906Y0241748D02*
X0081908Y0241906D01*
X0081914Y0242064D01*
X0081924Y0242222D01*
X0081938Y0242380D01*
X0081956Y0242537D01*
X0081977Y0242694D01*
X0082003Y0242850D01*
X0082033Y0243006D01*
X0082066Y0243161D01*
X0082104Y0243314D01*
X0082145Y0243467D01*
X0082190Y0243619D01*
X0082239Y0243770D01*
X0082292Y0243919D01*
X0082348Y0244067D01*
X0082408Y0244213D01*
X0082472Y0244358D01*
X0082540Y0244501D01*
X0082611Y0244643D01*
X0082685Y0244783D01*
X0082763Y0244920D01*
X0082845Y0245056D01*
X0082929Y0245190D01*
X0083018Y0245321D01*
X0083109Y0245450D01*
X0083204Y0245577D01*
X0083301Y0245702D01*
X0083402Y0245824D01*
X0083506Y0245943D01*
X0083613Y0246060D01*
X0083723Y0246174D01*
X0083836Y0246285D01*
X0083951Y0246394D01*
X0084069Y0246499D01*
X0084190Y0246601D01*
X0084313Y0246701D01*
X0084439Y0246797D01*
X0084567Y0246890D01*
X0084697Y0246980D01*
X0084830Y0247066D01*
X0084965Y0247150D01*
X0085101Y0247229D01*
X0085240Y0247306D01*
X0085381Y0247378D01*
X0085523Y0247448D01*
X0085667Y0247513D01*
X0085813Y0247575D01*
X0085960Y0247633D01*
X0086109Y0247688D01*
X0086259Y0247739D01*
X0086410Y0247786D01*
X0086562Y0247829D01*
X0086715Y0247868D01*
X0086870Y0247904D01*
X0087025Y0247935D01*
X0087181Y0247963D01*
X0087337Y0247987D01*
X0087494Y0248007D01*
X0087652Y0248023D01*
X0087809Y0248035D01*
X0087968Y0248043D01*
X0088126Y0248047D01*
X0088284Y0248047D01*
X0088442Y0248043D01*
X0088601Y0248035D01*
X0088758Y0248023D01*
X0088916Y0248007D01*
X0089073Y0247987D01*
X0089229Y0247963D01*
X0089385Y0247935D01*
X0089540Y0247904D01*
X0089695Y0247868D01*
X0089848Y0247829D01*
X0090000Y0247786D01*
X0090151Y0247739D01*
X0090301Y0247688D01*
X0090450Y0247633D01*
X0090597Y0247575D01*
X0090743Y0247513D01*
X0090887Y0247448D01*
X0091029Y0247378D01*
X0091170Y0247306D01*
X0091309Y0247229D01*
X0091445Y0247150D01*
X0091580Y0247066D01*
X0091713Y0246980D01*
X0091843Y0246890D01*
X0091971Y0246797D01*
X0092097Y0246701D01*
X0092220Y0246601D01*
X0092341Y0246499D01*
X0092459Y0246394D01*
X0092574Y0246285D01*
X0092687Y0246174D01*
X0092797Y0246060D01*
X0092904Y0245943D01*
X0093008Y0245824D01*
X0093109Y0245702D01*
X0093206Y0245577D01*
X0093301Y0245450D01*
X0093392Y0245321D01*
X0093481Y0245190D01*
X0093565Y0245056D01*
X0093647Y0244920D01*
X0093725Y0244783D01*
X0093799Y0244643D01*
X0093870Y0244501D01*
X0093938Y0244358D01*
X0094002Y0244213D01*
X0094062Y0244067D01*
X0094118Y0243919D01*
X0094171Y0243770D01*
X0094220Y0243619D01*
X0094265Y0243467D01*
X0094306Y0243314D01*
X0094344Y0243161D01*
X0094377Y0243006D01*
X0094407Y0242850D01*
X0094433Y0242694D01*
X0094454Y0242537D01*
X0094472Y0242380D01*
X0094486Y0242222D01*
X0094496Y0242064D01*
X0094502Y0241906D01*
X0094504Y0241748D01*
X0094502Y0241590D01*
X0094496Y0241432D01*
X0094486Y0241274D01*
X0094472Y0241116D01*
X0094454Y0240959D01*
X0094433Y0240802D01*
X0094407Y0240646D01*
X0094377Y0240490D01*
X0094344Y0240335D01*
X0094306Y0240182D01*
X0094265Y0240029D01*
X0094220Y0239877D01*
X0094171Y0239726D01*
X0094118Y0239577D01*
X0094062Y0239429D01*
X0094002Y0239283D01*
X0093938Y0239138D01*
X0093870Y0238995D01*
X0093799Y0238853D01*
X0093725Y0238713D01*
X0093647Y0238576D01*
X0093565Y0238440D01*
X0093481Y0238306D01*
X0093392Y0238175D01*
X0093301Y0238046D01*
X0093206Y0237919D01*
X0093109Y0237794D01*
X0093008Y0237672D01*
X0092904Y0237553D01*
X0092797Y0237436D01*
X0092687Y0237322D01*
X0092574Y0237211D01*
X0092459Y0237102D01*
X0092341Y0236997D01*
X0092220Y0236895D01*
X0092097Y0236795D01*
X0091971Y0236699D01*
X0091843Y0236606D01*
X0091713Y0236516D01*
X0091580Y0236430D01*
X0091445Y0236346D01*
X0091309Y0236267D01*
X0091170Y0236190D01*
X0091029Y0236118D01*
X0090887Y0236048D01*
X0090743Y0235983D01*
X0090597Y0235921D01*
X0090450Y0235863D01*
X0090301Y0235808D01*
X0090151Y0235757D01*
X0090000Y0235710D01*
X0089848Y0235667D01*
X0089695Y0235628D01*
X0089540Y0235592D01*
X0089385Y0235561D01*
X0089229Y0235533D01*
X0089073Y0235509D01*
X0088916Y0235489D01*
X0088758Y0235473D01*
X0088601Y0235461D01*
X0088442Y0235453D01*
X0088284Y0235449D01*
X0088126Y0235449D01*
X0087968Y0235453D01*
X0087809Y0235461D01*
X0087652Y0235473D01*
X0087494Y0235489D01*
X0087337Y0235509D01*
X0087181Y0235533D01*
X0087025Y0235561D01*
X0086870Y0235592D01*
X0086715Y0235628D01*
X0086562Y0235667D01*
X0086410Y0235710D01*
X0086259Y0235757D01*
X0086109Y0235808D01*
X0085960Y0235863D01*
X0085813Y0235921D01*
X0085667Y0235983D01*
X0085523Y0236048D01*
X0085381Y0236118D01*
X0085240Y0236190D01*
X0085101Y0236267D01*
X0084965Y0236346D01*
X0084830Y0236430D01*
X0084697Y0236516D01*
X0084567Y0236606D01*
X0084439Y0236699D01*
X0084313Y0236795D01*
X0084190Y0236895D01*
X0084069Y0236997D01*
X0083951Y0237102D01*
X0083836Y0237211D01*
X0083723Y0237322D01*
X0083613Y0237436D01*
X0083506Y0237553D01*
X0083402Y0237672D01*
X0083301Y0237794D01*
X0083204Y0237919D01*
X0083109Y0238046D01*
X0083018Y0238175D01*
X0082929Y0238306D01*
X0082845Y0238440D01*
X0082763Y0238576D01*
X0082685Y0238713D01*
X0082611Y0238853D01*
X0082540Y0238995D01*
X0082472Y0239138D01*
X0082408Y0239283D01*
X0082348Y0239429D01*
X0082292Y0239577D01*
X0082239Y0239726D01*
X0082190Y0239877D01*
X0082145Y0240029D01*
X0082104Y0240182D01*
X0082066Y0240335D01*
X0082033Y0240490D01*
X0082003Y0240646D01*
X0081977Y0240802D01*
X0081956Y0240959D01*
X0081938Y0241116D01*
X0081924Y0241274D01*
X0081914Y0241432D01*
X0081908Y0241590D01*
X0081906Y0241748D01*
X0353559Y0241748D02*
X0353561Y0241906D01*
X0353567Y0242064D01*
X0353577Y0242222D01*
X0353591Y0242380D01*
X0353609Y0242537D01*
X0353630Y0242694D01*
X0353656Y0242850D01*
X0353686Y0243006D01*
X0353719Y0243161D01*
X0353757Y0243314D01*
X0353798Y0243467D01*
X0353843Y0243619D01*
X0353892Y0243770D01*
X0353945Y0243919D01*
X0354001Y0244067D01*
X0354061Y0244213D01*
X0354125Y0244358D01*
X0354193Y0244501D01*
X0354264Y0244643D01*
X0354338Y0244783D01*
X0354416Y0244920D01*
X0354498Y0245056D01*
X0354582Y0245190D01*
X0354671Y0245321D01*
X0354762Y0245450D01*
X0354857Y0245577D01*
X0354954Y0245702D01*
X0355055Y0245824D01*
X0355159Y0245943D01*
X0355266Y0246060D01*
X0355376Y0246174D01*
X0355489Y0246285D01*
X0355604Y0246394D01*
X0355722Y0246499D01*
X0355843Y0246601D01*
X0355966Y0246701D01*
X0356092Y0246797D01*
X0356220Y0246890D01*
X0356350Y0246980D01*
X0356483Y0247066D01*
X0356618Y0247150D01*
X0356754Y0247229D01*
X0356893Y0247306D01*
X0357034Y0247378D01*
X0357176Y0247448D01*
X0357320Y0247513D01*
X0357466Y0247575D01*
X0357613Y0247633D01*
X0357762Y0247688D01*
X0357912Y0247739D01*
X0358063Y0247786D01*
X0358215Y0247829D01*
X0358368Y0247868D01*
X0358523Y0247904D01*
X0358678Y0247935D01*
X0358834Y0247963D01*
X0358990Y0247987D01*
X0359147Y0248007D01*
X0359305Y0248023D01*
X0359462Y0248035D01*
X0359621Y0248043D01*
X0359779Y0248047D01*
X0359937Y0248047D01*
X0360095Y0248043D01*
X0360254Y0248035D01*
X0360411Y0248023D01*
X0360569Y0248007D01*
X0360726Y0247987D01*
X0360882Y0247963D01*
X0361038Y0247935D01*
X0361193Y0247904D01*
X0361348Y0247868D01*
X0361501Y0247829D01*
X0361653Y0247786D01*
X0361804Y0247739D01*
X0361954Y0247688D01*
X0362103Y0247633D01*
X0362250Y0247575D01*
X0362396Y0247513D01*
X0362540Y0247448D01*
X0362682Y0247378D01*
X0362823Y0247306D01*
X0362962Y0247229D01*
X0363098Y0247150D01*
X0363233Y0247066D01*
X0363366Y0246980D01*
X0363496Y0246890D01*
X0363624Y0246797D01*
X0363750Y0246701D01*
X0363873Y0246601D01*
X0363994Y0246499D01*
X0364112Y0246394D01*
X0364227Y0246285D01*
X0364340Y0246174D01*
X0364450Y0246060D01*
X0364557Y0245943D01*
X0364661Y0245824D01*
X0364762Y0245702D01*
X0364859Y0245577D01*
X0364954Y0245450D01*
X0365045Y0245321D01*
X0365134Y0245190D01*
X0365218Y0245056D01*
X0365300Y0244920D01*
X0365378Y0244783D01*
X0365452Y0244643D01*
X0365523Y0244501D01*
X0365591Y0244358D01*
X0365655Y0244213D01*
X0365715Y0244067D01*
X0365771Y0243919D01*
X0365824Y0243770D01*
X0365873Y0243619D01*
X0365918Y0243467D01*
X0365959Y0243314D01*
X0365997Y0243161D01*
X0366030Y0243006D01*
X0366060Y0242850D01*
X0366086Y0242694D01*
X0366107Y0242537D01*
X0366125Y0242380D01*
X0366139Y0242222D01*
X0366149Y0242064D01*
X0366155Y0241906D01*
X0366157Y0241748D01*
X0366155Y0241590D01*
X0366149Y0241432D01*
X0366139Y0241274D01*
X0366125Y0241116D01*
X0366107Y0240959D01*
X0366086Y0240802D01*
X0366060Y0240646D01*
X0366030Y0240490D01*
X0365997Y0240335D01*
X0365959Y0240182D01*
X0365918Y0240029D01*
X0365873Y0239877D01*
X0365824Y0239726D01*
X0365771Y0239577D01*
X0365715Y0239429D01*
X0365655Y0239283D01*
X0365591Y0239138D01*
X0365523Y0238995D01*
X0365452Y0238853D01*
X0365378Y0238713D01*
X0365300Y0238576D01*
X0365218Y0238440D01*
X0365134Y0238306D01*
X0365045Y0238175D01*
X0364954Y0238046D01*
X0364859Y0237919D01*
X0364762Y0237794D01*
X0364661Y0237672D01*
X0364557Y0237553D01*
X0364450Y0237436D01*
X0364340Y0237322D01*
X0364227Y0237211D01*
X0364112Y0237102D01*
X0363994Y0236997D01*
X0363873Y0236895D01*
X0363750Y0236795D01*
X0363624Y0236699D01*
X0363496Y0236606D01*
X0363366Y0236516D01*
X0363233Y0236430D01*
X0363098Y0236346D01*
X0362962Y0236267D01*
X0362823Y0236190D01*
X0362682Y0236118D01*
X0362540Y0236048D01*
X0362396Y0235983D01*
X0362250Y0235921D01*
X0362103Y0235863D01*
X0361954Y0235808D01*
X0361804Y0235757D01*
X0361653Y0235710D01*
X0361501Y0235667D01*
X0361348Y0235628D01*
X0361193Y0235592D01*
X0361038Y0235561D01*
X0360882Y0235533D01*
X0360726Y0235509D01*
X0360569Y0235489D01*
X0360411Y0235473D01*
X0360254Y0235461D01*
X0360095Y0235453D01*
X0359937Y0235449D01*
X0359779Y0235449D01*
X0359621Y0235453D01*
X0359462Y0235461D01*
X0359305Y0235473D01*
X0359147Y0235489D01*
X0358990Y0235509D01*
X0358834Y0235533D01*
X0358678Y0235561D01*
X0358523Y0235592D01*
X0358368Y0235628D01*
X0358215Y0235667D01*
X0358063Y0235710D01*
X0357912Y0235757D01*
X0357762Y0235808D01*
X0357613Y0235863D01*
X0357466Y0235921D01*
X0357320Y0235983D01*
X0357176Y0236048D01*
X0357034Y0236118D01*
X0356893Y0236190D01*
X0356754Y0236267D01*
X0356618Y0236346D01*
X0356483Y0236430D01*
X0356350Y0236516D01*
X0356220Y0236606D01*
X0356092Y0236699D01*
X0355966Y0236795D01*
X0355843Y0236895D01*
X0355722Y0236997D01*
X0355604Y0237102D01*
X0355489Y0237211D01*
X0355376Y0237322D01*
X0355266Y0237436D01*
X0355159Y0237553D01*
X0355055Y0237672D01*
X0354954Y0237794D01*
X0354857Y0237919D01*
X0354762Y0238046D01*
X0354671Y0238175D01*
X0354582Y0238306D01*
X0354498Y0238440D01*
X0354416Y0238576D01*
X0354338Y0238713D01*
X0354264Y0238853D01*
X0354193Y0238995D01*
X0354125Y0239138D01*
X0354061Y0239283D01*
X0354001Y0239429D01*
X0353945Y0239577D01*
X0353892Y0239726D01*
X0353843Y0239877D01*
X0353798Y0240029D01*
X0353757Y0240182D01*
X0353719Y0240335D01*
X0353686Y0240490D01*
X0353656Y0240646D01*
X0353630Y0240802D01*
X0353609Y0240959D01*
X0353591Y0241116D01*
X0353577Y0241274D01*
X0353567Y0241432D01*
X0353561Y0241590D01*
X0353559Y0241748D01*
X0353559Y0068520D02*
X0353561Y0068678D01*
X0353567Y0068836D01*
X0353577Y0068994D01*
X0353591Y0069152D01*
X0353609Y0069309D01*
X0353630Y0069466D01*
X0353656Y0069622D01*
X0353686Y0069778D01*
X0353719Y0069933D01*
X0353757Y0070086D01*
X0353798Y0070239D01*
X0353843Y0070391D01*
X0353892Y0070542D01*
X0353945Y0070691D01*
X0354001Y0070839D01*
X0354061Y0070985D01*
X0354125Y0071130D01*
X0354193Y0071273D01*
X0354264Y0071415D01*
X0354338Y0071555D01*
X0354416Y0071692D01*
X0354498Y0071828D01*
X0354582Y0071962D01*
X0354671Y0072093D01*
X0354762Y0072222D01*
X0354857Y0072349D01*
X0354954Y0072474D01*
X0355055Y0072596D01*
X0355159Y0072715D01*
X0355266Y0072832D01*
X0355376Y0072946D01*
X0355489Y0073057D01*
X0355604Y0073166D01*
X0355722Y0073271D01*
X0355843Y0073373D01*
X0355966Y0073473D01*
X0356092Y0073569D01*
X0356220Y0073662D01*
X0356350Y0073752D01*
X0356483Y0073838D01*
X0356618Y0073922D01*
X0356754Y0074001D01*
X0356893Y0074078D01*
X0357034Y0074150D01*
X0357176Y0074220D01*
X0357320Y0074285D01*
X0357466Y0074347D01*
X0357613Y0074405D01*
X0357762Y0074460D01*
X0357912Y0074511D01*
X0358063Y0074558D01*
X0358215Y0074601D01*
X0358368Y0074640D01*
X0358523Y0074676D01*
X0358678Y0074707D01*
X0358834Y0074735D01*
X0358990Y0074759D01*
X0359147Y0074779D01*
X0359305Y0074795D01*
X0359462Y0074807D01*
X0359621Y0074815D01*
X0359779Y0074819D01*
X0359937Y0074819D01*
X0360095Y0074815D01*
X0360254Y0074807D01*
X0360411Y0074795D01*
X0360569Y0074779D01*
X0360726Y0074759D01*
X0360882Y0074735D01*
X0361038Y0074707D01*
X0361193Y0074676D01*
X0361348Y0074640D01*
X0361501Y0074601D01*
X0361653Y0074558D01*
X0361804Y0074511D01*
X0361954Y0074460D01*
X0362103Y0074405D01*
X0362250Y0074347D01*
X0362396Y0074285D01*
X0362540Y0074220D01*
X0362682Y0074150D01*
X0362823Y0074078D01*
X0362962Y0074001D01*
X0363098Y0073922D01*
X0363233Y0073838D01*
X0363366Y0073752D01*
X0363496Y0073662D01*
X0363624Y0073569D01*
X0363750Y0073473D01*
X0363873Y0073373D01*
X0363994Y0073271D01*
X0364112Y0073166D01*
X0364227Y0073057D01*
X0364340Y0072946D01*
X0364450Y0072832D01*
X0364557Y0072715D01*
X0364661Y0072596D01*
X0364762Y0072474D01*
X0364859Y0072349D01*
X0364954Y0072222D01*
X0365045Y0072093D01*
X0365134Y0071962D01*
X0365218Y0071828D01*
X0365300Y0071692D01*
X0365378Y0071555D01*
X0365452Y0071415D01*
X0365523Y0071273D01*
X0365591Y0071130D01*
X0365655Y0070985D01*
X0365715Y0070839D01*
X0365771Y0070691D01*
X0365824Y0070542D01*
X0365873Y0070391D01*
X0365918Y0070239D01*
X0365959Y0070086D01*
X0365997Y0069933D01*
X0366030Y0069778D01*
X0366060Y0069622D01*
X0366086Y0069466D01*
X0366107Y0069309D01*
X0366125Y0069152D01*
X0366139Y0068994D01*
X0366149Y0068836D01*
X0366155Y0068678D01*
X0366157Y0068520D01*
X0366155Y0068362D01*
X0366149Y0068204D01*
X0366139Y0068046D01*
X0366125Y0067888D01*
X0366107Y0067731D01*
X0366086Y0067574D01*
X0366060Y0067418D01*
X0366030Y0067262D01*
X0365997Y0067107D01*
X0365959Y0066954D01*
X0365918Y0066801D01*
X0365873Y0066649D01*
X0365824Y0066498D01*
X0365771Y0066349D01*
X0365715Y0066201D01*
X0365655Y0066055D01*
X0365591Y0065910D01*
X0365523Y0065767D01*
X0365452Y0065625D01*
X0365378Y0065485D01*
X0365300Y0065348D01*
X0365218Y0065212D01*
X0365134Y0065078D01*
X0365045Y0064947D01*
X0364954Y0064818D01*
X0364859Y0064691D01*
X0364762Y0064566D01*
X0364661Y0064444D01*
X0364557Y0064325D01*
X0364450Y0064208D01*
X0364340Y0064094D01*
X0364227Y0063983D01*
X0364112Y0063874D01*
X0363994Y0063769D01*
X0363873Y0063667D01*
X0363750Y0063567D01*
X0363624Y0063471D01*
X0363496Y0063378D01*
X0363366Y0063288D01*
X0363233Y0063202D01*
X0363098Y0063118D01*
X0362962Y0063039D01*
X0362823Y0062962D01*
X0362682Y0062890D01*
X0362540Y0062820D01*
X0362396Y0062755D01*
X0362250Y0062693D01*
X0362103Y0062635D01*
X0361954Y0062580D01*
X0361804Y0062529D01*
X0361653Y0062482D01*
X0361501Y0062439D01*
X0361348Y0062400D01*
X0361193Y0062364D01*
X0361038Y0062333D01*
X0360882Y0062305D01*
X0360726Y0062281D01*
X0360569Y0062261D01*
X0360411Y0062245D01*
X0360254Y0062233D01*
X0360095Y0062225D01*
X0359937Y0062221D01*
X0359779Y0062221D01*
X0359621Y0062225D01*
X0359462Y0062233D01*
X0359305Y0062245D01*
X0359147Y0062261D01*
X0358990Y0062281D01*
X0358834Y0062305D01*
X0358678Y0062333D01*
X0358523Y0062364D01*
X0358368Y0062400D01*
X0358215Y0062439D01*
X0358063Y0062482D01*
X0357912Y0062529D01*
X0357762Y0062580D01*
X0357613Y0062635D01*
X0357466Y0062693D01*
X0357320Y0062755D01*
X0357176Y0062820D01*
X0357034Y0062890D01*
X0356893Y0062962D01*
X0356754Y0063039D01*
X0356618Y0063118D01*
X0356483Y0063202D01*
X0356350Y0063288D01*
X0356220Y0063378D01*
X0356092Y0063471D01*
X0355966Y0063567D01*
X0355843Y0063667D01*
X0355722Y0063769D01*
X0355604Y0063874D01*
X0355489Y0063983D01*
X0355376Y0064094D01*
X0355266Y0064208D01*
X0355159Y0064325D01*
X0355055Y0064444D01*
X0354954Y0064566D01*
X0354857Y0064691D01*
X0354762Y0064818D01*
X0354671Y0064947D01*
X0354582Y0065078D01*
X0354498Y0065212D01*
X0354416Y0065348D01*
X0354338Y0065485D01*
X0354264Y0065625D01*
X0354193Y0065767D01*
X0354125Y0065910D01*
X0354061Y0066055D01*
X0354001Y0066201D01*
X0353945Y0066349D01*
X0353892Y0066498D01*
X0353843Y0066649D01*
X0353798Y0066801D01*
X0353757Y0066954D01*
X0353719Y0067107D01*
X0353686Y0067262D01*
X0353656Y0067418D01*
X0353630Y0067574D01*
X0353609Y0067731D01*
X0353591Y0067888D01*
X0353577Y0068046D01*
X0353567Y0068204D01*
X0353561Y0068362D01*
X0353559Y0068520D01*
D11*
X0240776Y0071299D03*
X0240776Y0077992D03*
X0241276Y0115268D03*
X0241276Y0121961D03*
X0241276Y0132299D03*
X0241276Y0138992D03*
X0206472Y0138520D03*
X0206472Y0145213D03*
X0204110Y0155094D03*
X0204110Y0161787D03*
X0210094Y0170882D03*
X0210094Y0177575D03*
X0205764Y0195094D03*
X0198992Y0195055D03*
X0198992Y0201748D03*
X0205764Y0201787D03*
X0180961Y0206197D03*
X0180961Y0212890D03*
X0169543Y0208362D03*
X0169543Y0201669D03*
X0155764Y0172024D03*
X0155764Y0165331D03*
X0193953Y0137890D03*
X0193953Y0131197D03*
X0197024Y0124976D03*
X0190724Y0124661D03*
X0190724Y0117969D03*
X0197024Y0118283D03*
X0165921Y0112575D03*
X0165921Y0105882D03*
X0158047Y0126787D03*
X0158047Y0133480D03*
X0243776Y0173299D03*
X0243776Y0179992D03*
X0243276Y0195799D03*
X0243276Y0202492D03*
X0243776Y0234799D03*
X0243776Y0241492D03*
D12*
X0199701Y0094465D03*
X0171433Y0094386D03*
X0144504Y0094307D03*
X0144504Y0075803D03*
X0171433Y0075882D03*
X0199701Y0075961D03*
D13*
X0224429Y0070646D03*
X0231122Y0070646D03*
X0210134Y0112417D03*
X0203441Y0112417D03*
X0203402Y0118323D03*
X0210094Y0118323D03*
X0210252Y0124189D03*
X0203559Y0124189D03*
X0203598Y0130094D03*
X0210291Y0130094D03*
X0225429Y0132146D03*
X0232122Y0132146D03*
X0234878Y0115295D03*
X0228185Y0115295D03*
X0183913Y0113165D03*
X0177220Y0113165D03*
X0174622Y0121118D03*
X0174425Y0126906D03*
X0181118Y0126906D03*
X0181315Y0121118D03*
X0165370Y0119465D03*
X0158677Y0119465D03*
X0158795Y0112850D03*
X0152102Y0112850D03*
X0181000Y0138047D03*
X0187693Y0138047D03*
X0227929Y0171646D03*
X0234622Y0171646D03*
X0213087Y0188795D03*
X0206394Y0188795D03*
X0197614Y0181276D03*
X0190921Y0181276D03*
X0183874Y0181276D03*
X0177181Y0181276D03*
X0177024Y0188047D03*
X0183717Y0188047D03*
X0185134Y0200252D03*
X0191827Y0200252D03*
X0212969Y0205685D03*
X0219661Y0205685D03*
X0227929Y0194146D03*
X0234622Y0194146D03*
X0235122Y0233146D03*
X0228429Y0233146D03*
X0169189Y0194740D03*
X0162496Y0194740D03*
X0162575Y0188323D03*
X0169268Y0188323D03*
X0162929Y0178913D03*
X0156236Y0178913D03*
X0154701Y0218283D03*
X0148008Y0218283D03*
X0112575Y0234071D03*
X0105882Y0234071D03*
D14*
X0142102Y0180055D03*
X0142102Y0166571D03*
D15*
X0115291Y0150252D03*
X0096787Y0150252D03*
D16*
X0125646Y0158795D03*
X0125646Y0165882D03*
X0149189Y0133913D03*
X0149189Y0126827D03*
X0299583Y0142063D03*
X0299583Y0149150D03*
D17*
X0319701Y0107063D03*
X0326787Y0107063D03*
X0328795Y0191315D03*
X0321709Y0191315D03*
D18*
X0133835Y0146630D03*
X0133835Y0130488D03*
D19*
X0223701Y0122933D03*
X0232850Y0122933D03*
X0232850Y0141146D03*
X0223701Y0141146D03*
X0226201Y0181146D03*
X0235350Y0181146D03*
X0235850Y0202646D03*
X0226701Y0202646D03*
X0227201Y0241646D03*
X0236350Y0241646D03*
X0232350Y0080646D03*
X0223201Y0080646D03*
D20*
X0111185Y0241276D02*
X0111185Y0244032D01*
X0113941Y0244032D01*
X0113941Y0241276D01*
X0111185Y0241276D01*
X0111185Y0242456D02*
X0113941Y0242456D01*
X0113941Y0243636D02*
X0111185Y0243636D01*
X0104279Y0244032D02*
X0104279Y0241276D01*
X0104279Y0244032D02*
X0107035Y0244032D01*
X0107035Y0241276D01*
X0104279Y0241276D01*
X0104279Y0242456D02*
X0107035Y0242456D01*
X0107035Y0243636D02*
X0104279Y0243636D01*
D21*
X0107732Y0213480D03*
X0107732Y0205606D03*
X0107732Y0197732D03*
X0107732Y0189858D03*
X0107732Y0181984D03*
D22*
X0085291Y0172535D03*
X0085291Y0222929D03*
D23*
X0164996Y0168972D03*
X0164996Y0167004D03*
X0164996Y0165035D03*
X0164996Y0163067D03*
X0164996Y0161098D03*
X0164996Y0159130D03*
X0164996Y0157161D03*
X0164996Y0155193D03*
X0164996Y0153224D03*
X0164996Y0151256D03*
X0164996Y0149287D03*
X0164996Y0147319D03*
X0192555Y0147319D03*
X0192555Y0149287D03*
X0192555Y0151256D03*
X0192555Y0153224D03*
X0192555Y0155193D03*
X0192555Y0157161D03*
X0192555Y0159130D03*
X0192555Y0161098D03*
X0192555Y0163067D03*
X0192555Y0165035D03*
X0192555Y0167004D03*
X0192555Y0168972D03*
D24*
X0189602Y0171925D03*
X0187634Y0171925D03*
X0185665Y0171925D03*
X0183697Y0171925D03*
X0181728Y0171925D03*
X0179760Y0171925D03*
X0177791Y0171925D03*
X0175823Y0171925D03*
X0173854Y0171925D03*
X0171886Y0171925D03*
X0169917Y0171925D03*
X0167949Y0171925D03*
X0167949Y0144366D03*
X0169917Y0144366D03*
X0171886Y0144366D03*
X0173854Y0144366D03*
X0175823Y0144366D03*
X0177791Y0144366D03*
X0179760Y0144366D03*
X0181728Y0144366D03*
X0183697Y0144366D03*
X0185665Y0144366D03*
X0187634Y0144366D03*
X0189602Y0144366D03*
D25*
X0178776Y0158146D03*
D26*
X0148992Y0148677D03*
X0148992Y0140016D03*
D27*
X0256472Y0119622D03*
X0256472Y0101669D03*
X0291079Y0089622D03*
X0291079Y0071669D03*
X0291079Y0131669D03*
X0291079Y0149622D03*
X0256472Y0161669D03*
X0256472Y0179622D03*
X0291079Y0191669D03*
X0291079Y0209622D03*
X0256472Y0221669D03*
X0256472Y0239622D03*
D28*
X0281276Y0230646D03*
X0266276Y0200646D03*
X0281276Y0170646D03*
X0266276Y0140646D03*
X0281276Y0110646D03*
X0266276Y0080646D03*
D29*
X0241299Y0098146D03*
X0219252Y0098146D03*
X0218752Y0157646D03*
X0240799Y0157646D03*
X0241299Y0218146D03*
X0219252Y0218146D03*
M02*
