%
M48
M72
T01C0.0157
T02C0.0200
T03C0.0394
T04C0.0400
T05C0.0669
T06C0.1260
%
T01
X10868Y7324
X11655Y6537
X12443Y7324
X13230Y6537
X13624Y7324
X14411Y6537
X15198Y6537
X15986Y6537
X15986Y7324
X17167Y6537
X17954Y6537
X18742Y6537
X18742Y7324
X19923Y6537
X20553Y6498
X20553Y6891
X20946Y6891
X20946Y6498
X21340Y6498
X21340Y6891
X21734Y6891
X21734Y6498
X21734Y7285
X21340Y7285
X20946Y7285
X20553Y7285
X20553Y7679
X20553Y8072
X20946Y8072
X20946Y7679
X21340Y7679
X21340Y8072
X21734Y7679
X19490Y8584
X19096Y8584
X18702Y8584
X18309Y8584
X18309Y8978
X18702Y8978
X18702Y9372
X18309Y9372
X17915Y9372
X17915Y8978
X17915Y8584
X19096Y8978
X19096Y9372
X19490Y9372
X19490Y8978
X19490Y9765
X19096Y9765
X18702Y9765
X18309Y9765
X17915Y9765
X17915Y10159
X18309Y10159
X18702Y10159
X18702Y10553
X18309Y10553
X17915Y10553
X17521Y10553
X19096Y10553
X19096Y10159
X19490Y10159
X19687Y11380
X18939Y12954
X17954Y13230
X17033Y13718
X16592Y13880
X16143Y14411
X15907Y14017
X16502Y12974
X15277Y11970
X14569Y12088
X14175Y11694
X14569Y11301
X13781Y11301
X13781Y12088
X14293Y12718
X12285Y12718
X12285Y13506
X12285Y14293
X9687Y12443
X10474Y11655
X9687Y10868
X10474Y10080
X9687Y9293
X8899Y10080
X8899Y11655
X8427Y14017
X8466Y15789
X10592Y17364
X9372Y18230
X11852Y18939
X11813Y19765
X11813Y20513
X15592Y19096
X15592Y18466
X17702Y20021
X19175Y19332
X20986Y18427
X21380Y19332
X21135Y20092
X19210Y21061
X18769Y21360
X19529Y21891
X19135Y22285
X18742Y22679
X19135Y23072
X19529Y22679
X19923Y23072
X20317Y22679
X20710Y23072
X21104Y22679
X21498Y23072
X21891Y23466
X22285Y23072
X21104Y23466
X21498Y23860
X21891Y24254
X21498Y24647
X21104Y24254
X20710Y24647
X20317Y24254
X20710Y23860
X20317Y23466
X19923Y23860
X19529Y24254
X19135Y24647
X18742Y24254
X19135Y23860
X18742Y23466
X19529Y23466
X19923Y22285
X20317Y21891
X20710Y22285
X21104Y21891
X24962Y21419
X25631Y20828
X25631Y20435
X25631Y20041
X26025Y20041
X26025Y20435
X26025Y20828
X26419Y20828
X26419Y20435
X26813Y20435
X27206Y20435
X27206Y20828
X26813Y20828
X27600Y20828
X27600Y20435
X27600Y20041
X27206Y20041
X26813Y20041
X26419Y20041
X26419Y19647
X26419Y19254
X26813Y19254
X26813Y19647
X27206Y19647
X27206Y19254
X27600Y19254
X27600Y19647
X26025Y19647
X26025Y19254
X25631Y19254
X25631Y19647
X24805Y16891
X24372Y16773
X23269Y16694
X23269Y16340
X23269Y15986
X23269Y15631
X22876Y15631
X22521Y15631
X22521Y15986
X22521Y16340
X22876Y16340
X22876Y15986
X22915Y16694
X22561Y16694
X22206Y16694
X21852Y16655
X20868Y16222
X21025Y15513
X21970Y14844
X22285Y14647
X22521Y14923
X22718Y14647
X22915Y14923
X23112Y14647
X23309Y14923
X23269Y15277
X22876Y15277
X22521Y15277
X21655Y13663
X21143Y13820
X21655Y13230
X22836Y12718
X25631Y13309
X25631Y13702
X25631Y14096
X26025Y14096
X26025Y13702
X26025Y13309
X26419Y13309
X26419Y13702
X26813Y13702
X27206Y13702
X27206Y13309
X26813Y13309
X27600Y13309
X27600Y13702
X27600Y14096
X27206Y14096
X26813Y14096
X26419Y14096
X26419Y14490
X26419Y14883
X26813Y14883
X26813Y14490
X27206Y14490
X27206Y14883
X27600Y14883
X27600Y14490
X29057Y14293
X29057Y13820
X29962Y13624
X33309Y14017
X34490Y14017
X35671Y14017
X35671Y12836
X34490Y12836
X34490Y11261
X33309Y11261
X33309Y10080
X34490Y10080
X35671Y10080
X35671Y8899
X34490Y8899
X33309Y8899
X33309Y7718
X34490Y7718
X32128Y7718
X30946Y7718
X27600Y7679
X27600Y8072
X27206Y8072
X27206Y7679
X26813Y7679
X26813Y8072
X26419Y8072
X26419Y7679
X26025Y7679
X26025Y8072
X25631Y8072
X25631Y7679
X25631Y7285
X26025Y7285
X26419Y7285
X26813Y7285
X27206Y7285
X27600Y7285
X27600Y8466
X27206Y8466
X26813Y8466
X26419Y8466
X26025Y8466
X25631Y8466
X25631Y8860
X26025Y8860
X26419Y8860
X26813Y8860
X27206Y8860
X27600Y8860
X35671Y11261
X35671Y15198
X34490Y15198
X33309Y15198
X33309Y16380
X34490Y16380
X35671Y16380
X35671Y17561
X34490Y17561
X34490Y19135
X35671Y19135
X35671Y20317
X34490Y20317
X33309Y20317
X33309Y21498
X34490Y21498
X35671Y21498
X35671Y22679
X34490Y22679
X33309Y22679
X25159Y23072
X19923Y24647
X17446Y21336
X18761Y17525
X19163Y17521
X18714Y16742
X18230Y16773
X17482Y16773
X17679Y16025
X18072Y16025
X18072Y15631
X17679Y15631
X16899Y15773
X15982Y16194
X16029Y16631
X15198Y16065
X17009Y14923
X21498Y17403
X24883Y15395
X25631Y14883
X25631Y14490
X26025Y14490
X26025Y14883
X11655Y8112
T02
X14324Y20549
X14324Y21049
X14824Y21049
X15324Y21049
X15324Y20549
X14824Y20549
T03
X10643Y12903
X10643Y8572
X33490Y12612
X33490Y17730
T04
X17502Y23309
X17502Y24309
X16502Y24309
X15502Y24309
X14502Y24309
X13502Y24309
X13502Y23309
X14502Y23309
X15502Y23309
X16502Y23309
X12502Y23309
X12502Y24309
T05
X12612Y11722
X12612Y9754
X31521Y13793
X31521Y15171
X31521Y16549
T06
X8820Y6852
X8820Y24175
X35986Y24175
X35986Y6852
M30
