G75*
%MOIN*%
%OFA0B0*%
%FSLAX25Y25*%
%IPPOS*%
%LPD*%
%AMOC8*
5,1,8,0,0,1.08239X$1,22.5*
%
%ADD10C,0.00000*%
%ADD11C,0.01000*%
%ADD12C,0.00500*%
%ADD13C,0.00400*%
%ADD14C,0.00197*%
%ADD15C,0.00787*%
%ADD16C,0.01575*%
%ADD17C,0.00600*%
%ADD18C,0.00984*%
%ADD19C,0.00394*%
%ADD20C,0.00800*%
D10*
X0076394Y0056709D02*
X0076394Y0253559D01*
X0371669Y0253559D01*
X0371669Y0056709D01*
X0076394Y0056709D01*
X0081906Y0068520D02*
X0081908Y0068678D01*
X0081914Y0068836D01*
X0081924Y0068994D01*
X0081938Y0069152D01*
X0081956Y0069309D01*
X0081977Y0069466D01*
X0082003Y0069622D01*
X0082033Y0069778D01*
X0082066Y0069933D01*
X0082104Y0070086D01*
X0082145Y0070239D01*
X0082190Y0070391D01*
X0082239Y0070542D01*
X0082292Y0070691D01*
X0082348Y0070839D01*
X0082408Y0070985D01*
X0082472Y0071130D01*
X0082540Y0071273D01*
X0082611Y0071415D01*
X0082685Y0071555D01*
X0082763Y0071692D01*
X0082845Y0071828D01*
X0082929Y0071962D01*
X0083018Y0072093D01*
X0083109Y0072222D01*
X0083204Y0072349D01*
X0083301Y0072474D01*
X0083402Y0072596D01*
X0083506Y0072715D01*
X0083613Y0072832D01*
X0083723Y0072946D01*
X0083836Y0073057D01*
X0083951Y0073166D01*
X0084069Y0073271D01*
X0084190Y0073373D01*
X0084313Y0073473D01*
X0084439Y0073569D01*
X0084567Y0073662D01*
X0084697Y0073752D01*
X0084830Y0073838D01*
X0084965Y0073922D01*
X0085101Y0074001D01*
X0085240Y0074078D01*
X0085381Y0074150D01*
X0085523Y0074220D01*
X0085667Y0074285D01*
X0085813Y0074347D01*
X0085960Y0074405D01*
X0086109Y0074460D01*
X0086259Y0074511D01*
X0086410Y0074558D01*
X0086562Y0074601D01*
X0086715Y0074640D01*
X0086870Y0074676D01*
X0087025Y0074707D01*
X0087181Y0074735D01*
X0087337Y0074759D01*
X0087494Y0074779D01*
X0087652Y0074795D01*
X0087809Y0074807D01*
X0087968Y0074815D01*
X0088126Y0074819D01*
X0088284Y0074819D01*
X0088442Y0074815D01*
X0088601Y0074807D01*
X0088758Y0074795D01*
X0088916Y0074779D01*
X0089073Y0074759D01*
X0089229Y0074735D01*
X0089385Y0074707D01*
X0089540Y0074676D01*
X0089695Y0074640D01*
X0089848Y0074601D01*
X0090000Y0074558D01*
X0090151Y0074511D01*
X0090301Y0074460D01*
X0090450Y0074405D01*
X0090597Y0074347D01*
X0090743Y0074285D01*
X0090887Y0074220D01*
X0091029Y0074150D01*
X0091170Y0074078D01*
X0091309Y0074001D01*
X0091445Y0073922D01*
X0091580Y0073838D01*
X0091713Y0073752D01*
X0091843Y0073662D01*
X0091971Y0073569D01*
X0092097Y0073473D01*
X0092220Y0073373D01*
X0092341Y0073271D01*
X0092459Y0073166D01*
X0092574Y0073057D01*
X0092687Y0072946D01*
X0092797Y0072832D01*
X0092904Y0072715D01*
X0093008Y0072596D01*
X0093109Y0072474D01*
X0093206Y0072349D01*
X0093301Y0072222D01*
X0093392Y0072093D01*
X0093481Y0071962D01*
X0093565Y0071828D01*
X0093647Y0071692D01*
X0093725Y0071555D01*
X0093799Y0071415D01*
X0093870Y0071273D01*
X0093938Y0071130D01*
X0094002Y0070985D01*
X0094062Y0070839D01*
X0094118Y0070691D01*
X0094171Y0070542D01*
X0094220Y0070391D01*
X0094265Y0070239D01*
X0094306Y0070086D01*
X0094344Y0069933D01*
X0094377Y0069778D01*
X0094407Y0069622D01*
X0094433Y0069466D01*
X0094454Y0069309D01*
X0094472Y0069152D01*
X0094486Y0068994D01*
X0094496Y0068836D01*
X0094502Y0068678D01*
X0094504Y0068520D01*
X0094502Y0068362D01*
X0094496Y0068204D01*
X0094486Y0068046D01*
X0094472Y0067888D01*
X0094454Y0067731D01*
X0094433Y0067574D01*
X0094407Y0067418D01*
X0094377Y0067262D01*
X0094344Y0067107D01*
X0094306Y0066954D01*
X0094265Y0066801D01*
X0094220Y0066649D01*
X0094171Y0066498D01*
X0094118Y0066349D01*
X0094062Y0066201D01*
X0094002Y0066055D01*
X0093938Y0065910D01*
X0093870Y0065767D01*
X0093799Y0065625D01*
X0093725Y0065485D01*
X0093647Y0065348D01*
X0093565Y0065212D01*
X0093481Y0065078D01*
X0093392Y0064947D01*
X0093301Y0064818D01*
X0093206Y0064691D01*
X0093109Y0064566D01*
X0093008Y0064444D01*
X0092904Y0064325D01*
X0092797Y0064208D01*
X0092687Y0064094D01*
X0092574Y0063983D01*
X0092459Y0063874D01*
X0092341Y0063769D01*
X0092220Y0063667D01*
X0092097Y0063567D01*
X0091971Y0063471D01*
X0091843Y0063378D01*
X0091713Y0063288D01*
X0091580Y0063202D01*
X0091445Y0063118D01*
X0091309Y0063039D01*
X0091170Y0062962D01*
X0091029Y0062890D01*
X0090887Y0062820D01*
X0090743Y0062755D01*
X0090597Y0062693D01*
X0090450Y0062635D01*
X0090301Y0062580D01*
X0090151Y0062529D01*
X0090000Y0062482D01*
X0089848Y0062439D01*
X0089695Y0062400D01*
X0089540Y0062364D01*
X0089385Y0062333D01*
X0089229Y0062305D01*
X0089073Y0062281D01*
X0088916Y0062261D01*
X0088758Y0062245D01*
X0088601Y0062233D01*
X0088442Y0062225D01*
X0088284Y0062221D01*
X0088126Y0062221D01*
X0087968Y0062225D01*
X0087809Y0062233D01*
X0087652Y0062245D01*
X0087494Y0062261D01*
X0087337Y0062281D01*
X0087181Y0062305D01*
X0087025Y0062333D01*
X0086870Y0062364D01*
X0086715Y0062400D01*
X0086562Y0062439D01*
X0086410Y0062482D01*
X0086259Y0062529D01*
X0086109Y0062580D01*
X0085960Y0062635D01*
X0085813Y0062693D01*
X0085667Y0062755D01*
X0085523Y0062820D01*
X0085381Y0062890D01*
X0085240Y0062962D01*
X0085101Y0063039D01*
X0084965Y0063118D01*
X0084830Y0063202D01*
X0084697Y0063288D01*
X0084567Y0063378D01*
X0084439Y0063471D01*
X0084313Y0063567D01*
X0084190Y0063667D01*
X0084069Y0063769D01*
X0083951Y0063874D01*
X0083836Y0063983D01*
X0083723Y0064094D01*
X0083613Y0064208D01*
X0083506Y0064325D01*
X0083402Y0064444D01*
X0083301Y0064566D01*
X0083204Y0064691D01*
X0083109Y0064818D01*
X0083018Y0064947D01*
X0082929Y0065078D01*
X0082845Y0065212D01*
X0082763Y0065348D01*
X0082685Y0065485D01*
X0082611Y0065625D01*
X0082540Y0065767D01*
X0082472Y0065910D01*
X0082408Y0066055D01*
X0082348Y0066201D01*
X0082292Y0066349D01*
X0082239Y0066498D01*
X0082190Y0066649D01*
X0082145Y0066801D01*
X0082104Y0066954D01*
X0082066Y0067107D01*
X0082033Y0067262D01*
X0082003Y0067418D01*
X0081977Y0067574D01*
X0081956Y0067731D01*
X0081938Y0067888D01*
X0081924Y0068046D01*
X0081914Y0068204D01*
X0081908Y0068362D01*
X0081906Y0068520D01*
X0081906Y0241748D02*
X0081908Y0241906D01*
X0081914Y0242064D01*
X0081924Y0242222D01*
X0081938Y0242380D01*
X0081956Y0242537D01*
X0081977Y0242694D01*
X0082003Y0242850D01*
X0082033Y0243006D01*
X0082066Y0243161D01*
X0082104Y0243314D01*
X0082145Y0243467D01*
X0082190Y0243619D01*
X0082239Y0243770D01*
X0082292Y0243919D01*
X0082348Y0244067D01*
X0082408Y0244213D01*
X0082472Y0244358D01*
X0082540Y0244501D01*
X0082611Y0244643D01*
X0082685Y0244783D01*
X0082763Y0244920D01*
X0082845Y0245056D01*
X0082929Y0245190D01*
X0083018Y0245321D01*
X0083109Y0245450D01*
X0083204Y0245577D01*
X0083301Y0245702D01*
X0083402Y0245824D01*
X0083506Y0245943D01*
X0083613Y0246060D01*
X0083723Y0246174D01*
X0083836Y0246285D01*
X0083951Y0246394D01*
X0084069Y0246499D01*
X0084190Y0246601D01*
X0084313Y0246701D01*
X0084439Y0246797D01*
X0084567Y0246890D01*
X0084697Y0246980D01*
X0084830Y0247066D01*
X0084965Y0247150D01*
X0085101Y0247229D01*
X0085240Y0247306D01*
X0085381Y0247378D01*
X0085523Y0247448D01*
X0085667Y0247513D01*
X0085813Y0247575D01*
X0085960Y0247633D01*
X0086109Y0247688D01*
X0086259Y0247739D01*
X0086410Y0247786D01*
X0086562Y0247829D01*
X0086715Y0247868D01*
X0086870Y0247904D01*
X0087025Y0247935D01*
X0087181Y0247963D01*
X0087337Y0247987D01*
X0087494Y0248007D01*
X0087652Y0248023D01*
X0087809Y0248035D01*
X0087968Y0248043D01*
X0088126Y0248047D01*
X0088284Y0248047D01*
X0088442Y0248043D01*
X0088601Y0248035D01*
X0088758Y0248023D01*
X0088916Y0248007D01*
X0089073Y0247987D01*
X0089229Y0247963D01*
X0089385Y0247935D01*
X0089540Y0247904D01*
X0089695Y0247868D01*
X0089848Y0247829D01*
X0090000Y0247786D01*
X0090151Y0247739D01*
X0090301Y0247688D01*
X0090450Y0247633D01*
X0090597Y0247575D01*
X0090743Y0247513D01*
X0090887Y0247448D01*
X0091029Y0247378D01*
X0091170Y0247306D01*
X0091309Y0247229D01*
X0091445Y0247150D01*
X0091580Y0247066D01*
X0091713Y0246980D01*
X0091843Y0246890D01*
X0091971Y0246797D01*
X0092097Y0246701D01*
X0092220Y0246601D01*
X0092341Y0246499D01*
X0092459Y0246394D01*
X0092574Y0246285D01*
X0092687Y0246174D01*
X0092797Y0246060D01*
X0092904Y0245943D01*
X0093008Y0245824D01*
X0093109Y0245702D01*
X0093206Y0245577D01*
X0093301Y0245450D01*
X0093392Y0245321D01*
X0093481Y0245190D01*
X0093565Y0245056D01*
X0093647Y0244920D01*
X0093725Y0244783D01*
X0093799Y0244643D01*
X0093870Y0244501D01*
X0093938Y0244358D01*
X0094002Y0244213D01*
X0094062Y0244067D01*
X0094118Y0243919D01*
X0094171Y0243770D01*
X0094220Y0243619D01*
X0094265Y0243467D01*
X0094306Y0243314D01*
X0094344Y0243161D01*
X0094377Y0243006D01*
X0094407Y0242850D01*
X0094433Y0242694D01*
X0094454Y0242537D01*
X0094472Y0242380D01*
X0094486Y0242222D01*
X0094496Y0242064D01*
X0094502Y0241906D01*
X0094504Y0241748D01*
X0094502Y0241590D01*
X0094496Y0241432D01*
X0094486Y0241274D01*
X0094472Y0241116D01*
X0094454Y0240959D01*
X0094433Y0240802D01*
X0094407Y0240646D01*
X0094377Y0240490D01*
X0094344Y0240335D01*
X0094306Y0240182D01*
X0094265Y0240029D01*
X0094220Y0239877D01*
X0094171Y0239726D01*
X0094118Y0239577D01*
X0094062Y0239429D01*
X0094002Y0239283D01*
X0093938Y0239138D01*
X0093870Y0238995D01*
X0093799Y0238853D01*
X0093725Y0238713D01*
X0093647Y0238576D01*
X0093565Y0238440D01*
X0093481Y0238306D01*
X0093392Y0238175D01*
X0093301Y0238046D01*
X0093206Y0237919D01*
X0093109Y0237794D01*
X0093008Y0237672D01*
X0092904Y0237553D01*
X0092797Y0237436D01*
X0092687Y0237322D01*
X0092574Y0237211D01*
X0092459Y0237102D01*
X0092341Y0236997D01*
X0092220Y0236895D01*
X0092097Y0236795D01*
X0091971Y0236699D01*
X0091843Y0236606D01*
X0091713Y0236516D01*
X0091580Y0236430D01*
X0091445Y0236346D01*
X0091309Y0236267D01*
X0091170Y0236190D01*
X0091029Y0236118D01*
X0090887Y0236048D01*
X0090743Y0235983D01*
X0090597Y0235921D01*
X0090450Y0235863D01*
X0090301Y0235808D01*
X0090151Y0235757D01*
X0090000Y0235710D01*
X0089848Y0235667D01*
X0089695Y0235628D01*
X0089540Y0235592D01*
X0089385Y0235561D01*
X0089229Y0235533D01*
X0089073Y0235509D01*
X0088916Y0235489D01*
X0088758Y0235473D01*
X0088601Y0235461D01*
X0088442Y0235453D01*
X0088284Y0235449D01*
X0088126Y0235449D01*
X0087968Y0235453D01*
X0087809Y0235461D01*
X0087652Y0235473D01*
X0087494Y0235489D01*
X0087337Y0235509D01*
X0087181Y0235533D01*
X0087025Y0235561D01*
X0086870Y0235592D01*
X0086715Y0235628D01*
X0086562Y0235667D01*
X0086410Y0235710D01*
X0086259Y0235757D01*
X0086109Y0235808D01*
X0085960Y0235863D01*
X0085813Y0235921D01*
X0085667Y0235983D01*
X0085523Y0236048D01*
X0085381Y0236118D01*
X0085240Y0236190D01*
X0085101Y0236267D01*
X0084965Y0236346D01*
X0084830Y0236430D01*
X0084697Y0236516D01*
X0084567Y0236606D01*
X0084439Y0236699D01*
X0084313Y0236795D01*
X0084190Y0236895D01*
X0084069Y0236997D01*
X0083951Y0237102D01*
X0083836Y0237211D01*
X0083723Y0237322D01*
X0083613Y0237436D01*
X0083506Y0237553D01*
X0083402Y0237672D01*
X0083301Y0237794D01*
X0083204Y0237919D01*
X0083109Y0238046D01*
X0083018Y0238175D01*
X0082929Y0238306D01*
X0082845Y0238440D01*
X0082763Y0238576D01*
X0082685Y0238713D01*
X0082611Y0238853D01*
X0082540Y0238995D01*
X0082472Y0239138D01*
X0082408Y0239283D01*
X0082348Y0239429D01*
X0082292Y0239577D01*
X0082239Y0239726D01*
X0082190Y0239877D01*
X0082145Y0240029D01*
X0082104Y0240182D01*
X0082066Y0240335D01*
X0082033Y0240490D01*
X0082003Y0240646D01*
X0081977Y0240802D01*
X0081956Y0240959D01*
X0081938Y0241116D01*
X0081924Y0241274D01*
X0081914Y0241432D01*
X0081908Y0241590D01*
X0081906Y0241748D01*
X0353559Y0241748D02*
X0353561Y0241906D01*
X0353567Y0242064D01*
X0353577Y0242222D01*
X0353591Y0242380D01*
X0353609Y0242537D01*
X0353630Y0242694D01*
X0353656Y0242850D01*
X0353686Y0243006D01*
X0353719Y0243161D01*
X0353757Y0243314D01*
X0353798Y0243467D01*
X0353843Y0243619D01*
X0353892Y0243770D01*
X0353945Y0243919D01*
X0354001Y0244067D01*
X0354061Y0244213D01*
X0354125Y0244358D01*
X0354193Y0244501D01*
X0354264Y0244643D01*
X0354338Y0244783D01*
X0354416Y0244920D01*
X0354498Y0245056D01*
X0354582Y0245190D01*
X0354671Y0245321D01*
X0354762Y0245450D01*
X0354857Y0245577D01*
X0354954Y0245702D01*
X0355055Y0245824D01*
X0355159Y0245943D01*
X0355266Y0246060D01*
X0355376Y0246174D01*
X0355489Y0246285D01*
X0355604Y0246394D01*
X0355722Y0246499D01*
X0355843Y0246601D01*
X0355966Y0246701D01*
X0356092Y0246797D01*
X0356220Y0246890D01*
X0356350Y0246980D01*
X0356483Y0247066D01*
X0356618Y0247150D01*
X0356754Y0247229D01*
X0356893Y0247306D01*
X0357034Y0247378D01*
X0357176Y0247448D01*
X0357320Y0247513D01*
X0357466Y0247575D01*
X0357613Y0247633D01*
X0357762Y0247688D01*
X0357912Y0247739D01*
X0358063Y0247786D01*
X0358215Y0247829D01*
X0358368Y0247868D01*
X0358523Y0247904D01*
X0358678Y0247935D01*
X0358834Y0247963D01*
X0358990Y0247987D01*
X0359147Y0248007D01*
X0359305Y0248023D01*
X0359462Y0248035D01*
X0359621Y0248043D01*
X0359779Y0248047D01*
X0359937Y0248047D01*
X0360095Y0248043D01*
X0360254Y0248035D01*
X0360411Y0248023D01*
X0360569Y0248007D01*
X0360726Y0247987D01*
X0360882Y0247963D01*
X0361038Y0247935D01*
X0361193Y0247904D01*
X0361348Y0247868D01*
X0361501Y0247829D01*
X0361653Y0247786D01*
X0361804Y0247739D01*
X0361954Y0247688D01*
X0362103Y0247633D01*
X0362250Y0247575D01*
X0362396Y0247513D01*
X0362540Y0247448D01*
X0362682Y0247378D01*
X0362823Y0247306D01*
X0362962Y0247229D01*
X0363098Y0247150D01*
X0363233Y0247066D01*
X0363366Y0246980D01*
X0363496Y0246890D01*
X0363624Y0246797D01*
X0363750Y0246701D01*
X0363873Y0246601D01*
X0363994Y0246499D01*
X0364112Y0246394D01*
X0364227Y0246285D01*
X0364340Y0246174D01*
X0364450Y0246060D01*
X0364557Y0245943D01*
X0364661Y0245824D01*
X0364762Y0245702D01*
X0364859Y0245577D01*
X0364954Y0245450D01*
X0365045Y0245321D01*
X0365134Y0245190D01*
X0365218Y0245056D01*
X0365300Y0244920D01*
X0365378Y0244783D01*
X0365452Y0244643D01*
X0365523Y0244501D01*
X0365591Y0244358D01*
X0365655Y0244213D01*
X0365715Y0244067D01*
X0365771Y0243919D01*
X0365824Y0243770D01*
X0365873Y0243619D01*
X0365918Y0243467D01*
X0365959Y0243314D01*
X0365997Y0243161D01*
X0366030Y0243006D01*
X0366060Y0242850D01*
X0366086Y0242694D01*
X0366107Y0242537D01*
X0366125Y0242380D01*
X0366139Y0242222D01*
X0366149Y0242064D01*
X0366155Y0241906D01*
X0366157Y0241748D01*
X0366155Y0241590D01*
X0366149Y0241432D01*
X0366139Y0241274D01*
X0366125Y0241116D01*
X0366107Y0240959D01*
X0366086Y0240802D01*
X0366060Y0240646D01*
X0366030Y0240490D01*
X0365997Y0240335D01*
X0365959Y0240182D01*
X0365918Y0240029D01*
X0365873Y0239877D01*
X0365824Y0239726D01*
X0365771Y0239577D01*
X0365715Y0239429D01*
X0365655Y0239283D01*
X0365591Y0239138D01*
X0365523Y0238995D01*
X0365452Y0238853D01*
X0365378Y0238713D01*
X0365300Y0238576D01*
X0365218Y0238440D01*
X0365134Y0238306D01*
X0365045Y0238175D01*
X0364954Y0238046D01*
X0364859Y0237919D01*
X0364762Y0237794D01*
X0364661Y0237672D01*
X0364557Y0237553D01*
X0364450Y0237436D01*
X0364340Y0237322D01*
X0364227Y0237211D01*
X0364112Y0237102D01*
X0363994Y0236997D01*
X0363873Y0236895D01*
X0363750Y0236795D01*
X0363624Y0236699D01*
X0363496Y0236606D01*
X0363366Y0236516D01*
X0363233Y0236430D01*
X0363098Y0236346D01*
X0362962Y0236267D01*
X0362823Y0236190D01*
X0362682Y0236118D01*
X0362540Y0236048D01*
X0362396Y0235983D01*
X0362250Y0235921D01*
X0362103Y0235863D01*
X0361954Y0235808D01*
X0361804Y0235757D01*
X0361653Y0235710D01*
X0361501Y0235667D01*
X0361348Y0235628D01*
X0361193Y0235592D01*
X0361038Y0235561D01*
X0360882Y0235533D01*
X0360726Y0235509D01*
X0360569Y0235489D01*
X0360411Y0235473D01*
X0360254Y0235461D01*
X0360095Y0235453D01*
X0359937Y0235449D01*
X0359779Y0235449D01*
X0359621Y0235453D01*
X0359462Y0235461D01*
X0359305Y0235473D01*
X0359147Y0235489D01*
X0358990Y0235509D01*
X0358834Y0235533D01*
X0358678Y0235561D01*
X0358523Y0235592D01*
X0358368Y0235628D01*
X0358215Y0235667D01*
X0358063Y0235710D01*
X0357912Y0235757D01*
X0357762Y0235808D01*
X0357613Y0235863D01*
X0357466Y0235921D01*
X0357320Y0235983D01*
X0357176Y0236048D01*
X0357034Y0236118D01*
X0356893Y0236190D01*
X0356754Y0236267D01*
X0356618Y0236346D01*
X0356483Y0236430D01*
X0356350Y0236516D01*
X0356220Y0236606D01*
X0356092Y0236699D01*
X0355966Y0236795D01*
X0355843Y0236895D01*
X0355722Y0236997D01*
X0355604Y0237102D01*
X0355489Y0237211D01*
X0355376Y0237322D01*
X0355266Y0237436D01*
X0355159Y0237553D01*
X0355055Y0237672D01*
X0354954Y0237794D01*
X0354857Y0237919D01*
X0354762Y0238046D01*
X0354671Y0238175D01*
X0354582Y0238306D01*
X0354498Y0238440D01*
X0354416Y0238576D01*
X0354338Y0238713D01*
X0354264Y0238853D01*
X0354193Y0238995D01*
X0354125Y0239138D01*
X0354061Y0239283D01*
X0354001Y0239429D01*
X0353945Y0239577D01*
X0353892Y0239726D01*
X0353843Y0239877D01*
X0353798Y0240029D01*
X0353757Y0240182D01*
X0353719Y0240335D01*
X0353686Y0240490D01*
X0353656Y0240646D01*
X0353630Y0240802D01*
X0353609Y0240959D01*
X0353591Y0241116D01*
X0353577Y0241274D01*
X0353567Y0241432D01*
X0353561Y0241590D01*
X0353559Y0241748D01*
X0353559Y0068520D02*
X0353561Y0068678D01*
X0353567Y0068836D01*
X0353577Y0068994D01*
X0353591Y0069152D01*
X0353609Y0069309D01*
X0353630Y0069466D01*
X0353656Y0069622D01*
X0353686Y0069778D01*
X0353719Y0069933D01*
X0353757Y0070086D01*
X0353798Y0070239D01*
X0353843Y0070391D01*
X0353892Y0070542D01*
X0353945Y0070691D01*
X0354001Y0070839D01*
X0354061Y0070985D01*
X0354125Y0071130D01*
X0354193Y0071273D01*
X0354264Y0071415D01*
X0354338Y0071555D01*
X0354416Y0071692D01*
X0354498Y0071828D01*
X0354582Y0071962D01*
X0354671Y0072093D01*
X0354762Y0072222D01*
X0354857Y0072349D01*
X0354954Y0072474D01*
X0355055Y0072596D01*
X0355159Y0072715D01*
X0355266Y0072832D01*
X0355376Y0072946D01*
X0355489Y0073057D01*
X0355604Y0073166D01*
X0355722Y0073271D01*
X0355843Y0073373D01*
X0355966Y0073473D01*
X0356092Y0073569D01*
X0356220Y0073662D01*
X0356350Y0073752D01*
X0356483Y0073838D01*
X0356618Y0073922D01*
X0356754Y0074001D01*
X0356893Y0074078D01*
X0357034Y0074150D01*
X0357176Y0074220D01*
X0357320Y0074285D01*
X0357466Y0074347D01*
X0357613Y0074405D01*
X0357762Y0074460D01*
X0357912Y0074511D01*
X0358063Y0074558D01*
X0358215Y0074601D01*
X0358368Y0074640D01*
X0358523Y0074676D01*
X0358678Y0074707D01*
X0358834Y0074735D01*
X0358990Y0074759D01*
X0359147Y0074779D01*
X0359305Y0074795D01*
X0359462Y0074807D01*
X0359621Y0074815D01*
X0359779Y0074819D01*
X0359937Y0074819D01*
X0360095Y0074815D01*
X0360254Y0074807D01*
X0360411Y0074795D01*
X0360569Y0074779D01*
X0360726Y0074759D01*
X0360882Y0074735D01*
X0361038Y0074707D01*
X0361193Y0074676D01*
X0361348Y0074640D01*
X0361501Y0074601D01*
X0361653Y0074558D01*
X0361804Y0074511D01*
X0361954Y0074460D01*
X0362103Y0074405D01*
X0362250Y0074347D01*
X0362396Y0074285D01*
X0362540Y0074220D01*
X0362682Y0074150D01*
X0362823Y0074078D01*
X0362962Y0074001D01*
X0363098Y0073922D01*
X0363233Y0073838D01*
X0363366Y0073752D01*
X0363496Y0073662D01*
X0363624Y0073569D01*
X0363750Y0073473D01*
X0363873Y0073373D01*
X0363994Y0073271D01*
X0364112Y0073166D01*
X0364227Y0073057D01*
X0364340Y0072946D01*
X0364450Y0072832D01*
X0364557Y0072715D01*
X0364661Y0072596D01*
X0364762Y0072474D01*
X0364859Y0072349D01*
X0364954Y0072222D01*
X0365045Y0072093D01*
X0365134Y0071962D01*
X0365218Y0071828D01*
X0365300Y0071692D01*
X0365378Y0071555D01*
X0365452Y0071415D01*
X0365523Y0071273D01*
X0365591Y0071130D01*
X0365655Y0070985D01*
X0365715Y0070839D01*
X0365771Y0070691D01*
X0365824Y0070542D01*
X0365873Y0070391D01*
X0365918Y0070239D01*
X0365959Y0070086D01*
X0365997Y0069933D01*
X0366030Y0069778D01*
X0366060Y0069622D01*
X0366086Y0069466D01*
X0366107Y0069309D01*
X0366125Y0069152D01*
X0366139Y0068994D01*
X0366149Y0068836D01*
X0366155Y0068678D01*
X0366157Y0068520D01*
X0366155Y0068362D01*
X0366149Y0068204D01*
X0366139Y0068046D01*
X0366125Y0067888D01*
X0366107Y0067731D01*
X0366086Y0067574D01*
X0366060Y0067418D01*
X0366030Y0067262D01*
X0365997Y0067107D01*
X0365959Y0066954D01*
X0365918Y0066801D01*
X0365873Y0066649D01*
X0365824Y0066498D01*
X0365771Y0066349D01*
X0365715Y0066201D01*
X0365655Y0066055D01*
X0365591Y0065910D01*
X0365523Y0065767D01*
X0365452Y0065625D01*
X0365378Y0065485D01*
X0365300Y0065348D01*
X0365218Y0065212D01*
X0365134Y0065078D01*
X0365045Y0064947D01*
X0364954Y0064818D01*
X0364859Y0064691D01*
X0364762Y0064566D01*
X0364661Y0064444D01*
X0364557Y0064325D01*
X0364450Y0064208D01*
X0364340Y0064094D01*
X0364227Y0063983D01*
X0364112Y0063874D01*
X0363994Y0063769D01*
X0363873Y0063667D01*
X0363750Y0063567D01*
X0363624Y0063471D01*
X0363496Y0063378D01*
X0363366Y0063288D01*
X0363233Y0063202D01*
X0363098Y0063118D01*
X0362962Y0063039D01*
X0362823Y0062962D01*
X0362682Y0062890D01*
X0362540Y0062820D01*
X0362396Y0062755D01*
X0362250Y0062693D01*
X0362103Y0062635D01*
X0361954Y0062580D01*
X0361804Y0062529D01*
X0361653Y0062482D01*
X0361501Y0062439D01*
X0361348Y0062400D01*
X0361193Y0062364D01*
X0361038Y0062333D01*
X0360882Y0062305D01*
X0360726Y0062281D01*
X0360569Y0062261D01*
X0360411Y0062245D01*
X0360254Y0062233D01*
X0360095Y0062225D01*
X0359937Y0062221D01*
X0359779Y0062221D01*
X0359621Y0062225D01*
X0359462Y0062233D01*
X0359305Y0062245D01*
X0359147Y0062261D01*
X0358990Y0062281D01*
X0358834Y0062305D01*
X0358678Y0062333D01*
X0358523Y0062364D01*
X0358368Y0062400D01*
X0358215Y0062439D01*
X0358063Y0062482D01*
X0357912Y0062529D01*
X0357762Y0062580D01*
X0357613Y0062635D01*
X0357466Y0062693D01*
X0357320Y0062755D01*
X0357176Y0062820D01*
X0357034Y0062890D01*
X0356893Y0062962D01*
X0356754Y0063039D01*
X0356618Y0063118D01*
X0356483Y0063202D01*
X0356350Y0063288D01*
X0356220Y0063378D01*
X0356092Y0063471D01*
X0355966Y0063567D01*
X0355843Y0063667D01*
X0355722Y0063769D01*
X0355604Y0063874D01*
X0355489Y0063983D01*
X0355376Y0064094D01*
X0355266Y0064208D01*
X0355159Y0064325D01*
X0355055Y0064444D01*
X0354954Y0064566D01*
X0354857Y0064691D01*
X0354762Y0064818D01*
X0354671Y0064947D01*
X0354582Y0065078D01*
X0354498Y0065212D01*
X0354416Y0065348D01*
X0354338Y0065485D01*
X0354264Y0065625D01*
X0354193Y0065767D01*
X0354125Y0065910D01*
X0354061Y0066055D01*
X0354001Y0066201D01*
X0353945Y0066349D01*
X0353892Y0066498D01*
X0353843Y0066649D01*
X0353798Y0066801D01*
X0353757Y0066954D01*
X0353719Y0067107D01*
X0353686Y0067262D01*
X0353656Y0067418D01*
X0353630Y0067574D01*
X0353609Y0067731D01*
X0353591Y0067888D01*
X0353577Y0068046D01*
X0353567Y0068204D01*
X0353561Y0068362D01*
X0353559Y0068520D01*
D11*
X0296970Y0066273D02*
X0296972Y0066317D01*
X0296978Y0066362D01*
X0296988Y0066405D01*
X0297002Y0066447D01*
X0297019Y0066488D01*
X0297040Y0066527D01*
X0297065Y0066565D01*
X0297092Y0066599D01*
X0297123Y0066632D01*
X0297157Y0066661D01*
X0297193Y0066687D01*
X0297231Y0066710D01*
X0297271Y0066729D01*
X0297313Y0066745D01*
X0297356Y0066757D01*
X0297399Y0066765D01*
X0297444Y0066769D01*
X0297488Y0066769D01*
X0297533Y0066765D01*
X0297576Y0066757D01*
X0297619Y0066745D01*
X0297661Y0066729D01*
X0297701Y0066710D01*
X0297739Y0066687D01*
X0297775Y0066661D01*
X0297809Y0066632D01*
X0297840Y0066599D01*
X0297867Y0066565D01*
X0297892Y0066527D01*
X0297913Y0066488D01*
X0297930Y0066447D01*
X0297944Y0066405D01*
X0297954Y0066362D01*
X0297960Y0066317D01*
X0297962Y0066273D01*
X0297960Y0066229D01*
X0297954Y0066184D01*
X0297944Y0066141D01*
X0297930Y0066099D01*
X0297913Y0066058D01*
X0297892Y0066019D01*
X0297867Y0065981D01*
X0297840Y0065947D01*
X0297809Y0065914D01*
X0297775Y0065885D01*
X0297739Y0065859D01*
X0297701Y0065836D01*
X0297661Y0065817D01*
X0297619Y0065801D01*
X0297576Y0065789D01*
X0297533Y0065781D01*
X0297488Y0065777D01*
X0297444Y0065777D01*
X0297399Y0065781D01*
X0297356Y0065789D01*
X0297313Y0065801D01*
X0297271Y0065817D01*
X0297231Y0065836D01*
X0297193Y0065859D01*
X0297157Y0065885D01*
X0297123Y0065914D01*
X0297092Y0065947D01*
X0297065Y0065981D01*
X0297040Y0066019D01*
X0297019Y0066058D01*
X0297002Y0066099D01*
X0296988Y0066141D01*
X0296978Y0066184D01*
X0296972Y0066229D01*
X0296970Y0066273D01*
X0296970Y0126273D02*
X0296972Y0126317D01*
X0296978Y0126362D01*
X0296988Y0126405D01*
X0297002Y0126447D01*
X0297019Y0126488D01*
X0297040Y0126527D01*
X0297065Y0126565D01*
X0297092Y0126599D01*
X0297123Y0126632D01*
X0297157Y0126661D01*
X0297193Y0126687D01*
X0297231Y0126710D01*
X0297271Y0126729D01*
X0297313Y0126745D01*
X0297356Y0126757D01*
X0297399Y0126765D01*
X0297444Y0126769D01*
X0297488Y0126769D01*
X0297533Y0126765D01*
X0297576Y0126757D01*
X0297619Y0126745D01*
X0297661Y0126729D01*
X0297701Y0126710D01*
X0297739Y0126687D01*
X0297775Y0126661D01*
X0297809Y0126632D01*
X0297840Y0126599D01*
X0297867Y0126565D01*
X0297892Y0126527D01*
X0297913Y0126488D01*
X0297930Y0126447D01*
X0297944Y0126405D01*
X0297954Y0126362D01*
X0297960Y0126317D01*
X0297962Y0126273D01*
X0297960Y0126229D01*
X0297954Y0126184D01*
X0297944Y0126141D01*
X0297930Y0126099D01*
X0297913Y0126058D01*
X0297892Y0126019D01*
X0297867Y0125981D01*
X0297840Y0125947D01*
X0297809Y0125914D01*
X0297775Y0125885D01*
X0297739Y0125859D01*
X0297701Y0125836D01*
X0297661Y0125817D01*
X0297619Y0125801D01*
X0297576Y0125789D01*
X0297533Y0125781D01*
X0297488Y0125777D01*
X0297444Y0125777D01*
X0297399Y0125781D01*
X0297356Y0125789D01*
X0297313Y0125801D01*
X0297271Y0125817D01*
X0297231Y0125836D01*
X0297193Y0125859D01*
X0297157Y0125885D01*
X0297123Y0125914D01*
X0297092Y0125947D01*
X0297065Y0125981D01*
X0297040Y0126019D01*
X0297019Y0126058D01*
X0297002Y0126099D01*
X0296988Y0126141D01*
X0296978Y0126184D01*
X0296972Y0126229D01*
X0296970Y0126273D01*
X0249589Y0125018D02*
X0249591Y0125062D01*
X0249597Y0125107D01*
X0249607Y0125150D01*
X0249621Y0125192D01*
X0249638Y0125233D01*
X0249659Y0125272D01*
X0249684Y0125310D01*
X0249711Y0125344D01*
X0249742Y0125377D01*
X0249776Y0125406D01*
X0249812Y0125432D01*
X0249850Y0125455D01*
X0249890Y0125474D01*
X0249932Y0125490D01*
X0249975Y0125502D01*
X0250018Y0125510D01*
X0250063Y0125514D01*
X0250107Y0125514D01*
X0250152Y0125510D01*
X0250195Y0125502D01*
X0250238Y0125490D01*
X0250280Y0125474D01*
X0250320Y0125455D01*
X0250358Y0125432D01*
X0250394Y0125406D01*
X0250428Y0125377D01*
X0250459Y0125344D01*
X0250486Y0125310D01*
X0250511Y0125272D01*
X0250532Y0125233D01*
X0250549Y0125192D01*
X0250563Y0125150D01*
X0250573Y0125107D01*
X0250579Y0125062D01*
X0250581Y0125018D01*
X0250579Y0124974D01*
X0250573Y0124929D01*
X0250563Y0124886D01*
X0250549Y0124844D01*
X0250532Y0124803D01*
X0250511Y0124764D01*
X0250486Y0124726D01*
X0250459Y0124692D01*
X0250428Y0124659D01*
X0250394Y0124630D01*
X0250358Y0124604D01*
X0250320Y0124581D01*
X0250280Y0124562D01*
X0250238Y0124546D01*
X0250195Y0124534D01*
X0250152Y0124526D01*
X0250107Y0124522D01*
X0250063Y0124522D01*
X0250018Y0124526D01*
X0249975Y0124534D01*
X0249932Y0124546D01*
X0249890Y0124562D01*
X0249850Y0124581D01*
X0249812Y0124604D01*
X0249776Y0124630D01*
X0249742Y0124659D01*
X0249711Y0124692D01*
X0249684Y0124726D01*
X0249659Y0124764D01*
X0249638Y0124803D01*
X0249621Y0124844D01*
X0249607Y0124886D01*
X0249597Y0124929D01*
X0249591Y0124974D01*
X0249589Y0125018D01*
X0249589Y0185018D02*
X0249591Y0185062D01*
X0249597Y0185107D01*
X0249607Y0185150D01*
X0249621Y0185192D01*
X0249638Y0185233D01*
X0249659Y0185272D01*
X0249684Y0185310D01*
X0249711Y0185344D01*
X0249742Y0185377D01*
X0249776Y0185406D01*
X0249812Y0185432D01*
X0249850Y0185455D01*
X0249890Y0185474D01*
X0249932Y0185490D01*
X0249975Y0185502D01*
X0250018Y0185510D01*
X0250063Y0185514D01*
X0250107Y0185514D01*
X0250152Y0185510D01*
X0250195Y0185502D01*
X0250238Y0185490D01*
X0250280Y0185474D01*
X0250320Y0185455D01*
X0250358Y0185432D01*
X0250394Y0185406D01*
X0250428Y0185377D01*
X0250459Y0185344D01*
X0250486Y0185310D01*
X0250511Y0185272D01*
X0250532Y0185233D01*
X0250549Y0185192D01*
X0250563Y0185150D01*
X0250573Y0185107D01*
X0250579Y0185062D01*
X0250581Y0185018D01*
X0250579Y0184974D01*
X0250573Y0184929D01*
X0250563Y0184886D01*
X0250549Y0184844D01*
X0250532Y0184803D01*
X0250511Y0184764D01*
X0250486Y0184726D01*
X0250459Y0184692D01*
X0250428Y0184659D01*
X0250394Y0184630D01*
X0250358Y0184604D01*
X0250320Y0184581D01*
X0250280Y0184562D01*
X0250238Y0184546D01*
X0250195Y0184534D01*
X0250152Y0184526D01*
X0250107Y0184522D01*
X0250063Y0184522D01*
X0250018Y0184526D01*
X0249975Y0184534D01*
X0249932Y0184546D01*
X0249890Y0184562D01*
X0249850Y0184581D01*
X0249812Y0184604D01*
X0249776Y0184630D01*
X0249742Y0184659D01*
X0249711Y0184692D01*
X0249684Y0184726D01*
X0249659Y0184764D01*
X0249638Y0184803D01*
X0249621Y0184844D01*
X0249607Y0184886D01*
X0249597Y0184929D01*
X0249591Y0184974D01*
X0249589Y0185018D01*
X0296970Y0186273D02*
X0296972Y0186317D01*
X0296978Y0186362D01*
X0296988Y0186405D01*
X0297002Y0186447D01*
X0297019Y0186488D01*
X0297040Y0186527D01*
X0297065Y0186565D01*
X0297092Y0186599D01*
X0297123Y0186632D01*
X0297157Y0186661D01*
X0297193Y0186687D01*
X0297231Y0186710D01*
X0297271Y0186729D01*
X0297313Y0186745D01*
X0297356Y0186757D01*
X0297399Y0186765D01*
X0297444Y0186769D01*
X0297488Y0186769D01*
X0297533Y0186765D01*
X0297576Y0186757D01*
X0297619Y0186745D01*
X0297661Y0186729D01*
X0297701Y0186710D01*
X0297739Y0186687D01*
X0297775Y0186661D01*
X0297809Y0186632D01*
X0297840Y0186599D01*
X0297867Y0186565D01*
X0297892Y0186527D01*
X0297913Y0186488D01*
X0297930Y0186447D01*
X0297944Y0186405D01*
X0297954Y0186362D01*
X0297960Y0186317D01*
X0297962Y0186273D01*
X0297960Y0186229D01*
X0297954Y0186184D01*
X0297944Y0186141D01*
X0297930Y0186099D01*
X0297913Y0186058D01*
X0297892Y0186019D01*
X0297867Y0185981D01*
X0297840Y0185947D01*
X0297809Y0185914D01*
X0297775Y0185885D01*
X0297739Y0185859D01*
X0297701Y0185836D01*
X0297661Y0185817D01*
X0297619Y0185801D01*
X0297576Y0185789D01*
X0297533Y0185781D01*
X0297488Y0185777D01*
X0297444Y0185777D01*
X0297399Y0185781D01*
X0297356Y0185789D01*
X0297313Y0185801D01*
X0297271Y0185817D01*
X0297231Y0185836D01*
X0297193Y0185859D01*
X0297157Y0185885D01*
X0297123Y0185914D01*
X0297092Y0185947D01*
X0297065Y0185981D01*
X0297040Y0186019D01*
X0297019Y0186058D01*
X0297002Y0186099D01*
X0296988Y0186141D01*
X0296978Y0186184D01*
X0296972Y0186229D01*
X0296970Y0186273D01*
X0249589Y0245018D02*
X0249591Y0245062D01*
X0249597Y0245107D01*
X0249607Y0245150D01*
X0249621Y0245192D01*
X0249638Y0245233D01*
X0249659Y0245272D01*
X0249684Y0245310D01*
X0249711Y0245344D01*
X0249742Y0245377D01*
X0249776Y0245406D01*
X0249812Y0245432D01*
X0249850Y0245455D01*
X0249890Y0245474D01*
X0249932Y0245490D01*
X0249975Y0245502D01*
X0250018Y0245510D01*
X0250063Y0245514D01*
X0250107Y0245514D01*
X0250152Y0245510D01*
X0250195Y0245502D01*
X0250238Y0245490D01*
X0250280Y0245474D01*
X0250320Y0245455D01*
X0250358Y0245432D01*
X0250394Y0245406D01*
X0250428Y0245377D01*
X0250459Y0245344D01*
X0250486Y0245310D01*
X0250511Y0245272D01*
X0250532Y0245233D01*
X0250549Y0245192D01*
X0250563Y0245150D01*
X0250573Y0245107D01*
X0250579Y0245062D01*
X0250581Y0245018D01*
X0250579Y0244974D01*
X0250573Y0244929D01*
X0250563Y0244886D01*
X0250549Y0244844D01*
X0250532Y0244803D01*
X0250511Y0244764D01*
X0250486Y0244726D01*
X0250459Y0244692D01*
X0250428Y0244659D01*
X0250394Y0244630D01*
X0250358Y0244604D01*
X0250320Y0244581D01*
X0250280Y0244562D01*
X0250238Y0244546D01*
X0250195Y0244534D01*
X0250152Y0244526D01*
X0250107Y0244522D01*
X0250063Y0244522D01*
X0250018Y0244526D01*
X0249975Y0244534D01*
X0249932Y0244546D01*
X0249890Y0244562D01*
X0249850Y0244581D01*
X0249812Y0244604D01*
X0249776Y0244630D01*
X0249742Y0244659D01*
X0249711Y0244692D01*
X0249684Y0244726D01*
X0249659Y0244764D01*
X0249638Y0244803D01*
X0249621Y0244844D01*
X0249607Y0244886D01*
X0249597Y0244929D01*
X0249591Y0244974D01*
X0249589Y0245018D01*
X0085417Y0135058D02*
X0080831Y0135058D01*
X0082337Y0081840D02*
X0082337Y0077253D01*
X0084630Y0079546D02*
X0080043Y0079546D01*
D12*
X0076906Y0085724D02*
X0126118Y0085724D01*
X0126118Y0129031D01*
X0076906Y0129031D01*
X0076906Y0085724D01*
X0090817Y0079117D02*
X0090817Y0078543D01*
X0091390Y0077970D01*
X0092537Y0077970D01*
X0093110Y0077397D01*
X0093110Y0076823D01*
X0092537Y0076250D01*
X0091390Y0076250D01*
X0090817Y0076823D01*
X0090817Y0077397D01*
X0091390Y0077970D01*
X0092537Y0077970D02*
X0093110Y0078543D01*
X0093110Y0079117D01*
X0092537Y0079690D01*
X0091390Y0079690D01*
X0090817Y0079117D01*
X0094442Y0077970D02*
X0096735Y0077970D01*
X0098067Y0077970D02*
X0100360Y0077970D01*
X0101692Y0077970D02*
X0102839Y0078543D01*
X0103412Y0078543D01*
X0103986Y0077970D01*
X0103986Y0076823D01*
X0103412Y0076250D01*
X0102266Y0076250D01*
X0101692Y0076823D01*
X0101692Y0077970D02*
X0101692Y0079690D01*
X0103986Y0079690D01*
X0105317Y0079690D02*
X0105317Y0077397D01*
X0106464Y0076250D01*
X0107611Y0077397D01*
X0107611Y0079690D01*
X0112568Y0078543D02*
X0113141Y0078543D01*
X0113141Y0076250D01*
X0112568Y0076250D02*
X0113714Y0076250D01*
X0114984Y0076250D02*
X0114984Y0078543D01*
X0116704Y0078543D01*
X0117278Y0077970D01*
X0117278Y0076250D01*
X0118610Y0076250D02*
X0120330Y0076250D01*
X0120903Y0076823D01*
X0120903Y0077970D01*
X0120330Y0078543D01*
X0118610Y0078543D01*
X0118610Y0075103D01*
X0122235Y0076823D02*
X0122808Y0076250D01*
X0124528Y0076250D01*
X0124528Y0078543D01*
X0125860Y0078543D02*
X0127007Y0078543D01*
X0126433Y0079117D02*
X0126433Y0076823D01*
X0127007Y0076250D01*
X0122235Y0076823D02*
X0122235Y0078543D01*
X0113141Y0079690D02*
X0113141Y0080263D01*
X0099787Y0079690D02*
X0099787Y0076250D01*
X0098067Y0077970D02*
X0099787Y0079690D01*
X0141744Y0201988D02*
X0139744Y0203988D01*
X0139744Y0211988D01*
X0141744Y0213988D01*
X0144744Y0213988D01*
X0145744Y0212988D01*
X0146744Y0213988D01*
X0149744Y0213988D01*
X0150744Y0212988D01*
X0151744Y0213988D01*
X0154744Y0213988D01*
X0156744Y0211988D01*
X0156744Y0203988D01*
X0154744Y0201988D01*
X0151744Y0201988D01*
X0150744Y0202988D01*
X0149744Y0201988D01*
X0146744Y0201988D01*
X0145744Y0202988D01*
X0144744Y0201988D01*
X0141744Y0201988D01*
X0115360Y0240779D02*
X0115360Y0244529D01*
X0308927Y0244360D02*
X0310647Y0244360D01*
X0311220Y0244934D01*
X0311220Y0247227D01*
X0310647Y0247800D01*
X0308927Y0247800D01*
X0308927Y0244360D01*
X0309500Y0241895D02*
X0308927Y0241321D01*
X0308927Y0239028D01*
X0309500Y0238455D01*
X0310647Y0238455D01*
X0311220Y0239028D01*
X0311220Y0241321D01*
X0310647Y0241895D01*
X0309500Y0241895D01*
X0312552Y0241895D02*
X0313126Y0241895D01*
X0313126Y0238455D01*
X0313699Y0238455D02*
X0312552Y0238455D01*
X0314969Y0239028D02*
X0314969Y0240175D01*
X0315542Y0240748D01*
X0316689Y0240748D01*
X0317262Y0240175D01*
X0317262Y0239601D01*
X0314969Y0239601D01*
X0314969Y0239028D02*
X0315542Y0238455D01*
X0316689Y0238455D01*
X0316751Y0235989D02*
X0316177Y0235416D01*
X0316751Y0235989D02*
X0317897Y0235989D01*
X0318471Y0235416D01*
X0318471Y0234843D01*
X0316177Y0232549D01*
X0318471Y0232549D01*
X0319803Y0233123D02*
X0320376Y0232549D01*
X0321523Y0232549D01*
X0322096Y0233123D01*
X0322096Y0235416D01*
X0319803Y0233123D01*
X0319803Y0235416D01*
X0320376Y0235989D01*
X0321523Y0235989D01*
X0322096Y0235416D01*
X0323428Y0234843D02*
X0324574Y0235989D01*
X0324574Y0232549D01*
X0323428Y0232549D02*
X0325721Y0232549D01*
X0327053Y0232549D02*
X0327053Y0233123D01*
X0329346Y0235416D01*
X0329346Y0235989D01*
X0327053Y0235989D01*
X0326418Y0238455D02*
X0325844Y0239028D01*
X0326418Y0239601D01*
X0328138Y0239601D01*
X0328138Y0240175D02*
X0328138Y0238455D01*
X0326418Y0238455D01*
X0324513Y0239028D02*
X0323939Y0238455D01*
X0322219Y0238455D01*
X0322219Y0241895D01*
X0323939Y0241895D01*
X0324513Y0241321D01*
X0324513Y0240748D01*
X0323939Y0240175D01*
X0322219Y0240175D01*
X0323939Y0240175D02*
X0324513Y0239601D01*
X0324513Y0239028D01*
X0326418Y0240748D02*
X0327564Y0240748D01*
X0328138Y0240175D01*
X0329470Y0240748D02*
X0329470Y0239028D01*
X0330043Y0238455D01*
X0331763Y0238455D01*
X0331763Y0240748D01*
X0333095Y0240175D02*
X0333095Y0239028D01*
X0333668Y0238455D01*
X0335388Y0238455D01*
X0336720Y0238455D02*
X0336720Y0241895D01*
X0335388Y0240748D02*
X0333668Y0240748D01*
X0333095Y0240175D01*
X0336720Y0239601D02*
X0338440Y0238455D01*
X0336720Y0239601D02*
X0338440Y0240748D01*
X0340345Y0244360D02*
X0342065Y0244360D01*
X0342638Y0244934D01*
X0342638Y0246080D01*
X0342065Y0246654D01*
X0340345Y0246654D01*
X0340345Y0247800D02*
X0340345Y0244360D01*
X0343970Y0244934D02*
X0344543Y0244360D01*
X0346263Y0244360D01*
X0346263Y0243787D02*
X0345690Y0243214D01*
X0345117Y0243214D01*
X0346263Y0243787D02*
X0346263Y0246654D01*
X0343970Y0246654D02*
X0343970Y0244934D01*
X0335388Y0244360D02*
X0333668Y0244360D01*
X0333095Y0244934D01*
X0333095Y0246080D01*
X0333668Y0246654D01*
X0335388Y0246654D01*
X0335388Y0247800D02*
X0335388Y0244360D01*
X0331763Y0245507D02*
X0329470Y0245507D01*
X0329470Y0246080D02*
X0330043Y0246654D01*
X0331190Y0246654D01*
X0331763Y0246080D01*
X0331763Y0245507D01*
X0331190Y0244360D02*
X0330043Y0244360D01*
X0329470Y0244934D01*
X0329470Y0246080D01*
X0328138Y0246080D02*
X0328138Y0244360D01*
X0328138Y0246080D02*
X0327564Y0246654D01*
X0325844Y0246654D01*
X0325844Y0244360D01*
X0324513Y0244360D02*
X0322793Y0244360D01*
X0322219Y0244934D01*
X0322219Y0246080D01*
X0322793Y0246654D01*
X0324513Y0246654D01*
X0324513Y0243787D01*
X0323939Y0243214D01*
X0323366Y0243214D01*
X0320949Y0244360D02*
X0319803Y0244360D01*
X0320376Y0244360D02*
X0320376Y0246654D01*
X0319803Y0246654D01*
X0320376Y0247800D02*
X0320376Y0248373D01*
X0318471Y0246654D02*
X0316751Y0246654D01*
X0316177Y0246080D01*
X0316751Y0245507D01*
X0317897Y0245507D01*
X0318471Y0244934D01*
X0317897Y0244360D01*
X0316177Y0244360D01*
X0314846Y0245507D02*
X0312552Y0245507D01*
X0312552Y0246080D02*
X0313126Y0246654D01*
X0314272Y0246654D01*
X0314846Y0246080D01*
X0314846Y0245507D01*
X0314272Y0244360D02*
X0313126Y0244360D01*
X0312552Y0244934D01*
X0312552Y0246080D01*
X0311220Y0235989D02*
X0308927Y0235989D01*
X0311220Y0235989D02*
X0311220Y0235416D01*
X0308927Y0233123D01*
X0308927Y0232549D01*
X0312552Y0232549D02*
X0314846Y0235989D01*
X0337274Y0188351D02*
X0338420Y0187205D01*
X0339567Y0188351D01*
X0339567Y0184911D01*
X0340899Y0185485D02*
X0340899Y0186631D01*
X0341472Y0187205D01*
X0342619Y0187205D01*
X0343192Y0186631D01*
X0343192Y0185485D01*
X0342619Y0184911D01*
X0341472Y0184911D01*
X0340899Y0185485D01*
X0337274Y0184911D02*
X0337274Y0188351D01*
X0344524Y0187205D02*
X0345671Y0187205D01*
X0345097Y0187778D02*
X0345097Y0185485D01*
X0345671Y0184911D01*
X0346941Y0185485D02*
X0347514Y0184911D01*
X0348661Y0184911D01*
X0349234Y0185485D01*
X0349234Y0186631D01*
X0348661Y0187205D01*
X0347514Y0187205D01*
X0346941Y0186631D01*
X0346941Y0185485D01*
X0350566Y0186058D02*
X0351712Y0187205D01*
X0352286Y0187205D01*
X0350566Y0187205D02*
X0350566Y0184911D01*
X0357212Y0185485D02*
X0357212Y0186631D01*
X0357785Y0187205D01*
X0358932Y0187205D01*
X0359505Y0186631D01*
X0359505Y0185485D01*
X0358932Y0184911D01*
X0357785Y0184911D01*
X0357212Y0185485D01*
X0360837Y0185485D02*
X0360837Y0187205D01*
X0360837Y0185485D02*
X0361410Y0184911D01*
X0363130Y0184911D01*
X0363130Y0187205D01*
X0364462Y0187205D02*
X0365609Y0187205D01*
X0365035Y0187778D02*
X0365035Y0185485D01*
X0365609Y0184911D01*
X0371118Y0182024D02*
X0315213Y0182024D01*
X0315213Y0121394D01*
X0371118Y0121394D01*
X0371118Y0182024D01*
X0309252Y0176147D02*
X0309252Y0173280D01*
X0308679Y0172707D01*
X0307532Y0172707D01*
X0306959Y0173280D01*
X0306959Y0176147D01*
X0308071Y0153706D02*
X0308071Y0151412D01*
X0306924Y0150266D01*
X0305778Y0151412D01*
X0305778Y0153706D01*
X0308533Y0129296D02*
X0308533Y0125856D01*
X0309680Y0127003D01*
X0310827Y0125856D01*
X0310827Y0129296D01*
X0341211Y0119454D02*
X0341211Y0116014D01*
X0343504Y0116014D02*
X0343504Y0119454D01*
X0342357Y0118307D01*
X0341211Y0119454D01*
X0345409Y0118307D02*
X0346556Y0118307D01*
X0347129Y0117734D01*
X0347129Y0116014D01*
X0345409Y0116014D01*
X0344836Y0116587D01*
X0345409Y0117160D01*
X0347129Y0117160D01*
X0348461Y0116014D02*
X0350754Y0118307D01*
X0348461Y0118307D02*
X0350754Y0116014D01*
X0355711Y0116587D02*
X0356284Y0116014D01*
X0357431Y0116014D01*
X0358004Y0116587D01*
X0358004Y0117160D01*
X0357431Y0117734D01*
X0356858Y0117734D01*
X0357431Y0117734D02*
X0358004Y0118307D01*
X0358004Y0118880D01*
X0357431Y0119454D01*
X0356284Y0119454D01*
X0355711Y0118880D01*
X0359336Y0118880D02*
X0359336Y0116587D01*
X0361630Y0118880D01*
X0361630Y0116587D01*
X0361056Y0116014D01*
X0359910Y0116014D01*
X0359336Y0116587D01*
X0359336Y0118880D02*
X0359910Y0119454D01*
X0361056Y0119454D01*
X0361630Y0118880D01*
X0362961Y0118307D02*
X0362961Y0116014D01*
X0362961Y0117734D02*
X0365255Y0117734D01*
X0365255Y0118307D02*
X0365255Y0116014D01*
X0365255Y0118307D02*
X0364108Y0119454D01*
X0362961Y0118307D01*
X0337836Y0068273D02*
X0336689Y0068273D01*
X0336116Y0067699D01*
X0336116Y0067126D01*
X0336689Y0066553D01*
X0338409Y0066553D01*
X0338409Y0067699D02*
X0337836Y0068273D01*
X0338409Y0067699D02*
X0338409Y0065406D01*
X0337836Y0064833D01*
X0336689Y0064833D01*
X0336116Y0065406D01*
X0334876Y0065406D02*
X0334876Y0064833D01*
X0334303Y0064833D01*
X0334303Y0065406D01*
X0334876Y0065406D01*
X0332971Y0065406D02*
X0332398Y0064833D01*
X0331251Y0064833D01*
X0330678Y0065406D01*
X0332971Y0067699D01*
X0332971Y0065406D01*
X0330678Y0065406D02*
X0330678Y0067699D01*
X0331251Y0068273D01*
X0332398Y0068273D01*
X0332971Y0067699D01*
X0329346Y0067126D02*
X0328199Y0064833D01*
X0327053Y0067126D01*
X0322096Y0067699D02*
X0321523Y0068273D01*
X0320376Y0068273D01*
X0319803Y0067699D01*
X0319803Y0065406D01*
X0320376Y0064833D01*
X0321523Y0064833D01*
X0322096Y0065406D01*
X0318471Y0065406D02*
X0317897Y0064833D01*
X0316751Y0064833D01*
X0316177Y0065406D01*
X0316751Y0066553D02*
X0317897Y0066553D01*
X0318471Y0065979D01*
X0318471Y0065406D01*
X0316751Y0066553D02*
X0316177Y0067126D01*
X0316177Y0067699D01*
X0316751Y0068273D01*
X0317897Y0068273D01*
X0318471Y0067699D01*
X0314846Y0068273D02*
X0312552Y0068273D01*
X0312552Y0064833D01*
X0314846Y0064833D01*
X0313699Y0066553D02*
X0312552Y0066553D01*
X0311220Y0067126D02*
X0310647Y0066553D01*
X0308927Y0066553D01*
X0308927Y0064833D02*
X0308927Y0068273D01*
X0310647Y0068273D01*
X0311220Y0067699D01*
X0311220Y0067126D01*
X0310647Y0066553D02*
X0311220Y0065979D01*
X0311220Y0065406D01*
X0310647Y0064833D01*
X0308927Y0064833D01*
D13*
X0302114Y0079756D02*
X0301328Y0079756D01*
X0300935Y0080149D01*
X0300935Y0080935D02*
X0301721Y0081328D01*
X0302114Y0081328D01*
X0302507Y0080935D01*
X0302507Y0080149D01*
X0302114Y0079756D01*
X0300935Y0080935D02*
X0300935Y0082114D01*
X0302507Y0082114D01*
X0299969Y0081721D02*
X0299969Y0080149D01*
X0299576Y0079756D01*
X0298790Y0079756D01*
X0298397Y0080149D01*
X0298397Y0081721D01*
X0298790Y0082114D01*
X0299576Y0082114D01*
X0299969Y0081721D01*
X0299183Y0080542D02*
X0299969Y0079756D01*
X0299988Y0108392D02*
X0299202Y0109178D01*
X0299988Y0108785D02*
X0299988Y0110357D01*
X0299595Y0110750D01*
X0298809Y0110750D01*
X0298416Y0110357D01*
X0298416Y0108785D01*
X0298809Y0108392D01*
X0299595Y0108392D01*
X0299988Y0108785D01*
X0300953Y0108785D02*
X0300953Y0109571D01*
X0302132Y0109571D01*
X0302525Y0109178D01*
X0302525Y0108785D01*
X0302132Y0108392D01*
X0301346Y0108392D01*
X0300953Y0108785D01*
X0300953Y0109571D02*
X0301739Y0110357D01*
X0302525Y0110750D01*
X0319638Y0112731D02*
X0320031Y0112338D01*
X0320817Y0112338D01*
X0321210Y0112731D01*
X0322175Y0112338D02*
X0323747Y0112338D01*
X0322961Y0112338D02*
X0322961Y0114696D01*
X0322175Y0113910D01*
X0321210Y0114303D02*
X0320817Y0114696D01*
X0320031Y0114696D01*
X0319638Y0114303D01*
X0319638Y0112731D01*
X0324713Y0112731D02*
X0325106Y0112338D01*
X0325892Y0112338D01*
X0326285Y0112731D01*
X0326285Y0114303D01*
X0325892Y0114696D01*
X0325106Y0114696D01*
X0324713Y0114303D01*
X0324713Y0113910D01*
X0325106Y0113517D01*
X0326285Y0113517D01*
X0302901Y0129913D02*
X0302508Y0129520D01*
X0301722Y0129520D01*
X0301329Y0129913D01*
X0300363Y0129913D02*
X0299970Y0129520D01*
X0299184Y0129520D01*
X0298791Y0129913D01*
X0298791Y0131485D01*
X0299184Y0131878D01*
X0299970Y0131878D01*
X0300363Y0131485D01*
X0300363Y0129913D01*
X0300363Y0129520D02*
X0299577Y0130306D01*
X0301329Y0131485D02*
X0301722Y0131878D01*
X0302508Y0131878D01*
X0302901Y0131485D01*
X0302901Y0131092D01*
X0302508Y0130699D01*
X0302901Y0130306D01*
X0302901Y0129913D01*
X0302508Y0130699D02*
X0302115Y0130699D01*
X0302172Y0153676D02*
X0300600Y0153676D01*
X0301386Y0153676D02*
X0301386Y0156034D01*
X0300600Y0155248D01*
X0299635Y0155641D02*
X0299242Y0156034D01*
X0298456Y0156034D01*
X0298063Y0155641D01*
X0298063Y0154069D01*
X0298456Y0153676D01*
X0299242Y0153676D01*
X0299635Y0154069D01*
X0303138Y0154069D02*
X0303138Y0153676D01*
X0303138Y0154069D02*
X0304710Y0155641D01*
X0304710Y0156034D01*
X0303138Y0156034D01*
X0300557Y0169966D02*
X0300557Y0172324D01*
X0299378Y0171145D01*
X0300950Y0171145D01*
X0298413Y0170359D02*
X0298020Y0169966D01*
X0297234Y0169966D01*
X0296841Y0170359D01*
X0296841Y0171931D01*
X0297234Y0172324D01*
X0298020Y0172324D01*
X0298413Y0171931D01*
X0298413Y0170359D01*
X0298413Y0169966D02*
X0297627Y0170752D01*
X0322039Y0196196D02*
X0322825Y0196196D01*
X0323218Y0196589D01*
X0324183Y0196196D02*
X0325755Y0196196D01*
X0324969Y0196196D02*
X0324969Y0198554D01*
X0324183Y0197768D01*
X0323218Y0198161D02*
X0322825Y0198554D01*
X0322039Y0198554D01*
X0321646Y0198161D01*
X0321646Y0196589D01*
X0322039Y0196196D01*
X0326721Y0196589D02*
X0326721Y0196982D01*
X0327114Y0197375D01*
X0327900Y0197375D01*
X0328293Y0196982D01*
X0328293Y0196589D01*
X0327900Y0196196D01*
X0327114Y0196196D01*
X0326721Y0196589D01*
X0327114Y0197375D02*
X0326721Y0197768D01*
X0326721Y0198161D01*
X0327114Y0198554D01*
X0327900Y0198554D01*
X0328293Y0198161D01*
X0328293Y0197768D01*
X0327900Y0197375D01*
X0304100Y0200833D02*
X0302528Y0200833D01*
X0304100Y0202404D01*
X0304100Y0202797D01*
X0303707Y0203190D01*
X0302921Y0203190D01*
X0302528Y0202797D01*
X0301562Y0202797D02*
X0301562Y0201226D01*
X0301169Y0200833D01*
X0300383Y0200833D01*
X0299990Y0201226D01*
X0299990Y0202797D01*
X0300383Y0203190D01*
X0301169Y0203190D01*
X0301562Y0202797D01*
X0300776Y0201619D02*
X0301562Y0200833D01*
X0301721Y0231252D02*
X0301721Y0233610D01*
X0300935Y0232824D01*
X0299969Y0233217D02*
X0299969Y0231645D01*
X0299576Y0231252D01*
X0298790Y0231252D01*
X0298397Y0231645D01*
X0298397Y0233217D01*
X0298790Y0233610D01*
X0299576Y0233610D01*
X0299969Y0233217D01*
X0299183Y0232038D02*
X0299969Y0231252D01*
X0300935Y0231252D02*
X0302507Y0231252D01*
X0249572Y0246581D02*
X0249179Y0246188D01*
X0248393Y0246188D01*
X0248000Y0246581D01*
X0249572Y0248153D01*
X0249572Y0246581D01*
X0248000Y0246581D02*
X0248000Y0248153D01*
X0248393Y0248546D01*
X0249179Y0248546D01*
X0249572Y0248153D01*
X0247035Y0246188D02*
X0245463Y0246188D01*
X0246249Y0246188D02*
X0246249Y0248546D01*
X0245463Y0247760D01*
X0244497Y0248153D02*
X0244497Y0247367D01*
X0244104Y0246974D01*
X0242925Y0246974D01*
X0242925Y0246188D02*
X0242925Y0248546D01*
X0244104Y0248546D01*
X0244497Y0248153D01*
X0243711Y0246974D02*
X0244497Y0246188D01*
X0233941Y0248735D02*
X0233548Y0248342D01*
X0232762Y0248342D01*
X0232369Y0248735D01*
X0231404Y0248735D02*
X0231404Y0250307D01*
X0231011Y0250700D01*
X0229832Y0250700D01*
X0229832Y0248342D01*
X0231011Y0248342D01*
X0231404Y0248735D01*
X0232369Y0250307D02*
X0232762Y0250700D01*
X0233548Y0250700D01*
X0233941Y0250307D01*
X0233941Y0249914D01*
X0233548Y0249521D01*
X0233941Y0249128D01*
X0233941Y0248735D01*
X0233548Y0249521D02*
X0233155Y0249521D01*
X0224492Y0235948D02*
X0222920Y0235948D01*
X0222920Y0234769D01*
X0223706Y0235162D01*
X0224099Y0235162D01*
X0224492Y0234769D01*
X0224492Y0233983D01*
X0224099Y0233590D01*
X0223313Y0233590D01*
X0222920Y0233983D01*
X0221955Y0233590D02*
X0221169Y0234376D01*
X0221562Y0234376D02*
X0220383Y0234376D01*
X0220383Y0233590D02*
X0220383Y0235948D01*
X0221562Y0235948D01*
X0221955Y0235555D01*
X0221955Y0234769D01*
X0221562Y0234376D01*
X0226381Y0228204D02*
X0227560Y0228204D01*
X0227953Y0227811D01*
X0227953Y0227025D01*
X0227560Y0226632D01*
X0226381Y0226632D01*
X0227167Y0226632D02*
X0227953Y0225846D01*
X0228919Y0225846D02*
X0230491Y0225846D01*
X0229705Y0225846D02*
X0229705Y0228204D01*
X0228919Y0227418D01*
X0231456Y0227025D02*
X0232635Y0227025D01*
X0233028Y0226632D01*
X0233028Y0226239D01*
X0232635Y0225846D01*
X0231849Y0225846D01*
X0231456Y0226239D01*
X0231456Y0227025D01*
X0232242Y0227811D01*
X0233028Y0228204D01*
X0226381Y0228204D02*
X0226381Y0225846D01*
X0229332Y0210519D02*
X0230511Y0210519D01*
X0230904Y0210126D01*
X0230904Y0208554D01*
X0230511Y0208161D01*
X0229332Y0208161D01*
X0229332Y0210519D01*
X0231869Y0210126D02*
X0232262Y0210519D01*
X0233048Y0210519D01*
X0233441Y0210126D01*
X0233441Y0209733D01*
X0231869Y0208161D01*
X0233441Y0208161D01*
X0247261Y0201706D02*
X0247261Y0200920D01*
X0247654Y0200527D01*
X0248047Y0200527D01*
X0248440Y0200920D01*
X0248440Y0202099D01*
X0249226Y0202099D02*
X0247654Y0202099D01*
X0247261Y0201706D01*
X0249226Y0202099D02*
X0249619Y0201706D01*
X0249619Y0200920D01*
X0249226Y0200527D01*
X0249619Y0199561D02*
X0248833Y0198775D01*
X0248833Y0199168D02*
X0248833Y0197989D01*
X0249619Y0197989D02*
X0247261Y0197989D01*
X0247261Y0199168D01*
X0247654Y0199561D01*
X0248440Y0199561D01*
X0248833Y0199168D01*
X0239347Y0190255D02*
X0238169Y0189076D01*
X0239740Y0189076D01*
X0239347Y0187897D02*
X0239347Y0190255D01*
X0237203Y0189862D02*
X0237203Y0189076D01*
X0236810Y0188683D01*
X0235631Y0188683D01*
X0236417Y0188683D02*
X0237203Y0187897D01*
X0235631Y0187897D02*
X0235631Y0190255D01*
X0236810Y0190255D01*
X0237203Y0189862D01*
X0232941Y0189412D02*
X0231369Y0189412D01*
X0231369Y0188233D01*
X0232155Y0188626D01*
X0232548Y0188626D01*
X0232941Y0188233D01*
X0232941Y0187447D01*
X0232548Y0187054D01*
X0231762Y0187054D01*
X0231369Y0187447D01*
X0230404Y0187447D02*
X0230404Y0189019D01*
X0230011Y0189412D01*
X0228832Y0189412D01*
X0228832Y0187054D01*
X0230011Y0187054D01*
X0230404Y0187447D01*
X0240646Y0186735D02*
X0240646Y0184377D01*
X0240646Y0185163D02*
X0241825Y0185163D01*
X0242218Y0185556D01*
X0242218Y0186342D01*
X0241825Y0186735D01*
X0240646Y0186735D01*
X0241432Y0185163D02*
X0242218Y0184377D01*
X0243183Y0184377D02*
X0244755Y0184377D01*
X0243969Y0184377D02*
X0243969Y0186735D01*
X0243183Y0185949D01*
X0245721Y0186342D02*
X0246114Y0186735D01*
X0246900Y0186735D01*
X0247293Y0186342D01*
X0247293Y0185949D01*
X0245721Y0184377D01*
X0247293Y0184377D01*
X0223205Y0172873D02*
X0223205Y0172480D01*
X0221633Y0170908D01*
X0221633Y0170515D01*
X0220667Y0170515D02*
X0219881Y0171301D01*
X0220274Y0171301D02*
X0219095Y0171301D01*
X0219095Y0170515D02*
X0219095Y0172873D01*
X0220274Y0172873D01*
X0220667Y0172480D01*
X0220667Y0171694D01*
X0220274Y0171301D01*
X0221633Y0172873D02*
X0223205Y0172873D01*
X0215650Y0173070D02*
X0215257Y0173463D01*
X0215650Y0173070D02*
X0215650Y0172284D01*
X0215257Y0171891D01*
X0213685Y0171891D01*
X0213292Y0172284D01*
X0213292Y0173070D01*
X0213685Y0173463D01*
X0214078Y0174428D02*
X0213292Y0175214D01*
X0215650Y0175214D01*
X0215650Y0174428D02*
X0215650Y0176000D01*
X0215580Y0179302D02*
X0214794Y0180088D01*
X0215187Y0180088D02*
X0214008Y0180088D01*
X0214008Y0179302D02*
X0214008Y0181660D01*
X0215187Y0181660D01*
X0215580Y0181267D01*
X0215580Y0180481D01*
X0215187Y0180088D01*
X0216545Y0179302D02*
X0218117Y0180874D01*
X0218117Y0181267D01*
X0217724Y0181660D01*
X0216938Y0181660D01*
X0216545Y0181267D01*
X0216545Y0179302D02*
X0218117Y0179302D01*
X0219083Y0179302D02*
X0220655Y0180874D01*
X0220655Y0181267D01*
X0220262Y0181660D01*
X0219476Y0181660D01*
X0219083Y0181267D01*
X0219083Y0179302D02*
X0220655Y0179302D01*
X0221155Y0167704D02*
X0221548Y0167311D01*
X0221548Y0166525D01*
X0221155Y0166132D01*
X0219976Y0166132D01*
X0220762Y0166132D02*
X0221548Y0165346D01*
X0222513Y0165739D02*
X0222513Y0166132D01*
X0222906Y0166525D01*
X0223692Y0166525D01*
X0224085Y0166132D01*
X0224085Y0165739D01*
X0223692Y0165346D01*
X0222906Y0165346D01*
X0222513Y0165739D01*
X0222906Y0166525D02*
X0222513Y0166918D01*
X0222513Y0167311D01*
X0222906Y0167704D01*
X0223692Y0167704D01*
X0224085Y0167311D01*
X0224085Y0166918D01*
X0223692Y0166525D01*
X0221155Y0167704D02*
X0219976Y0167704D01*
X0219976Y0165346D01*
X0209666Y0160213D02*
X0209666Y0158641D01*
X0208094Y0160213D01*
X0207701Y0160213D01*
X0207308Y0159820D01*
X0207308Y0159034D01*
X0207701Y0158641D01*
X0207701Y0157675D02*
X0207308Y0157282D01*
X0207308Y0156496D01*
X0207701Y0156103D01*
X0209273Y0156103D01*
X0209666Y0156496D01*
X0209666Y0157282D01*
X0209273Y0157675D01*
X0210857Y0145495D02*
X0210464Y0145102D01*
X0210464Y0143530D01*
X0210857Y0143137D01*
X0211643Y0143137D01*
X0212036Y0143530D01*
X0213002Y0143137D02*
X0214574Y0144709D01*
X0214574Y0145102D01*
X0214181Y0145495D01*
X0213395Y0145495D01*
X0213002Y0145102D01*
X0212036Y0145102D02*
X0211643Y0145495D01*
X0210857Y0145495D01*
X0213002Y0143137D02*
X0214574Y0143137D01*
X0215540Y0143137D02*
X0217112Y0144709D01*
X0217112Y0145102D01*
X0216719Y0145495D01*
X0215933Y0145495D01*
X0215540Y0145102D01*
X0215540Y0143137D02*
X0217112Y0143137D01*
X0209592Y0135164D02*
X0208020Y0135164D01*
X0208020Y0133985D01*
X0208806Y0134378D01*
X0209199Y0134378D01*
X0209592Y0133985D01*
X0209592Y0133199D01*
X0209199Y0132806D01*
X0208413Y0132806D01*
X0208020Y0133199D01*
X0207054Y0132806D02*
X0205482Y0132806D01*
X0207054Y0134378D01*
X0207054Y0134771D01*
X0206661Y0135164D01*
X0205875Y0135164D01*
X0205482Y0134771D01*
X0204517Y0134771D02*
X0204517Y0133985D01*
X0204124Y0133592D01*
X0202945Y0133592D01*
X0202945Y0132806D02*
X0202945Y0135164D01*
X0204124Y0135164D01*
X0204517Y0134771D01*
X0203731Y0133592D02*
X0204517Y0132806D01*
X0200296Y0135661D02*
X0197938Y0135661D01*
X0197938Y0136840D01*
X0198331Y0137233D01*
X0199117Y0137233D01*
X0199510Y0136840D01*
X0199510Y0135661D01*
X0199510Y0136447D02*
X0200296Y0137233D01*
X0200296Y0138199D02*
X0198724Y0139771D01*
X0198331Y0139771D01*
X0197938Y0139378D01*
X0197938Y0138592D01*
X0198331Y0138199D01*
X0200296Y0138199D02*
X0200296Y0139771D01*
X0199903Y0140737D02*
X0200296Y0141129D01*
X0200296Y0141915D01*
X0199903Y0142308D01*
X0199510Y0142308D01*
X0199117Y0141915D01*
X0199117Y0140737D01*
X0199903Y0140737D01*
X0199117Y0140737D02*
X0198331Y0141522D01*
X0197938Y0142308D01*
X0217383Y0130617D02*
X0218562Y0130617D01*
X0218955Y0130224D01*
X0218955Y0129438D01*
X0218562Y0129045D01*
X0217383Y0129045D01*
X0218169Y0129045D02*
X0218955Y0128259D01*
X0219920Y0128652D02*
X0220313Y0128259D01*
X0221099Y0128259D01*
X0221492Y0128652D01*
X0221492Y0129045D01*
X0221099Y0129438D01*
X0219920Y0129438D01*
X0219920Y0128652D01*
X0219920Y0129438D02*
X0220706Y0130224D01*
X0221492Y0130617D01*
X0217383Y0130617D02*
X0217383Y0128259D01*
X0217252Y0125322D02*
X0216466Y0125322D01*
X0216073Y0124929D01*
X0215107Y0124929D02*
X0215107Y0124143D01*
X0214714Y0123750D01*
X0213535Y0123750D01*
X0213535Y0122964D02*
X0213535Y0125322D01*
X0214714Y0125322D01*
X0215107Y0124929D01*
X0214321Y0123750D02*
X0215107Y0122964D01*
X0216073Y0122964D02*
X0217645Y0124536D01*
X0217645Y0124929D01*
X0217252Y0125322D01*
X0218611Y0124143D02*
X0220182Y0124143D01*
X0219789Y0125322D02*
X0218611Y0124143D01*
X0217645Y0122964D02*
X0216073Y0122964D01*
X0219789Y0122964D02*
X0219789Y0125322D01*
X0220026Y0118668D02*
X0218847Y0117489D01*
X0220419Y0117489D01*
X0220026Y0116310D02*
X0220026Y0118668D01*
X0217095Y0118668D02*
X0217095Y0116310D01*
X0216309Y0116310D02*
X0217881Y0116310D01*
X0216309Y0117882D02*
X0217095Y0118668D01*
X0215343Y0118275D02*
X0215343Y0117489D01*
X0214951Y0117096D01*
X0213772Y0117096D01*
X0214558Y0117096D02*
X0215343Y0116310D01*
X0213772Y0116310D02*
X0213772Y0118668D01*
X0214951Y0118668D01*
X0215343Y0118275D01*
X0215384Y0113550D02*
X0214205Y0113550D01*
X0214205Y0111192D01*
X0214205Y0111978D02*
X0215384Y0111978D01*
X0215777Y0112371D01*
X0215777Y0113157D01*
X0215384Y0113550D01*
X0216742Y0112764D02*
X0217528Y0113550D01*
X0217528Y0111192D01*
X0216742Y0111192D02*
X0218314Y0111192D01*
X0219280Y0111585D02*
X0219673Y0111192D01*
X0220459Y0111192D01*
X0220852Y0111585D01*
X0220852Y0112371D01*
X0220459Y0112764D01*
X0220066Y0112764D01*
X0219280Y0112371D01*
X0219280Y0113550D01*
X0220852Y0113550D01*
X0215777Y0111192D02*
X0214991Y0111978D01*
X0228319Y0111798D02*
X0229498Y0111798D01*
X0229891Y0111405D01*
X0229891Y0110619D01*
X0229498Y0110226D01*
X0228319Y0110226D01*
X0229105Y0110226D02*
X0229891Y0109440D01*
X0230856Y0109440D02*
X0232428Y0109440D01*
X0231642Y0109440D02*
X0231642Y0111798D01*
X0230856Y0111012D01*
X0233394Y0111012D02*
X0233394Y0111405D01*
X0233787Y0111798D01*
X0234573Y0111798D01*
X0234966Y0111405D01*
X0234966Y0111012D01*
X0234573Y0110619D01*
X0233787Y0110619D01*
X0233394Y0111012D01*
X0233787Y0110619D02*
X0233394Y0110226D01*
X0233394Y0109833D01*
X0233787Y0109440D01*
X0234573Y0109440D01*
X0234966Y0109833D01*
X0234966Y0110226D01*
X0234573Y0110619D01*
X0228319Y0109440D02*
X0228319Y0111798D01*
X0245261Y0115008D02*
X0245261Y0116187D01*
X0245654Y0116580D01*
X0246440Y0116580D01*
X0246833Y0116187D01*
X0246833Y0115008D01*
X0246833Y0115794D02*
X0247619Y0116580D01*
X0247619Y0117545D02*
X0246047Y0119117D01*
X0245654Y0119117D01*
X0245261Y0118724D01*
X0245261Y0117938D01*
X0245654Y0117545D01*
X0247619Y0117545D02*
X0247619Y0119117D01*
X0247226Y0120083D02*
X0245654Y0121655D01*
X0247226Y0121655D01*
X0247619Y0121262D01*
X0247619Y0120476D01*
X0247226Y0120083D01*
X0245654Y0120083D01*
X0245261Y0120476D01*
X0245261Y0121262D01*
X0245654Y0121655D01*
X0241072Y0126086D02*
X0240286Y0126086D01*
X0239893Y0126479D01*
X0239893Y0126872D01*
X0240286Y0127265D01*
X0241072Y0127265D01*
X0241465Y0126872D01*
X0241465Y0126479D01*
X0241072Y0126086D01*
X0241072Y0127265D02*
X0241465Y0127658D01*
X0241465Y0128051D01*
X0241072Y0128444D01*
X0240286Y0128444D01*
X0239893Y0128051D01*
X0239893Y0127658D01*
X0240286Y0127265D01*
X0238927Y0128051D02*
X0238534Y0128444D01*
X0237355Y0128444D01*
X0237355Y0126086D01*
X0238534Y0126086D01*
X0238927Y0126479D01*
X0238927Y0128051D01*
X0245718Y0132433D02*
X0245718Y0133612D01*
X0246111Y0134005D01*
X0246897Y0134005D01*
X0247290Y0133612D01*
X0247290Y0132433D01*
X0248076Y0132433D02*
X0245718Y0132433D01*
X0247290Y0133219D02*
X0248076Y0134005D01*
X0248076Y0134971D02*
X0248076Y0136543D01*
X0248076Y0135757D02*
X0245718Y0135757D01*
X0246504Y0134971D01*
X0246504Y0137508D02*
X0245718Y0138294D01*
X0248076Y0138294D01*
X0248076Y0137508D02*
X0248076Y0139080D01*
X0241466Y0143905D02*
X0241466Y0146263D01*
X0240287Y0145084D01*
X0241859Y0145084D01*
X0239321Y0145870D02*
X0238928Y0146263D01*
X0237749Y0146263D01*
X0237749Y0143905D01*
X0238928Y0143905D01*
X0239321Y0144298D01*
X0239321Y0145870D01*
X0245261Y0115008D02*
X0247619Y0115008D01*
X0247641Y0097574D02*
X0248820Y0097574D01*
X0249213Y0097181D01*
X0249213Y0096395D01*
X0248820Y0096002D01*
X0247641Y0096002D01*
X0248427Y0096002D02*
X0249213Y0095216D01*
X0250179Y0095216D02*
X0251750Y0096788D01*
X0251750Y0097181D01*
X0251357Y0097574D01*
X0250572Y0097574D01*
X0250179Y0097181D01*
X0250179Y0095216D02*
X0251750Y0095216D01*
X0252716Y0095216D02*
X0254288Y0095216D01*
X0253502Y0095216D02*
X0253502Y0097574D01*
X0252716Y0096788D01*
X0247641Y0097574D02*
X0247641Y0095216D01*
X0232303Y0088912D02*
X0232303Y0088519D01*
X0230731Y0086947D01*
X0230731Y0086554D01*
X0229766Y0086947D02*
X0229766Y0088519D01*
X0229373Y0088912D01*
X0228194Y0088912D01*
X0228194Y0086554D01*
X0229373Y0086554D01*
X0229766Y0086947D01*
X0230731Y0088912D02*
X0232303Y0088912D01*
X0245548Y0079262D02*
X0245941Y0079655D01*
X0247513Y0079655D01*
X0247906Y0079262D01*
X0247906Y0078476D01*
X0247513Y0078083D01*
X0246727Y0078476D02*
X0246727Y0079655D01*
X0246727Y0078476D02*
X0246334Y0078083D01*
X0245941Y0078083D01*
X0245548Y0078476D01*
X0245548Y0079262D01*
X0245548Y0076331D02*
X0247906Y0076331D01*
X0247906Y0075545D02*
X0247906Y0077117D01*
X0246334Y0075545D02*
X0245548Y0076331D01*
X0245941Y0074580D02*
X0246727Y0074580D01*
X0247120Y0074187D01*
X0247120Y0073008D01*
X0247120Y0073794D02*
X0247906Y0074580D01*
X0247906Y0073008D02*
X0245548Y0073008D01*
X0245548Y0074187D01*
X0245941Y0074580D01*
X0231210Y0066361D02*
X0231210Y0065968D01*
X0229638Y0064396D01*
X0229638Y0064003D01*
X0228672Y0064003D02*
X0227100Y0064003D01*
X0227886Y0064003D02*
X0227886Y0066361D01*
X0227100Y0065575D01*
X0226135Y0065182D02*
X0225742Y0064789D01*
X0224563Y0064789D01*
X0225349Y0064789D02*
X0226135Y0064003D01*
X0226135Y0065182D02*
X0226135Y0065968D01*
X0225742Y0066361D01*
X0224563Y0066361D01*
X0224563Y0064003D01*
X0229638Y0066361D02*
X0231210Y0066361D01*
X0212496Y0072417D02*
X0202457Y0072417D01*
X0196551Y0072417D02*
X0186906Y0072417D01*
X0186906Y0094858D01*
X0190055Y0098008D01*
X0184228Y0094780D02*
X0184228Y0072339D01*
X0174189Y0072339D01*
X0168283Y0072339D02*
X0158638Y0072339D01*
X0158638Y0094780D01*
X0161787Y0097929D01*
X0163269Y0099830D02*
X0163269Y0102188D01*
X0164448Y0102188D01*
X0164841Y0101795D01*
X0164841Y0101009D01*
X0164448Y0100616D01*
X0163269Y0100616D01*
X0164055Y0100616D02*
X0164841Y0099830D01*
X0165806Y0099830D02*
X0167378Y0099830D01*
X0166592Y0099830D02*
X0166592Y0102188D01*
X0165806Y0101402D01*
X0158883Y0106507D02*
X0157311Y0106507D01*
X0158883Y0108079D01*
X0158883Y0108472D01*
X0158490Y0108865D01*
X0157704Y0108865D01*
X0157311Y0108472D01*
X0155560Y0108865D02*
X0155560Y0106507D01*
X0154774Y0106507D02*
X0156346Y0106507D01*
X0154774Y0108079D02*
X0155560Y0108865D01*
X0153808Y0108472D02*
X0153415Y0108865D01*
X0152629Y0108865D01*
X0152236Y0108472D01*
X0152236Y0106900D01*
X0152629Y0106507D01*
X0153415Y0106507D01*
X0153808Y0106900D01*
X0154150Y0097850D02*
X0157299Y0094701D01*
X0157299Y0072260D01*
X0147260Y0072260D01*
X0141354Y0072260D02*
X0131709Y0072260D01*
X0131709Y0094701D01*
X0134858Y0097850D01*
X0141158Y0096768D02*
X0140872Y0096683D01*
X0140589Y0096592D01*
X0140308Y0096493D01*
X0140030Y0096388D01*
X0139754Y0096276D01*
X0139481Y0096157D01*
X0139211Y0096031D01*
X0138945Y0095899D01*
X0138681Y0095761D01*
X0138421Y0095616D01*
X0138165Y0095464D01*
X0137912Y0095307D01*
X0137664Y0095143D01*
X0137419Y0094974D01*
X0137179Y0094798D01*
X0136943Y0094617D01*
X0136711Y0094430D01*
X0136484Y0094237D01*
X0136262Y0094039D01*
X0136045Y0093836D01*
X0135833Y0093627D01*
X0135626Y0093413D01*
X0135424Y0093194D01*
X0135228Y0092971D01*
X0135037Y0092742D01*
X0134852Y0092509D01*
X0134672Y0092272D01*
X0134499Y0092030D01*
X0134331Y0091784D01*
X0134170Y0091534D01*
X0134014Y0091280D01*
X0133865Y0091022D01*
X0133722Y0090761D01*
X0133586Y0090497D01*
X0133456Y0090229D01*
X0133333Y0089958D01*
X0133216Y0089684D01*
X0133106Y0089408D01*
X0133003Y0089128D01*
X0132907Y0088847D01*
X0132818Y0088563D01*
X0132735Y0088277D01*
X0132660Y0087989D01*
X0132591Y0087699D01*
X0132530Y0087408D01*
X0132476Y0087115D01*
X0132429Y0086821D01*
X0132389Y0086526D01*
X0132357Y0086231D01*
X0132331Y0085934D01*
X0132313Y0085637D01*
X0132303Y0085339D01*
X0132299Y0085042D01*
X0132303Y0084744D01*
X0132314Y0084447D01*
X0132332Y0084150D01*
X0132358Y0083853D01*
X0132390Y0083557D01*
X0132430Y0083262D01*
X0132477Y0082969D01*
X0132532Y0082676D01*
X0132593Y0082385D01*
X0132662Y0082095D01*
X0132737Y0081807D01*
X0132820Y0081521D01*
X0132909Y0081237D01*
X0133006Y0080956D01*
X0133109Y0080677D01*
X0133219Y0080400D01*
X0133336Y0080126D01*
X0133460Y0079856D01*
X0133590Y0079588D01*
X0133726Y0079323D01*
X0133869Y0079062D01*
X0134019Y0078805D01*
X0134174Y0078551D01*
X0134336Y0078301D01*
X0134504Y0078056D01*
X0134677Y0077814D01*
X0134857Y0077576D01*
X0135042Y0077344D01*
X0135233Y0077115D01*
X0135430Y0076892D01*
X0135632Y0076673D01*
X0135839Y0076459D01*
X0136051Y0076251D01*
X0136268Y0076047D01*
X0136491Y0075849D01*
X0136718Y0075657D01*
X0136949Y0075470D01*
X0137185Y0075289D01*
X0137426Y0075113D01*
X0137671Y0074944D01*
X0137919Y0074781D01*
X0138172Y0074623D01*
X0138428Y0074472D01*
X0138689Y0074327D01*
X0138952Y0074189D01*
X0139219Y0074057D01*
X0139489Y0073932D01*
X0139762Y0073813D01*
X0140038Y0073701D01*
X0140316Y0073596D01*
X0140597Y0073498D01*
X0140880Y0073406D01*
X0141165Y0073322D01*
X0141453Y0073244D01*
X0137341Y0069070D02*
X0136948Y0069463D01*
X0136162Y0069463D01*
X0135769Y0069070D01*
X0135769Y0068677D01*
X0136162Y0068284D01*
X0137341Y0068284D01*
X0137341Y0067498D02*
X0137341Y0069070D01*
X0137341Y0067498D02*
X0136948Y0067106D01*
X0136162Y0067106D01*
X0135769Y0067498D01*
X0134803Y0067498D02*
X0134410Y0067106D01*
X0133624Y0067106D01*
X0133231Y0067498D01*
X0133231Y0069070D01*
X0133624Y0069463D01*
X0134410Y0069463D01*
X0134803Y0069070D01*
X0147850Y0073342D02*
X0148136Y0073427D01*
X0148419Y0073518D01*
X0148700Y0073617D01*
X0148978Y0073722D01*
X0149254Y0073834D01*
X0149527Y0073953D01*
X0149797Y0074079D01*
X0150063Y0074211D01*
X0150327Y0074349D01*
X0150587Y0074494D01*
X0150843Y0074646D01*
X0151096Y0074803D01*
X0151344Y0074967D01*
X0151589Y0075136D01*
X0151829Y0075312D01*
X0152065Y0075493D01*
X0152297Y0075680D01*
X0152524Y0075873D01*
X0152746Y0076071D01*
X0152963Y0076274D01*
X0153175Y0076483D01*
X0153382Y0076697D01*
X0153584Y0076916D01*
X0153780Y0077139D01*
X0153971Y0077368D01*
X0154156Y0077601D01*
X0154336Y0077838D01*
X0154509Y0078080D01*
X0154677Y0078326D01*
X0154838Y0078576D01*
X0154994Y0078830D01*
X0155143Y0079088D01*
X0155286Y0079349D01*
X0155422Y0079613D01*
X0155552Y0079881D01*
X0155675Y0080152D01*
X0155792Y0080426D01*
X0155902Y0080702D01*
X0156005Y0080982D01*
X0156101Y0081263D01*
X0156190Y0081547D01*
X0156273Y0081833D01*
X0156348Y0082121D01*
X0156417Y0082411D01*
X0156478Y0082702D01*
X0156532Y0082995D01*
X0156579Y0083289D01*
X0156619Y0083584D01*
X0156651Y0083879D01*
X0156677Y0084176D01*
X0156695Y0084473D01*
X0156705Y0084771D01*
X0156709Y0085068D01*
X0156705Y0085366D01*
X0156694Y0085663D01*
X0156676Y0085960D01*
X0156650Y0086257D01*
X0156618Y0086553D01*
X0156578Y0086848D01*
X0156531Y0087141D01*
X0156476Y0087434D01*
X0156415Y0087725D01*
X0156346Y0088015D01*
X0156271Y0088303D01*
X0156188Y0088589D01*
X0156099Y0088873D01*
X0156002Y0089154D01*
X0155899Y0089433D01*
X0155789Y0089710D01*
X0155672Y0089984D01*
X0155548Y0090254D01*
X0155418Y0090522D01*
X0155282Y0090787D01*
X0155139Y0091048D01*
X0154989Y0091305D01*
X0154834Y0091559D01*
X0154672Y0091809D01*
X0154504Y0092054D01*
X0154331Y0092296D01*
X0154151Y0092534D01*
X0153966Y0092766D01*
X0153775Y0092995D01*
X0153578Y0093218D01*
X0153376Y0093437D01*
X0153169Y0093651D01*
X0152957Y0093859D01*
X0152740Y0094063D01*
X0152517Y0094261D01*
X0152290Y0094453D01*
X0152059Y0094640D01*
X0151823Y0094821D01*
X0151582Y0094997D01*
X0151337Y0095166D01*
X0151089Y0095329D01*
X0150836Y0095487D01*
X0150580Y0095638D01*
X0150319Y0095783D01*
X0150056Y0095921D01*
X0149789Y0096053D01*
X0149519Y0096178D01*
X0149246Y0096297D01*
X0148970Y0096409D01*
X0148692Y0096514D01*
X0148411Y0096612D01*
X0148128Y0096704D01*
X0147843Y0096788D01*
X0147555Y0096866D01*
X0168087Y0096847D02*
X0167801Y0096762D01*
X0167518Y0096671D01*
X0167237Y0096572D01*
X0166959Y0096467D01*
X0166683Y0096355D01*
X0166410Y0096236D01*
X0166140Y0096110D01*
X0165874Y0095978D01*
X0165610Y0095840D01*
X0165350Y0095695D01*
X0165094Y0095543D01*
X0164841Y0095386D01*
X0164593Y0095222D01*
X0164348Y0095053D01*
X0164108Y0094877D01*
X0163872Y0094696D01*
X0163640Y0094509D01*
X0163413Y0094316D01*
X0163191Y0094118D01*
X0162974Y0093915D01*
X0162762Y0093706D01*
X0162555Y0093492D01*
X0162353Y0093273D01*
X0162157Y0093050D01*
X0161966Y0092821D01*
X0161781Y0092588D01*
X0161601Y0092351D01*
X0161428Y0092109D01*
X0161260Y0091863D01*
X0161099Y0091613D01*
X0160943Y0091359D01*
X0160794Y0091101D01*
X0160651Y0090840D01*
X0160515Y0090576D01*
X0160385Y0090308D01*
X0160262Y0090037D01*
X0160145Y0089763D01*
X0160035Y0089487D01*
X0159932Y0089207D01*
X0159836Y0088926D01*
X0159747Y0088642D01*
X0159664Y0088356D01*
X0159589Y0088068D01*
X0159520Y0087778D01*
X0159459Y0087487D01*
X0159405Y0087194D01*
X0159358Y0086900D01*
X0159318Y0086605D01*
X0159286Y0086310D01*
X0159260Y0086013D01*
X0159242Y0085716D01*
X0159232Y0085418D01*
X0159228Y0085121D01*
X0159232Y0084823D01*
X0159243Y0084526D01*
X0159261Y0084229D01*
X0159287Y0083932D01*
X0159319Y0083636D01*
X0159359Y0083341D01*
X0159406Y0083048D01*
X0159461Y0082755D01*
X0159522Y0082464D01*
X0159591Y0082174D01*
X0159666Y0081886D01*
X0159749Y0081600D01*
X0159838Y0081316D01*
X0159935Y0081035D01*
X0160038Y0080756D01*
X0160148Y0080479D01*
X0160265Y0080205D01*
X0160389Y0079935D01*
X0160519Y0079667D01*
X0160655Y0079402D01*
X0160798Y0079141D01*
X0160948Y0078884D01*
X0161103Y0078630D01*
X0161265Y0078380D01*
X0161433Y0078135D01*
X0161606Y0077893D01*
X0161786Y0077655D01*
X0161971Y0077423D01*
X0162162Y0077194D01*
X0162359Y0076971D01*
X0162561Y0076752D01*
X0162768Y0076538D01*
X0162980Y0076330D01*
X0163197Y0076126D01*
X0163420Y0075928D01*
X0163647Y0075736D01*
X0163878Y0075549D01*
X0164114Y0075368D01*
X0164355Y0075192D01*
X0164600Y0075023D01*
X0164848Y0074860D01*
X0165101Y0074702D01*
X0165357Y0074551D01*
X0165618Y0074406D01*
X0165881Y0074268D01*
X0166148Y0074136D01*
X0166418Y0074011D01*
X0166691Y0073892D01*
X0166967Y0073780D01*
X0167245Y0073675D01*
X0167526Y0073577D01*
X0167809Y0073485D01*
X0168094Y0073401D01*
X0168382Y0073323D01*
X0165610Y0069227D02*
X0165610Y0066869D01*
X0164824Y0066869D02*
X0166396Y0066869D01*
X0164824Y0068441D02*
X0165610Y0069227D01*
X0163072Y0069227D02*
X0163072Y0066869D01*
X0162286Y0066869D02*
X0163858Y0066869D01*
X0162286Y0068441D02*
X0163072Y0069227D01*
X0161321Y0068834D02*
X0160928Y0069227D01*
X0160142Y0069227D01*
X0159749Y0068834D01*
X0159749Y0067262D01*
X0160142Y0066869D01*
X0160928Y0066869D01*
X0161321Y0067262D01*
X0174779Y0073421D02*
X0175065Y0073506D01*
X0175348Y0073597D01*
X0175629Y0073696D01*
X0175907Y0073801D01*
X0176183Y0073913D01*
X0176456Y0074032D01*
X0176726Y0074158D01*
X0176992Y0074290D01*
X0177256Y0074428D01*
X0177516Y0074573D01*
X0177772Y0074725D01*
X0178025Y0074882D01*
X0178273Y0075046D01*
X0178518Y0075215D01*
X0178758Y0075391D01*
X0178994Y0075572D01*
X0179226Y0075759D01*
X0179453Y0075952D01*
X0179675Y0076150D01*
X0179892Y0076353D01*
X0180104Y0076562D01*
X0180311Y0076776D01*
X0180513Y0076995D01*
X0180709Y0077218D01*
X0180900Y0077447D01*
X0181085Y0077680D01*
X0181265Y0077917D01*
X0181438Y0078159D01*
X0181606Y0078405D01*
X0181767Y0078655D01*
X0181923Y0078909D01*
X0182072Y0079167D01*
X0182215Y0079428D01*
X0182351Y0079692D01*
X0182481Y0079960D01*
X0182604Y0080231D01*
X0182721Y0080505D01*
X0182831Y0080781D01*
X0182934Y0081061D01*
X0183030Y0081342D01*
X0183119Y0081626D01*
X0183202Y0081912D01*
X0183277Y0082200D01*
X0183346Y0082490D01*
X0183407Y0082781D01*
X0183461Y0083074D01*
X0183508Y0083368D01*
X0183548Y0083663D01*
X0183580Y0083958D01*
X0183606Y0084255D01*
X0183624Y0084552D01*
X0183634Y0084850D01*
X0183638Y0085147D01*
X0183634Y0085445D01*
X0183623Y0085742D01*
X0183605Y0086039D01*
X0183579Y0086336D01*
X0183547Y0086632D01*
X0183507Y0086927D01*
X0183460Y0087220D01*
X0183405Y0087513D01*
X0183344Y0087804D01*
X0183275Y0088094D01*
X0183200Y0088382D01*
X0183117Y0088668D01*
X0183028Y0088952D01*
X0182931Y0089233D01*
X0182828Y0089512D01*
X0182718Y0089789D01*
X0182601Y0090063D01*
X0182477Y0090333D01*
X0182347Y0090601D01*
X0182211Y0090866D01*
X0182068Y0091127D01*
X0181918Y0091384D01*
X0181763Y0091638D01*
X0181601Y0091888D01*
X0181433Y0092133D01*
X0181260Y0092375D01*
X0181080Y0092613D01*
X0180895Y0092845D01*
X0180704Y0093074D01*
X0180507Y0093297D01*
X0180305Y0093516D01*
X0180098Y0093730D01*
X0179886Y0093938D01*
X0179669Y0094142D01*
X0179446Y0094340D01*
X0179219Y0094532D01*
X0178988Y0094719D01*
X0178752Y0094900D01*
X0178511Y0095076D01*
X0178266Y0095245D01*
X0178018Y0095408D01*
X0177765Y0095566D01*
X0177509Y0095717D01*
X0177248Y0095862D01*
X0176985Y0096000D01*
X0176718Y0096132D01*
X0176448Y0096257D01*
X0176175Y0096376D01*
X0175899Y0096488D01*
X0175621Y0096593D01*
X0175340Y0096691D01*
X0175057Y0096783D01*
X0174772Y0096867D01*
X0174484Y0096945D01*
X0181079Y0097929D02*
X0184228Y0094780D01*
X0183215Y0107609D02*
X0182429Y0107609D01*
X0182036Y0108002D01*
X0182036Y0108788D02*
X0182822Y0109181D01*
X0183215Y0109181D01*
X0183608Y0108788D01*
X0183608Y0108002D01*
X0183215Y0107609D01*
X0182036Y0108788D02*
X0182036Y0109967D01*
X0183608Y0109967D01*
X0181070Y0109574D02*
X0181070Y0109181D01*
X0180677Y0108788D01*
X0181070Y0108395D01*
X0181070Y0108002D01*
X0180677Y0107609D01*
X0179891Y0107609D01*
X0179498Y0108002D01*
X0178532Y0107609D02*
X0177746Y0108395D01*
X0178139Y0108395D02*
X0176961Y0108395D01*
X0176961Y0107609D02*
X0176961Y0109967D01*
X0178139Y0109967D01*
X0178532Y0109574D01*
X0178532Y0108788D01*
X0178139Y0108395D01*
X0179498Y0109574D02*
X0179891Y0109967D01*
X0180677Y0109967D01*
X0181070Y0109574D01*
X0180677Y0108788D02*
X0180284Y0108788D01*
X0175104Y0115562D02*
X0175104Y0117920D01*
X0173925Y0116741D01*
X0175497Y0116741D01*
X0172960Y0115562D02*
X0171388Y0115562D01*
X0172174Y0115562D02*
X0172174Y0117920D01*
X0171388Y0117134D01*
X0170422Y0117527D02*
X0170029Y0117920D01*
X0169243Y0117920D01*
X0168850Y0117527D01*
X0168850Y0115955D01*
X0169243Y0115562D01*
X0170029Y0115562D01*
X0170422Y0115955D01*
X0166158Y0123452D02*
X0164586Y0123452D01*
X0166158Y0125024D01*
X0166158Y0125417D01*
X0165765Y0125810D01*
X0164979Y0125810D01*
X0164586Y0125417D01*
X0163620Y0125417D02*
X0163620Y0124631D01*
X0163227Y0124238D01*
X0162048Y0124238D01*
X0162048Y0123452D02*
X0162048Y0125810D01*
X0163227Y0125810D01*
X0163620Y0125417D01*
X0162834Y0124238D02*
X0163620Y0123452D01*
X0162833Y0132507D02*
X0163226Y0132900D01*
X0162833Y0132507D02*
X0162048Y0132507D01*
X0161655Y0132900D01*
X0161655Y0134472D01*
X0162048Y0134865D01*
X0162833Y0134865D01*
X0163226Y0134472D01*
X0164192Y0134472D02*
X0164585Y0134865D01*
X0165371Y0134865D01*
X0165764Y0134472D01*
X0165764Y0134079D01*
X0165371Y0133686D01*
X0165764Y0133293D01*
X0165764Y0132900D01*
X0165371Y0132507D01*
X0164585Y0132507D01*
X0164192Y0132900D01*
X0164978Y0133686D02*
X0165371Y0133686D01*
X0170228Y0133156D02*
X0170228Y0130798D01*
X0170228Y0131584D02*
X0171407Y0131584D01*
X0171800Y0131977D01*
X0171800Y0132763D01*
X0171407Y0133156D01*
X0170228Y0133156D01*
X0171014Y0131584D02*
X0171800Y0130798D01*
X0172766Y0131191D02*
X0173159Y0130798D01*
X0173945Y0130798D01*
X0174338Y0131191D01*
X0174338Y0131584D01*
X0173945Y0131977D01*
X0173552Y0131977D01*
X0173945Y0131977D02*
X0174338Y0132370D01*
X0174338Y0132763D01*
X0173945Y0133156D01*
X0173159Y0133156D01*
X0172766Y0132763D01*
X0175303Y0132763D02*
X0175303Y0132370D01*
X0175696Y0131977D01*
X0176482Y0131977D01*
X0176875Y0131584D01*
X0176875Y0131191D01*
X0176482Y0130798D01*
X0175696Y0130798D01*
X0175303Y0131191D01*
X0175303Y0131584D01*
X0175696Y0131977D01*
X0176482Y0131977D02*
X0176875Y0132370D01*
X0176875Y0132763D01*
X0176482Y0133156D01*
X0175696Y0133156D01*
X0175303Y0132763D01*
X0175007Y0138885D02*
X0173435Y0138885D01*
X0175007Y0140457D01*
X0175007Y0140850D01*
X0174614Y0141243D01*
X0173828Y0141243D01*
X0173435Y0140850D01*
X0172469Y0140850D02*
X0172469Y0140064D01*
X0172076Y0139671D01*
X0170898Y0139671D01*
X0171684Y0139671D02*
X0172469Y0138885D01*
X0170898Y0138885D02*
X0170898Y0141243D01*
X0172076Y0141243D01*
X0172469Y0140850D01*
X0175973Y0141243D02*
X0177545Y0141243D01*
X0177545Y0140850D01*
X0175973Y0139278D01*
X0175973Y0138885D01*
X0185166Y0126718D02*
X0185559Y0126718D01*
X0185952Y0126325D01*
X0185952Y0125539D01*
X0185559Y0125146D01*
X0185166Y0125146D01*
X0184773Y0125539D01*
X0184773Y0126325D01*
X0185166Y0126718D01*
X0185952Y0126325D02*
X0186345Y0126718D01*
X0186738Y0126718D01*
X0187131Y0126325D01*
X0187131Y0125539D01*
X0186738Y0125146D01*
X0186345Y0125146D01*
X0185952Y0125539D01*
X0185559Y0124180D02*
X0185166Y0124180D01*
X0184773Y0123787D01*
X0184773Y0123001D01*
X0185166Y0122608D01*
X0185166Y0121643D02*
X0185952Y0121643D01*
X0186345Y0121250D01*
X0186345Y0120071D01*
X0187131Y0120071D02*
X0184773Y0120071D01*
X0184773Y0121250D01*
X0185166Y0121643D01*
X0186345Y0120857D02*
X0187131Y0121643D01*
X0187131Y0122608D02*
X0185559Y0124180D01*
X0187131Y0124180D02*
X0187131Y0122608D01*
X0193298Y0111243D02*
X0192905Y0110850D01*
X0192905Y0109278D01*
X0193298Y0108885D01*
X0194084Y0108885D01*
X0194477Y0109278D01*
X0195443Y0108885D02*
X0197015Y0108885D01*
X0196229Y0108885D02*
X0196229Y0111243D01*
X0195443Y0110457D01*
X0194477Y0110850D02*
X0194084Y0111243D01*
X0193298Y0111243D01*
X0197981Y0110850D02*
X0198374Y0111243D01*
X0199160Y0111243D01*
X0199553Y0110850D01*
X0199553Y0110457D01*
X0199160Y0110064D01*
X0199553Y0109671D01*
X0199553Y0109278D01*
X0199160Y0108885D01*
X0198374Y0108885D01*
X0197981Y0109278D01*
X0198767Y0110064D02*
X0199160Y0110064D01*
X0209346Y0098008D02*
X0212496Y0094858D01*
X0212496Y0072417D01*
X0194663Y0069543D02*
X0194663Y0069150D01*
X0194270Y0068757D01*
X0193485Y0068757D01*
X0193092Y0069150D01*
X0193092Y0069543D01*
X0193485Y0069936D01*
X0194270Y0069936D01*
X0194663Y0069543D01*
X0194270Y0068757D02*
X0194663Y0068364D01*
X0194663Y0067971D01*
X0194270Y0067578D01*
X0193485Y0067578D01*
X0193092Y0067971D01*
X0193092Y0068364D01*
X0193485Y0068757D01*
X0192126Y0069543D02*
X0191733Y0069936D01*
X0190947Y0069936D01*
X0190554Y0069543D01*
X0190554Y0067971D01*
X0190947Y0067578D01*
X0191733Y0067578D01*
X0192126Y0067971D01*
X0196650Y0073401D02*
X0196362Y0073479D01*
X0196077Y0073563D01*
X0195794Y0073655D01*
X0195513Y0073753D01*
X0195235Y0073858D01*
X0194959Y0073970D01*
X0194686Y0074089D01*
X0194416Y0074214D01*
X0194149Y0074346D01*
X0193886Y0074484D01*
X0193625Y0074629D01*
X0193369Y0074780D01*
X0193116Y0074938D01*
X0192868Y0075101D01*
X0192623Y0075270D01*
X0192382Y0075446D01*
X0192146Y0075627D01*
X0191915Y0075814D01*
X0191688Y0076006D01*
X0191465Y0076204D01*
X0191248Y0076408D01*
X0191036Y0076616D01*
X0190829Y0076830D01*
X0190627Y0077049D01*
X0190430Y0077272D01*
X0190239Y0077501D01*
X0190054Y0077733D01*
X0189874Y0077971D01*
X0189701Y0078213D01*
X0189533Y0078458D01*
X0189371Y0078708D01*
X0189216Y0078962D01*
X0189066Y0079219D01*
X0188923Y0079480D01*
X0188787Y0079745D01*
X0188657Y0080013D01*
X0188533Y0080283D01*
X0188416Y0080557D01*
X0188306Y0080834D01*
X0188203Y0081113D01*
X0188106Y0081394D01*
X0188017Y0081678D01*
X0187934Y0081964D01*
X0187859Y0082252D01*
X0187790Y0082542D01*
X0187729Y0082833D01*
X0187674Y0083126D01*
X0187627Y0083419D01*
X0187587Y0083714D01*
X0187555Y0084010D01*
X0187529Y0084307D01*
X0187511Y0084604D01*
X0187500Y0084901D01*
X0187496Y0085199D01*
X0187500Y0085496D01*
X0187510Y0085794D01*
X0187528Y0086091D01*
X0187554Y0086388D01*
X0187586Y0086683D01*
X0187626Y0086978D01*
X0187673Y0087272D01*
X0187727Y0087565D01*
X0187788Y0087856D01*
X0187857Y0088146D01*
X0187932Y0088434D01*
X0188015Y0088720D01*
X0188104Y0089004D01*
X0188200Y0089285D01*
X0188303Y0089565D01*
X0188413Y0089841D01*
X0188530Y0090115D01*
X0188653Y0090386D01*
X0188783Y0090654D01*
X0188919Y0090918D01*
X0189062Y0091179D01*
X0189211Y0091437D01*
X0189367Y0091691D01*
X0189528Y0091941D01*
X0189696Y0092187D01*
X0189869Y0092429D01*
X0190049Y0092666D01*
X0190234Y0092899D01*
X0190425Y0093128D01*
X0190621Y0093351D01*
X0190823Y0093570D01*
X0191030Y0093784D01*
X0191242Y0093993D01*
X0191459Y0094196D01*
X0191681Y0094394D01*
X0191908Y0094587D01*
X0192140Y0094774D01*
X0192376Y0094955D01*
X0192616Y0095131D01*
X0192861Y0095300D01*
X0193109Y0095464D01*
X0193362Y0095621D01*
X0193618Y0095773D01*
X0193878Y0095918D01*
X0194142Y0096056D01*
X0194408Y0096188D01*
X0194678Y0096314D01*
X0194951Y0096433D01*
X0195227Y0096545D01*
X0195505Y0096650D01*
X0195786Y0096749D01*
X0196069Y0096840D01*
X0196355Y0096925D01*
X0202752Y0097024D02*
X0203040Y0096946D01*
X0203325Y0096862D01*
X0203608Y0096770D01*
X0203889Y0096672D01*
X0204167Y0096567D01*
X0204443Y0096455D01*
X0204716Y0096336D01*
X0204986Y0096211D01*
X0205253Y0096079D01*
X0205516Y0095941D01*
X0205777Y0095796D01*
X0206033Y0095645D01*
X0206286Y0095487D01*
X0206534Y0095324D01*
X0206779Y0095155D01*
X0207020Y0094979D01*
X0207256Y0094798D01*
X0207487Y0094611D01*
X0207714Y0094419D01*
X0207937Y0094221D01*
X0208154Y0094017D01*
X0208366Y0093809D01*
X0208573Y0093595D01*
X0208775Y0093376D01*
X0208972Y0093153D01*
X0209163Y0092924D01*
X0209348Y0092692D01*
X0209528Y0092454D01*
X0209701Y0092212D01*
X0209869Y0091967D01*
X0210031Y0091717D01*
X0210186Y0091463D01*
X0210336Y0091206D01*
X0210479Y0090945D01*
X0210615Y0090680D01*
X0210745Y0090412D01*
X0210869Y0090142D01*
X0210986Y0089868D01*
X0211096Y0089591D01*
X0211199Y0089312D01*
X0211296Y0089031D01*
X0211385Y0088747D01*
X0211468Y0088461D01*
X0211543Y0088173D01*
X0211612Y0087883D01*
X0211673Y0087592D01*
X0211728Y0087299D01*
X0211775Y0087006D01*
X0211815Y0086711D01*
X0211847Y0086415D01*
X0211873Y0086118D01*
X0211891Y0085821D01*
X0211902Y0085524D01*
X0211906Y0085226D01*
X0211902Y0084929D01*
X0211892Y0084631D01*
X0211874Y0084334D01*
X0211848Y0084037D01*
X0211816Y0083742D01*
X0211776Y0083447D01*
X0211729Y0083153D01*
X0211675Y0082860D01*
X0211614Y0082569D01*
X0211545Y0082279D01*
X0211470Y0081991D01*
X0211387Y0081705D01*
X0211298Y0081421D01*
X0211202Y0081140D01*
X0211099Y0080860D01*
X0210989Y0080584D01*
X0210872Y0080310D01*
X0210749Y0080039D01*
X0210619Y0079771D01*
X0210483Y0079507D01*
X0210340Y0079246D01*
X0210191Y0078988D01*
X0210035Y0078734D01*
X0209874Y0078484D01*
X0209706Y0078238D01*
X0209533Y0077996D01*
X0209353Y0077759D01*
X0209168Y0077526D01*
X0208977Y0077297D01*
X0208781Y0077074D01*
X0208579Y0076855D01*
X0208372Y0076641D01*
X0208160Y0076432D01*
X0207943Y0076229D01*
X0207721Y0076031D01*
X0207494Y0075838D01*
X0207262Y0075651D01*
X0207026Y0075470D01*
X0206786Y0075294D01*
X0206541Y0075125D01*
X0206293Y0074961D01*
X0206040Y0074804D01*
X0205784Y0074652D01*
X0205524Y0074507D01*
X0205260Y0074369D01*
X0204994Y0074237D01*
X0204724Y0074111D01*
X0204451Y0073992D01*
X0204175Y0073880D01*
X0203897Y0073775D01*
X0203616Y0073676D01*
X0203333Y0073585D01*
X0203047Y0073500D01*
X0148206Y0120606D02*
X0148206Y0122963D01*
X0147027Y0121784D01*
X0148599Y0121784D01*
X0146061Y0120998D02*
X0145668Y0120606D01*
X0144882Y0120606D01*
X0144489Y0120998D01*
X0144489Y0122570D01*
X0144882Y0122963D01*
X0145668Y0122963D01*
X0146061Y0122570D01*
X0125055Y0136987D02*
X0123483Y0136987D01*
X0124269Y0136987D02*
X0124269Y0139345D01*
X0123483Y0138559D01*
X0122518Y0138952D02*
X0122125Y0139345D01*
X0120946Y0139345D01*
X0120946Y0136987D01*
X0122125Y0136987D01*
X0122518Y0137380D01*
X0122518Y0138952D01*
X0118835Y0140606D02*
X0115685Y0137457D01*
X0093244Y0137457D01*
X0093244Y0147496D01*
X0088575Y0150097D02*
X0088575Y0150490D01*
X0088182Y0150883D01*
X0087004Y0150883D01*
X0087004Y0150097D01*
X0087397Y0149704D01*
X0088182Y0149704D01*
X0088575Y0150097D01*
X0087004Y0150883D02*
X0087790Y0151669D01*
X0088575Y0152062D01*
X0085252Y0152062D02*
X0085252Y0149704D01*
X0084466Y0149704D02*
X0086038Y0149704D01*
X0084466Y0151276D02*
X0085252Y0152062D01*
X0083500Y0151669D02*
X0083107Y0152062D01*
X0082321Y0152062D01*
X0081928Y0151669D01*
X0081928Y0150097D01*
X0082321Y0149704D01*
X0083107Y0149704D01*
X0083500Y0150097D01*
X0093244Y0153402D02*
X0093244Y0163047D01*
X0115685Y0163047D01*
X0118835Y0159898D01*
X0120788Y0169196D02*
X0121574Y0169196D01*
X0121967Y0169589D01*
X0122932Y0169589D02*
X0123325Y0169196D01*
X0124111Y0169196D01*
X0124504Y0169589D01*
X0124504Y0170375D01*
X0124111Y0170768D01*
X0123718Y0170768D01*
X0122932Y0170375D01*
X0122932Y0171554D01*
X0124504Y0171554D01*
X0121967Y0171161D02*
X0121574Y0171554D01*
X0120788Y0171554D01*
X0120395Y0171161D01*
X0120395Y0169589D01*
X0120788Y0169196D01*
X0131866Y0166276D02*
X0131866Y0183598D01*
X0139346Y0183598D01*
X0138478Y0185511D02*
X0138871Y0185904D01*
X0138871Y0186690D01*
X0138478Y0187083D01*
X0138085Y0187083D01*
X0137299Y0186690D01*
X0137299Y0187869D01*
X0138871Y0187869D01*
X0138478Y0185511D02*
X0137692Y0185511D01*
X0137299Y0185904D01*
X0136333Y0185511D02*
X0134761Y0185511D01*
X0135547Y0185511D02*
X0135547Y0187869D01*
X0134761Y0187083D01*
X0133796Y0187476D02*
X0133403Y0187869D01*
X0132617Y0187869D01*
X0132224Y0187476D01*
X0132224Y0185904D01*
X0132617Y0185511D01*
X0133403Y0185511D01*
X0133796Y0185904D01*
X0124184Y0185666D02*
X0121826Y0185666D01*
X0121826Y0184094D01*
X0121826Y0183128D02*
X0121826Y0181556D01*
X0121826Y0183128D02*
X0124184Y0183128D01*
X0123398Y0186631D02*
X0121826Y0186631D01*
X0123005Y0186631D02*
X0123005Y0188203D01*
X0123398Y0188203D02*
X0124184Y0187417D01*
X0123398Y0186631D01*
X0123398Y0188203D02*
X0121826Y0188203D01*
X0121826Y0189169D02*
X0124184Y0189169D01*
X0123005Y0189169D02*
X0123005Y0190741D01*
X0121826Y0190741D02*
X0124184Y0190741D01*
X0124184Y0191707D02*
X0121826Y0193279D01*
X0122219Y0194244D02*
X0121826Y0194637D01*
X0121826Y0195423D01*
X0122219Y0195816D01*
X0123791Y0195816D01*
X0124184Y0195423D01*
X0124184Y0194637D01*
X0123791Y0194244D01*
X0124184Y0196782D02*
X0121826Y0196782D01*
X0124184Y0198354D01*
X0121826Y0198354D01*
X0121826Y0199319D02*
X0121826Y0200891D01*
X0124184Y0200891D01*
X0124184Y0199319D01*
X0123005Y0200105D02*
X0123005Y0200891D01*
X0130531Y0209271D02*
X0132103Y0209271D01*
X0131317Y0209271D02*
X0131317Y0211629D01*
X0130531Y0210843D01*
X0133068Y0211236D02*
X0133461Y0211629D01*
X0134247Y0211629D01*
X0134640Y0211236D01*
X0134640Y0210843D01*
X0133068Y0209271D01*
X0134640Y0209271D01*
X0136392Y0209271D02*
X0137178Y0210843D01*
X0135606Y0210843D02*
X0136392Y0209271D01*
X0135516Y0215570D02*
X0134730Y0215570D01*
X0134337Y0215963D01*
X0133461Y0215963D02*
X0133461Y0215570D01*
X0133068Y0215570D01*
X0133068Y0215963D01*
X0133461Y0215963D01*
X0132103Y0215963D02*
X0131710Y0215570D01*
X0130924Y0215570D01*
X0130531Y0215963D01*
X0131317Y0216749D02*
X0131710Y0216749D01*
X0132103Y0216356D01*
X0132103Y0215963D01*
X0131710Y0216749D02*
X0132103Y0217142D01*
X0132103Y0217535D01*
X0131710Y0217928D01*
X0130924Y0217928D01*
X0130531Y0217535D01*
X0131257Y0220559D02*
X0132829Y0220559D01*
X0133795Y0220952D02*
X0133795Y0223310D01*
X0134974Y0223310D01*
X0135367Y0222917D01*
X0135367Y0222131D01*
X0134974Y0221738D01*
X0133795Y0221738D01*
X0136332Y0221345D02*
X0136725Y0220952D01*
X0137511Y0220952D01*
X0137904Y0221345D01*
X0137904Y0222917D01*
X0137511Y0223310D01*
X0136725Y0223310D01*
X0136332Y0222917D01*
X0136332Y0221345D01*
X0138870Y0220952D02*
X0139656Y0221738D01*
X0140442Y0220952D01*
X0140442Y0223310D01*
X0141408Y0223310D02*
X0141408Y0220952D01*
X0142980Y0220952D01*
X0143945Y0220952D02*
X0143945Y0223310D01*
X0145124Y0223310D01*
X0145517Y0222917D01*
X0145517Y0222131D01*
X0145124Y0221738D01*
X0143945Y0221738D01*
X0144731Y0221738D02*
X0145517Y0220952D01*
X0142980Y0223310D02*
X0141408Y0223310D01*
X0141408Y0222131D02*
X0142194Y0222131D01*
X0138870Y0223310D02*
X0138870Y0220952D01*
X0130292Y0221345D02*
X0129899Y0220952D01*
X0129113Y0220952D01*
X0128720Y0221345D01*
X0128720Y0222917D01*
X0129113Y0223310D01*
X0129899Y0223310D01*
X0130292Y0222917D01*
X0127754Y0223310D02*
X0127754Y0220952D01*
X0126182Y0223310D01*
X0126182Y0220952D01*
X0125216Y0220952D02*
X0123644Y0220952D01*
X0123644Y0223310D01*
X0125216Y0223310D01*
X0124430Y0222131D02*
X0123644Y0222131D01*
X0122679Y0223310D02*
X0121107Y0220952D01*
X0120141Y0220952D02*
X0118569Y0220952D01*
X0118569Y0223310D01*
X0116032Y0223310D02*
X0116032Y0220952D01*
X0117604Y0220952D01*
X0115066Y0220952D02*
X0115066Y0222524D01*
X0114280Y0223310D01*
X0113494Y0222524D01*
X0113494Y0220952D01*
X0112528Y0220952D02*
X0112528Y0223310D01*
X0112528Y0222131D02*
X0110956Y0222131D01*
X0110956Y0220952D02*
X0110956Y0223310D01*
X0113494Y0222131D02*
X0115066Y0222131D01*
X0100852Y0233333D02*
X0100459Y0232940D01*
X0099673Y0232940D01*
X0099280Y0233333D01*
X0098314Y0232940D02*
X0096742Y0232940D01*
X0097528Y0232940D02*
X0097528Y0235298D01*
X0096742Y0234512D01*
X0095777Y0234119D02*
X0095384Y0233726D01*
X0094205Y0233726D01*
X0094991Y0233726D02*
X0095777Y0232940D01*
X0095777Y0234119D02*
X0095777Y0234905D01*
X0095384Y0235298D01*
X0094205Y0235298D01*
X0094205Y0232940D01*
X0099280Y0234905D02*
X0099673Y0235298D01*
X0100459Y0235298D01*
X0100852Y0234905D01*
X0100852Y0234512D01*
X0100459Y0234119D01*
X0100852Y0233726D01*
X0100852Y0233333D01*
X0100459Y0234119D02*
X0100066Y0234119D01*
X0107166Y0246141D02*
X0108345Y0246141D01*
X0108738Y0246534D01*
X0108738Y0248106D01*
X0108345Y0248499D01*
X0107166Y0248499D01*
X0107166Y0246141D01*
X0109704Y0246534D02*
X0110097Y0246141D01*
X0110883Y0246141D01*
X0111276Y0246534D01*
X0111276Y0246927D01*
X0110883Y0247320D01*
X0109704Y0247320D01*
X0109704Y0246534D01*
X0109704Y0247320D02*
X0110490Y0248106D01*
X0111276Y0248499D01*
X0149017Y0223841D02*
X0149017Y0221483D01*
X0149017Y0222269D02*
X0150196Y0222269D01*
X0150589Y0222662D01*
X0150589Y0223448D01*
X0150196Y0223841D01*
X0149017Y0223841D01*
X0149803Y0222269D02*
X0150589Y0221483D01*
X0151554Y0221876D02*
X0151947Y0221483D01*
X0152733Y0221483D01*
X0153126Y0221876D01*
X0153126Y0222269D01*
X0152733Y0222662D01*
X0152340Y0222662D01*
X0152733Y0222662D02*
X0153126Y0223055D01*
X0153126Y0223448D01*
X0152733Y0223841D01*
X0151947Y0223841D01*
X0151554Y0223448D01*
X0138447Y0217928D02*
X0138447Y0216356D01*
X0137661Y0215570D01*
X0136875Y0216356D01*
X0136875Y0217928D01*
X0135909Y0217535D02*
X0135909Y0217142D01*
X0135516Y0216749D01*
X0135909Y0216356D01*
X0135909Y0215963D01*
X0135516Y0215570D01*
X0135516Y0216749D02*
X0135123Y0216749D01*
X0134337Y0217535D02*
X0134730Y0217928D01*
X0135516Y0217928D01*
X0135909Y0217535D01*
X0144006Y0199715D02*
X0145185Y0199715D01*
X0145578Y0199322D01*
X0145578Y0198536D01*
X0145185Y0198143D01*
X0144006Y0198143D01*
X0144006Y0197357D02*
X0144006Y0199715D01*
X0146544Y0199715D02*
X0147723Y0199715D01*
X0148116Y0199322D01*
X0148116Y0198536D01*
X0147723Y0198143D01*
X0146544Y0198143D01*
X0146544Y0197357D02*
X0146544Y0199715D01*
X0147330Y0198143D02*
X0148116Y0197357D01*
X0149081Y0197750D02*
X0149474Y0197357D01*
X0150260Y0197357D01*
X0150653Y0197750D01*
X0150653Y0199322D01*
X0150260Y0199715D01*
X0149474Y0199715D01*
X0149081Y0199322D01*
X0149081Y0197750D01*
X0151619Y0197750D02*
X0152012Y0197357D01*
X0152798Y0197357D01*
X0153191Y0197750D01*
X0153191Y0198536D01*
X0152405Y0198536D01*
X0151619Y0199322D02*
X0151619Y0197750D01*
X0151619Y0199322D02*
X0152012Y0199715D01*
X0152798Y0199715D01*
X0153191Y0199322D01*
X0153573Y0195479D02*
X0152787Y0195479D01*
X0152394Y0195086D01*
X0152394Y0193514D01*
X0152787Y0193121D01*
X0153573Y0193121D01*
X0153966Y0193514D01*
X0154931Y0193121D02*
X0156503Y0194693D01*
X0156503Y0195086D01*
X0156110Y0195479D01*
X0155324Y0195479D01*
X0154931Y0195086D01*
X0153966Y0195086D02*
X0153573Y0195479D01*
X0154931Y0193121D02*
X0156503Y0193121D01*
X0157469Y0193121D02*
X0159041Y0193121D01*
X0158255Y0193121D02*
X0158255Y0195479D01*
X0157469Y0194693D01*
X0157941Y0189062D02*
X0159513Y0189062D01*
X0159513Y0188669D01*
X0157941Y0187097D01*
X0157941Y0186704D01*
X0156976Y0187097D02*
X0156583Y0186704D01*
X0155797Y0186704D01*
X0155404Y0187097D01*
X0154438Y0186704D02*
X0153652Y0187490D01*
X0154045Y0187490D02*
X0152866Y0187490D01*
X0152866Y0186704D02*
X0152866Y0189062D01*
X0154045Y0189062D01*
X0154438Y0188669D01*
X0154438Y0187883D01*
X0154045Y0187490D01*
X0155404Y0188669D02*
X0155797Y0189062D01*
X0156583Y0189062D01*
X0156976Y0188669D01*
X0156976Y0188276D01*
X0156583Y0187883D01*
X0156976Y0187490D01*
X0156976Y0187097D01*
X0156583Y0187883D02*
X0156190Y0187883D01*
X0152339Y0183598D02*
X0152339Y0166276D01*
X0149189Y0163126D01*
X0154214Y0159653D02*
X0154214Y0158081D01*
X0154607Y0157688D01*
X0155393Y0157688D01*
X0155786Y0158081D01*
X0156751Y0158081D02*
X0157144Y0157688D01*
X0157930Y0157688D01*
X0158323Y0158081D01*
X0158323Y0158474D01*
X0157930Y0158867D01*
X0156751Y0158867D01*
X0156751Y0158081D01*
X0156751Y0158867D02*
X0157537Y0159653D01*
X0158323Y0160046D01*
X0155786Y0159653D02*
X0155393Y0160046D01*
X0154607Y0160046D01*
X0154214Y0159653D01*
X0156497Y0149857D02*
X0156497Y0147499D01*
X0158069Y0147499D01*
X0159035Y0147499D02*
X0160607Y0147499D01*
X0159821Y0147499D02*
X0159821Y0149857D01*
X0159035Y0149071D01*
X0175592Y0156968D02*
X0176378Y0156968D01*
X0175985Y0156968D02*
X0175985Y0159326D01*
X0175592Y0159326D02*
X0176378Y0159326D01*
X0177284Y0158933D02*
X0177677Y0159326D01*
X0178463Y0159326D01*
X0178856Y0158933D01*
X0179821Y0158540D02*
X0180607Y0159326D01*
X0180607Y0156968D01*
X0179821Y0156968D02*
X0181393Y0156968D01*
X0178856Y0157361D02*
X0178463Y0156968D01*
X0177677Y0156968D01*
X0177284Y0157361D01*
X0177284Y0158933D01*
X0176921Y0175720D02*
X0176921Y0178078D01*
X0178100Y0178078D01*
X0178493Y0177685D01*
X0178493Y0176899D01*
X0178100Y0176506D01*
X0176921Y0176506D01*
X0177707Y0176506D02*
X0178493Y0175720D01*
X0179459Y0176113D02*
X0179852Y0175720D01*
X0180638Y0175720D01*
X0181031Y0176113D01*
X0181031Y0176506D01*
X0180638Y0176899D01*
X0180245Y0176899D01*
X0180638Y0176899D02*
X0181031Y0177292D01*
X0181031Y0177685D01*
X0180638Y0178078D01*
X0179852Y0178078D01*
X0179459Y0177685D01*
X0181996Y0176899D02*
X0183568Y0176899D01*
X0183175Y0178078D02*
X0181996Y0176899D01*
X0183175Y0175720D02*
X0183175Y0178078D01*
X0171591Y0178566D02*
X0170019Y0176995D01*
X0170019Y0176602D01*
X0169053Y0176995D02*
X0168660Y0176602D01*
X0167874Y0176602D01*
X0167481Y0176995D01*
X0167481Y0178566D01*
X0167874Y0178959D01*
X0168660Y0178959D01*
X0169053Y0178566D01*
X0170019Y0178959D02*
X0171591Y0178959D01*
X0171591Y0178566D01*
X0176763Y0191940D02*
X0177549Y0191940D01*
X0177942Y0192333D01*
X0178908Y0191940D02*
X0180480Y0193512D01*
X0180480Y0193905D01*
X0180087Y0194298D01*
X0179301Y0194298D01*
X0178908Y0193905D01*
X0177942Y0193905D02*
X0177549Y0194298D01*
X0176763Y0194298D01*
X0176370Y0193905D01*
X0176370Y0192333D01*
X0176763Y0191940D01*
X0178908Y0191940D02*
X0180480Y0191940D01*
X0181445Y0192333D02*
X0183017Y0193905D01*
X0183017Y0192333D01*
X0182624Y0191940D01*
X0181838Y0191940D01*
X0181445Y0192333D01*
X0181445Y0193905D01*
X0181838Y0194298D01*
X0182624Y0194298D01*
X0183017Y0193905D01*
X0185661Y0203058D02*
X0185661Y0205416D01*
X0186840Y0205416D01*
X0187233Y0205023D01*
X0187233Y0204237D01*
X0186840Y0203844D01*
X0185661Y0203844D01*
X0186447Y0203844D02*
X0187233Y0203058D01*
X0188199Y0203451D02*
X0188592Y0203058D01*
X0189378Y0203058D01*
X0189771Y0203451D01*
X0189771Y0203844D01*
X0189378Y0204237D01*
X0188985Y0204237D01*
X0189378Y0204237D02*
X0189771Y0204630D01*
X0189771Y0205023D01*
X0189378Y0205416D01*
X0188592Y0205416D01*
X0188199Y0205023D01*
X0190737Y0205023D02*
X0191129Y0205416D01*
X0191915Y0205416D01*
X0192308Y0205023D01*
X0192308Y0204630D01*
X0190737Y0203058D01*
X0192308Y0203058D01*
X0194874Y0203672D02*
X0194874Y0206030D01*
X0196053Y0206030D01*
X0196446Y0205637D01*
X0196446Y0204851D01*
X0196053Y0204458D01*
X0194874Y0204458D01*
X0195660Y0204458D02*
X0196446Y0203672D01*
X0197412Y0204065D02*
X0197804Y0203672D01*
X0198590Y0203672D01*
X0198983Y0204065D01*
X0198983Y0204458D01*
X0198590Y0204851D01*
X0198197Y0204851D01*
X0198590Y0204851D02*
X0198983Y0205244D01*
X0198983Y0205637D01*
X0198590Y0206030D01*
X0197804Y0206030D01*
X0197412Y0205637D01*
X0199949Y0205637D02*
X0200342Y0206030D01*
X0201128Y0206030D01*
X0201521Y0205637D01*
X0199949Y0204065D01*
X0200342Y0203672D01*
X0201128Y0203672D01*
X0201521Y0204065D01*
X0201521Y0205637D01*
X0199949Y0205637D02*
X0199949Y0204065D01*
X0206016Y0209184D02*
X0206016Y0211542D01*
X0207195Y0211542D01*
X0207588Y0211149D01*
X0207588Y0210363D01*
X0207195Y0209970D01*
X0206016Y0209970D01*
X0206802Y0209970D02*
X0207588Y0209184D01*
X0208553Y0209184D02*
X0210125Y0210756D01*
X0210125Y0211149D01*
X0209732Y0211542D01*
X0208946Y0211542D01*
X0208553Y0211149D01*
X0208553Y0209184D02*
X0210125Y0209184D01*
X0211091Y0209577D02*
X0211484Y0209184D01*
X0212270Y0209184D01*
X0212663Y0209577D01*
X0212663Y0209970D01*
X0212270Y0210363D01*
X0211877Y0210363D01*
X0212270Y0210363D02*
X0212663Y0210756D01*
X0212663Y0211149D01*
X0212270Y0211542D01*
X0211484Y0211542D01*
X0211091Y0211149D01*
X0210974Y0197148D02*
X0209795Y0197148D01*
X0209795Y0194791D01*
X0209795Y0195577D02*
X0210974Y0195577D01*
X0211367Y0195970D01*
X0211367Y0196755D01*
X0210974Y0197148D01*
X0212333Y0196755D02*
X0212726Y0197148D01*
X0213512Y0197148D01*
X0213905Y0196755D01*
X0213905Y0196362D01*
X0212333Y0194791D01*
X0213905Y0194791D01*
X0214870Y0195184D02*
X0215263Y0194791D01*
X0216049Y0194791D01*
X0216442Y0195184D01*
X0216442Y0196755D01*
X0216049Y0197148D01*
X0215263Y0197148D01*
X0214870Y0196755D01*
X0214870Y0196362D01*
X0215263Y0195970D01*
X0216442Y0195970D01*
X0211367Y0194791D02*
X0210581Y0195577D01*
X0201640Y0177684D02*
X0200854Y0177684D01*
X0200461Y0177291D01*
X0199495Y0177291D02*
X0199495Y0176898D01*
X0199102Y0176505D01*
X0199495Y0176112D01*
X0199495Y0175719D01*
X0199102Y0175326D01*
X0198316Y0175326D01*
X0197923Y0175719D01*
X0196958Y0175326D02*
X0196172Y0176112D01*
X0196565Y0176112D02*
X0195386Y0176112D01*
X0195386Y0175326D02*
X0195386Y0177684D01*
X0196565Y0177684D01*
X0196958Y0177291D01*
X0196958Y0176505D01*
X0196565Y0176112D01*
X0197923Y0177291D02*
X0198316Y0177684D01*
X0199102Y0177684D01*
X0199495Y0177291D01*
X0199102Y0176505D02*
X0198709Y0176505D01*
X0200461Y0175719D02*
X0200854Y0175326D01*
X0201640Y0175326D01*
X0202033Y0175719D01*
X0202033Y0176112D01*
X0201640Y0176505D01*
X0201247Y0176505D01*
X0201640Y0176505D02*
X0202033Y0176898D01*
X0202033Y0177291D01*
X0201640Y0177684D01*
X0175887Y0203378D02*
X0173529Y0203378D01*
X0173529Y0204557D01*
X0173922Y0204950D01*
X0174708Y0204950D01*
X0175101Y0204557D01*
X0175101Y0203378D01*
X0175101Y0204164D02*
X0175887Y0204950D01*
X0175494Y0205915D02*
X0175887Y0206308D01*
X0175887Y0207094D01*
X0175494Y0207487D01*
X0175101Y0207487D01*
X0174708Y0207094D01*
X0174708Y0206701D01*
X0174708Y0207094D02*
X0174315Y0207487D01*
X0173922Y0207487D01*
X0173529Y0207094D01*
X0173529Y0206308D01*
X0173922Y0205915D01*
X0174708Y0208453D02*
X0174708Y0209632D01*
X0175101Y0210025D01*
X0175494Y0210025D01*
X0175887Y0209632D01*
X0175887Y0208846D01*
X0175494Y0208453D01*
X0174708Y0208453D01*
X0173922Y0209239D01*
X0173529Y0210025D01*
X0179828Y0217748D02*
X0179828Y0218927D01*
X0180221Y0219320D01*
X0181007Y0219320D01*
X0181400Y0218927D01*
X0181400Y0217748D01*
X0182186Y0217748D02*
X0179828Y0217748D01*
X0181400Y0218534D02*
X0182186Y0219320D01*
X0181793Y0220286D02*
X0182186Y0220679D01*
X0182186Y0221464D01*
X0181793Y0221857D01*
X0181400Y0221857D01*
X0181007Y0221464D01*
X0181007Y0221071D01*
X0181007Y0221464D02*
X0180614Y0221857D01*
X0180221Y0221857D01*
X0179828Y0221464D01*
X0179828Y0220679D01*
X0180221Y0220286D01*
X0180614Y0222823D02*
X0179828Y0223609D01*
X0182186Y0223609D01*
X0182186Y0222823D02*
X0182186Y0224395D01*
X0182025Y0248735D02*
X0181239Y0248735D01*
X0181632Y0248735D02*
X0181632Y0251093D01*
X0181239Y0251093D02*
X0182025Y0251093D01*
X0182931Y0250700D02*
X0182931Y0249128D01*
X0183324Y0248735D01*
X0184110Y0248735D01*
X0184503Y0249128D01*
X0184503Y0250700D01*
X0184110Y0251093D01*
X0183324Y0251093D01*
X0182931Y0250700D01*
X0152339Y0183598D02*
X0144858Y0183598D01*
X0145449Y0182418D02*
X0145668Y0182334D01*
X0145885Y0182244D01*
X0146099Y0182149D01*
X0146312Y0182049D01*
X0146521Y0181944D01*
X0146729Y0181833D01*
X0146933Y0181718D01*
X0147135Y0181598D01*
X0147333Y0181472D01*
X0147528Y0181342D01*
X0147721Y0181208D01*
X0147910Y0181068D01*
X0148095Y0180925D01*
X0148277Y0180776D01*
X0148455Y0180624D01*
X0148630Y0180467D01*
X0148800Y0180305D01*
X0148967Y0180140D01*
X0149129Y0179971D01*
X0149288Y0179798D01*
X0149442Y0179621D01*
X0149592Y0179440D01*
X0149737Y0179256D01*
X0149878Y0179068D01*
X0150014Y0178877D01*
X0150145Y0178682D01*
X0150272Y0178485D01*
X0150394Y0178284D01*
X0150511Y0178081D01*
X0150623Y0177874D01*
X0150730Y0177666D01*
X0150832Y0177454D01*
X0150928Y0177240D01*
X0151020Y0177024D01*
X0151106Y0176806D01*
X0151187Y0176585D01*
X0151262Y0176363D01*
X0151332Y0176139D01*
X0151397Y0175914D01*
X0151456Y0175686D01*
X0151509Y0175458D01*
X0151557Y0175228D01*
X0151599Y0174997D01*
X0151636Y0174765D01*
X0151667Y0174533D01*
X0151693Y0174299D01*
X0151712Y0174066D01*
X0151726Y0173831D01*
X0151734Y0173597D01*
X0151737Y0173362D01*
X0151734Y0173127D01*
X0151725Y0172893D01*
X0151710Y0172659D01*
X0151690Y0172425D01*
X0151664Y0172192D01*
X0151633Y0171959D01*
X0151595Y0171727D01*
X0151553Y0171497D01*
X0151504Y0171267D01*
X0151450Y0171039D01*
X0151390Y0170811D01*
X0151325Y0170586D01*
X0151255Y0170362D01*
X0151179Y0170140D01*
X0151098Y0169920D01*
X0151011Y0169702D01*
X0150919Y0169486D01*
X0150822Y0169272D01*
X0150719Y0169061D01*
X0150612Y0168852D01*
X0150499Y0168646D01*
X0150382Y0168443D01*
X0150260Y0168243D01*
X0150132Y0168046D01*
X0150000Y0167852D01*
X0149864Y0167661D01*
X0149722Y0167474D01*
X0149577Y0167290D01*
X0149426Y0167109D01*
X0149272Y0166933D01*
X0149113Y0166760D01*
X0148950Y0166591D01*
X0148783Y0166426D01*
X0148612Y0166265D01*
X0148437Y0166109D01*
X0148259Y0165956D01*
X0148076Y0165809D01*
X0147891Y0165665D01*
X0147701Y0165526D01*
X0147509Y0165392D01*
X0147313Y0165263D01*
X0147114Y0165138D01*
X0146912Y0165018D01*
X0146708Y0164903D01*
X0146500Y0164794D01*
X0146290Y0164689D01*
X0146078Y0164589D01*
X0145863Y0164495D01*
X0145646Y0164406D01*
X0135016Y0163126D02*
X0131866Y0166276D01*
X0138756Y0164307D02*
X0138537Y0164391D01*
X0138320Y0164481D01*
X0138106Y0164576D01*
X0137893Y0164676D01*
X0137684Y0164781D01*
X0137476Y0164892D01*
X0137272Y0165007D01*
X0137070Y0165127D01*
X0136872Y0165253D01*
X0136677Y0165383D01*
X0136484Y0165517D01*
X0136295Y0165657D01*
X0136110Y0165800D01*
X0135928Y0165949D01*
X0135750Y0166101D01*
X0135575Y0166258D01*
X0135405Y0166420D01*
X0135238Y0166585D01*
X0135076Y0166754D01*
X0134917Y0166927D01*
X0134763Y0167104D01*
X0134613Y0167285D01*
X0134468Y0167469D01*
X0134327Y0167657D01*
X0134191Y0167848D01*
X0134060Y0168043D01*
X0133933Y0168240D01*
X0133811Y0168441D01*
X0133694Y0168644D01*
X0133582Y0168851D01*
X0133475Y0169059D01*
X0133373Y0169271D01*
X0133277Y0169485D01*
X0133185Y0169701D01*
X0133099Y0169919D01*
X0133018Y0170140D01*
X0132943Y0170362D01*
X0132873Y0170586D01*
X0132808Y0170811D01*
X0132749Y0171039D01*
X0132696Y0171267D01*
X0132648Y0171497D01*
X0132606Y0171728D01*
X0132569Y0171960D01*
X0132538Y0172192D01*
X0132512Y0172426D01*
X0132493Y0172659D01*
X0132479Y0172894D01*
X0132471Y0173128D01*
X0132468Y0173363D01*
X0132471Y0173598D01*
X0132480Y0173832D01*
X0132495Y0174066D01*
X0132515Y0174300D01*
X0132541Y0174533D01*
X0132572Y0174766D01*
X0132610Y0174998D01*
X0132652Y0175228D01*
X0132701Y0175458D01*
X0132755Y0175686D01*
X0132815Y0175914D01*
X0132880Y0176139D01*
X0132950Y0176363D01*
X0133026Y0176585D01*
X0133107Y0176805D01*
X0133194Y0177023D01*
X0133286Y0177239D01*
X0133383Y0177453D01*
X0133486Y0177664D01*
X0133593Y0177873D01*
X0133706Y0178079D01*
X0133823Y0178282D01*
X0133945Y0178482D01*
X0134073Y0178679D01*
X0134205Y0178873D01*
X0134341Y0179064D01*
X0134483Y0179251D01*
X0134628Y0179435D01*
X0134779Y0179616D01*
X0134933Y0179792D01*
X0135092Y0179965D01*
X0135255Y0180134D01*
X0135422Y0180299D01*
X0135593Y0180460D01*
X0135768Y0180616D01*
X0135946Y0180769D01*
X0136129Y0180916D01*
X0136314Y0181060D01*
X0136504Y0181199D01*
X0136696Y0181333D01*
X0136892Y0181462D01*
X0137091Y0181587D01*
X0137293Y0181707D01*
X0137497Y0181822D01*
X0137705Y0181931D01*
X0137915Y0182036D01*
X0138127Y0182136D01*
X0138342Y0182230D01*
X0138559Y0182319D01*
X0117752Y0153598D02*
X0117667Y0153884D01*
X0117576Y0154167D01*
X0117477Y0154448D01*
X0117372Y0154726D01*
X0117260Y0155002D01*
X0117141Y0155275D01*
X0117015Y0155545D01*
X0116883Y0155811D01*
X0116745Y0156075D01*
X0116600Y0156335D01*
X0116448Y0156591D01*
X0116291Y0156844D01*
X0116127Y0157092D01*
X0115958Y0157337D01*
X0115782Y0157577D01*
X0115601Y0157813D01*
X0115414Y0158045D01*
X0115221Y0158272D01*
X0115023Y0158494D01*
X0114820Y0158711D01*
X0114611Y0158923D01*
X0114397Y0159130D01*
X0114178Y0159332D01*
X0113955Y0159528D01*
X0113726Y0159719D01*
X0113493Y0159904D01*
X0113256Y0160084D01*
X0113014Y0160257D01*
X0112768Y0160425D01*
X0112518Y0160586D01*
X0112264Y0160742D01*
X0112006Y0160891D01*
X0111745Y0161034D01*
X0111481Y0161170D01*
X0111213Y0161300D01*
X0110942Y0161423D01*
X0110668Y0161540D01*
X0110392Y0161650D01*
X0110112Y0161753D01*
X0109831Y0161849D01*
X0109547Y0161938D01*
X0109261Y0162021D01*
X0108973Y0162096D01*
X0108683Y0162165D01*
X0108392Y0162226D01*
X0108099Y0162280D01*
X0107805Y0162327D01*
X0107510Y0162367D01*
X0107215Y0162399D01*
X0106918Y0162425D01*
X0106621Y0162443D01*
X0106323Y0162453D01*
X0106026Y0162457D01*
X0105728Y0162453D01*
X0105431Y0162442D01*
X0105134Y0162424D01*
X0104837Y0162398D01*
X0104541Y0162366D01*
X0104246Y0162326D01*
X0103953Y0162279D01*
X0103660Y0162224D01*
X0103369Y0162163D01*
X0103079Y0162094D01*
X0102791Y0162019D01*
X0102505Y0161936D01*
X0102221Y0161847D01*
X0101940Y0161750D01*
X0101661Y0161647D01*
X0101384Y0161537D01*
X0101110Y0161420D01*
X0100840Y0161296D01*
X0100572Y0161166D01*
X0100307Y0161030D01*
X0100046Y0160887D01*
X0099789Y0160737D01*
X0099535Y0160582D01*
X0099285Y0160420D01*
X0099040Y0160252D01*
X0098798Y0160079D01*
X0098560Y0159899D01*
X0098328Y0159714D01*
X0098099Y0159523D01*
X0097876Y0159326D01*
X0097657Y0159124D01*
X0097443Y0158917D01*
X0097235Y0158705D01*
X0097031Y0158488D01*
X0096833Y0158265D01*
X0096641Y0158038D01*
X0096454Y0157807D01*
X0096273Y0157571D01*
X0096097Y0157330D01*
X0095928Y0157085D01*
X0095765Y0156837D01*
X0095607Y0156584D01*
X0095456Y0156328D01*
X0095311Y0156067D01*
X0095173Y0155804D01*
X0095041Y0155537D01*
X0094916Y0155267D01*
X0094797Y0154994D01*
X0094685Y0154718D01*
X0094580Y0154440D01*
X0094482Y0154159D01*
X0094390Y0153876D01*
X0094306Y0153591D01*
X0094228Y0153303D01*
X0094327Y0146906D02*
X0094412Y0146620D01*
X0094503Y0146337D01*
X0094602Y0146056D01*
X0094707Y0145778D01*
X0094819Y0145502D01*
X0094938Y0145229D01*
X0095064Y0144959D01*
X0095196Y0144693D01*
X0095334Y0144429D01*
X0095479Y0144169D01*
X0095631Y0143913D01*
X0095788Y0143660D01*
X0095952Y0143412D01*
X0096121Y0143167D01*
X0096297Y0142927D01*
X0096478Y0142691D01*
X0096665Y0142459D01*
X0096858Y0142232D01*
X0097056Y0142010D01*
X0097259Y0141793D01*
X0097468Y0141581D01*
X0097682Y0141374D01*
X0097901Y0141172D01*
X0098124Y0140976D01*
X0098353Y0140785D01*
X0098586Y0140600D01*
X0098823Y0140420D01*
X0099065Y0140247D01*
X0099311Y0140079D01*
X0099561Y0139918D01*
X0099815Y0139762D01*
X0100073Y0139613D01*
X0100334Y0139470D01*
X0100598Y0139334D01*
X0100866Y0139204D01*
X0101137Y0139081D01*
X0101411Y0138964D01*
X0101687Y0138854D01*
X0101967Y0138751D01*
X0102248Y0138655D01*
X0102532Y0138566D01*
X0102818Y0138483D01*
X0103106Y0138408D01*
X0103396Y0138339D01*
X0103687Y0138278D01*
X0103980Y0138224D01*
X0104274Y0138177D01*
X0104569Y0138137D01*
X0104864Y0138105D01*
X0105161Y0138079D01*
X0105458Y0138061D01*
X0105756Y0138051D01*
X0106053Y0138047D01*
X0106351Y0138051D01*
X0106648Y0138062D01*
X0106945Y0138080D01*
X0107242Y0138106D01*
X0107538Y0138138D01*
X0107833Y0138178D01*
X0108126Y0138225D01*
X0108419Y0138280D01*
X0108710Y0138341D01*
X0109000Y0138410D01*
X0109288Y0138485D01*
X0109574Y0138568D01*
X0109858Y0138657D01*
X0110139Y0138754D01*
X0110418Y0138857D01*
X0110695Y0138967D01*
X0110969Y0139084D01*
X0111239Y0139208D01*
X0111507Y0139338D01*
X0111772Y0139474D01*
X0112033Y0139617D01*
X0112290Y0139767D01*
X0112544Y0139922D01*
X0112794Y0140084D01*
X0113039Y0140252D01*
X0113281Y0140425D01*
X0113519Y0140605D01*
X0113751Y0140790D01*
X0113980Y0140981D01*
X0114203Y0141178D01*
X0114422Y0141380D01*
X0114636Y0141587D01*
X0114844Y0141799D01*
X0115048Y0142016D01*
X0115246Y0142239D01*
X0115438Y0142466D01*
X0115625Y0142697D01*
X0115806Y0142933D01*
X0115982Y0143174D01*
X0116151Y0143419D01*
X0116314Y0143667D01*
X0116472Y0143920D01*
X0116623Y0144176D01*
X0116768Y0144437D01*
X0116906Y0144700D01*
X0117038Y0144967D01*
X0117163Y0145237D01*
X0117282Y0145510D01*
X0117394Y0145786D01*
X0117499Y0146064D01*
X0117597Y0146345D01*
X0117689Y0146628D01*
X0117773Y0146913D01*
X0117851Y0147201D01*
D14*
X0127142Y0151945D02*
X0140528Y0151945D01*
X0140528Y0125173D01*
X0127142Y0125173D01*
X0127142Y0151945D01*
X0162535Y0141906D02*
X0162535Y0174386D01*
X0195016Y0174386D01*
X0195016Y0141906D01*
X0162535Y0141906D01*
X0220500Y0145673D02*
X0220500Y0136618D01*
X0236051Y0136618D01*
X0236051Y0145673D01*
X0220500Y0145673D01*
X0220500Y0127461D02*
X0220500Y0118406D01*
X0236051Y0118406D01*
X0236051Y0127461D01*
X0220500Y0127461D01*
X0220000Y0085173D02*
X0220000Y0076118D01*
X0235551Y0076118D01*
X0235551Y0085173D01*
X0220000Y0085173D01*
X0223000Y0176618D02*
X0223000Y0185673D01*
X0238551Y0185673D01*
X0238551Y0176618D01*
X0223000Y0176618D01*
X0223500Y0198118D02*
X0223500Y0207173D01*
X0239051Y0207173D01*
X0239051Y0198118D01*
X0223500Y0198118D01*
X0224000Y0237118D02*
X0224000Y0246173D01*
X0239551Y0246173D01*
X0239551Y0237118D01*
X0224000Y0237118D01*
D15*
X0228429Y0239087D02*
X0235122Y0239087D01*
X0235122Y0244205D02*
X0225083Y0244205D01*
X0224583Y0205205D02*
X0234622Y0205205D01*
X0234622Y0200087D02*
X0227929Y0200087D01*
X0224083Y0183705D02*
X0234122Y0183705D01*
X0234122Y0178587D02*
X0227429Y0178587D01*
X0231622Y0143705D02*
X0221583Y0143705D01*
X0224929Y0138587D02*
X0231622Y0138587D01*
X0231622Y0125492D02*
X0221583Y0125492D01*
X0224929Y0120374D02*
X0231622Y0120374D01*
X0231122Y0083205D02*
X0221083Y0083205D01*
X0224429Y0078087D02*
X0231122Y0078087D01*
X0138906Y0128567D02*
X0138906Y0149681D01*
X0128764Y0148551D02*
X0128764Y0128567D01*
X0108717Y0170173D02*
X0093756Y0170173D01*
X0078795Y0176563D02*
X0078795Y0218917D01*
X0093756Y0225291D02*
X0108717Y0225291D01*
X0108717Y0216240D01*
X0108717Y0178902D02*
X0108717Y0170173D01*
D16*
X0113798Y0227933D02*
X0113800Y0227993D01*
X0113806Y0228054D01*
X0113816Y0228113D01*
X0113829Y0228172D01*
X0113847Y0228230D01*
X0113868Y0228287D01*
X0113892Y0228342D01*
X0113921Y0228396D01*
X0113952Y0228447D01*
X0113987Y0228497D01*
X0114025Y0228544D01*
X0114066Y0228588D01*
X0114110Y0228630D01*
X0114156Y0228669D01*
X0114205Y0228704D01*
X0114256Y0228737D01*
X0114309Y0228766D01*
X0114364Y0228791D01*
X0114420Y0228814D01*
X0114478Y0228832D01*
X0114537Y0228846D01*
X0114596Y0228857D01*
X0114656Y0228864D01*
X0114717Y0228867D01*
X0114777Y0228866D01*
X0114838Y0228861D01*
X0114897Y0228852D01*
X0114957Y0228840D01*
X0115015Y0228823D01*
X0115072Y0228803D01*
X0115127Y0228779D01*
X0115181Y0228752D01*
X0115233Y0228721D01*
X0115283Y0228687D01*
X0115331Y0228650D01*
X0115376Y0228609D01*
X0115419Y0228566D01*
X0115458Y0228520D01*
X0115495Y0228472D01*
X0115528Y0228422D01*
X0115558Y0228369D01*
X0115584Y0228315D01*
X0115607Y0228259D01*
X0115627Y0228201D01*
X0115642Y0228143D01*
X0115654Y0228084D01*
X0115662Y0228024D01*
X0115666Y0227963D01*
X0115666Y0227903D01*
X0115662Y0227842D01*
X0115654Y0227782D01*
X0115642Y0227723D01*
X0115627Y0227665D01*
X0115607Y0227607D01*
X0115584Y0227551D01*
X0115558Y0227497D01*
X0115528Y0227444D01*
X0115495Y0227394D01*
X0115458Y0227346D01*
X0115419Y0227300D01*
X0115376Y0227257D01*
X0115331Y0227216D01*
X0115283Y0227179D01*
X0115233Y0227145D01*
X0115181Y0227114D01*
X0115127Y0227087D01*
X0115072Y0227063D01*
X0115015Y0227043D01*
X0114957Y0227026D01*
X0114897Y0227014D01*
X0114838Y0227005D01*
X0114777Y0227000D01*
X0114717Y0226999D01*
X0114656Y0227002D01*
X0114596Y0227009D01*
X0114537Y0227020D01*
X0114478Y0227034D01*
X0114420Y0227052D01*
X0114364Y0227075D01*
X0114309Y0227100D01*
X0114256Y0227129D01*
X0114205Y0227162D01*
X0114156Y0227197D01*
X0114110Y0227236D01*
X0114066Y0227278D01*
X0114025Y0227322D01*
X0113987Y0227369D01*
X0113952Y0227419D01*
X0113921Y0227470D01*
X0113892Y0227524D01*
X0113868Y0227579D01*
X0113847Y0227636D01*
X0113829Y0227694D01*
X0113816Y0227753D01*
X0113806Y0227812D01*
X0113800Y0227873D01*
X0113798Y0227933D01*
D17*
X0122252Y0219244D02*
X0128252Y0219244D01*
X0128312Y0219242D01*
X0128373Y0219237D01*
X0128432Y0219228D01*
X0128491Y0219215D01*
X0128550Y0219199D01*
X0128607Y0219179D01*
X0128662Y0219156D01*
X0128717Y0219129D01*
X0128769Y0219100D01*
X0128820Y0219067D01*
X0128869Y0219031D01*
X0128915Y0218993D01*
X0128959Y0218951D01*
X0129001Y0218907D01*
X0129039Y0218861D01*
X0129075Y0218812D01*
X0129108Y0218761D01*
X0129137Y0218709D01*
X0129164Y0218654D01*
X0129187Y0218599D01*
X0129207Y0218542D01*
X0129223Y0218483D01*
X0129236Y0218424D01*
X0129245Y0218365D01*
X0129250Y0218304D01*
X0129252Y0218244D01*
X0129252Y0208244D01*
X0129250Y0208184D01*
X0129245Y0208123D01*
X0129236Y0208064D01*
X0129223Y0208005D01*
X0129207Y0207946D01*
X0129187Y0207889D01*
X0129164Y0207834D01*
X0129137Y0207779D01*
X0129108Y0207727D01*
X0129075Y0207676D01*
X0129039Y0207627D01*
X0129001Y0207581D01*
X0128959Y0207537D01*
X0128915Y0207495D01*
X0128869Y0207457D01*
X0128820Y0207421D01*
X0128769Y0207388D01*
X0128717Y0207359D01*
X0128662Y0207332D01*
X0128607Y0207309D01*
X0128550Y0207289D01*
X0128491Y0207273D01*
X0128432Y0207260D01*
X0128373Y0207251D01*
X0128312Y0207246D01*
X0128252Y0207244D01*
X0122252Y0207244D01*
X0122192Y0207246D01*
X0122131Y0207251D01*
X0122072Y0207260D01*
X0122013Y0207273D01*
X0121954Y0207289D01*
X0121897Y0207309D01*
X0121842Y0207332D01*
X0121787Y0207359D01*
X0121735Y0207388D01*
X0121684Y0207421D01*
X0121635Y0207457D01*
X0121589Y0207495D01*
X0121545Y0207537D01*
X0121503Y0207581D01*
X0121465Y0207627D01*
X0121429Y0207676D01*
X0121396Y0207727D01*
X0121367Y0207779D01*
X0121340Y0207834D01*
X0121317Y0207889D01*
X0121297Y0207946D01*
X0121281Y0208005D01*
X0121268Y0208064D01*
X0121259Y0208123D01*
X0121254Y0208184D01*
X0121252Y0208244D01*
X0121252Y0218244D01*
X0121254Y0218304D01*
X0121259Y0218365D01*
X0121268Y0218424D01*
X0121281Y0218483D01*
X0121297Y0218542D01*
X0121317Y0218599D01*
X0121340Y0218654D01*
X0121367Y0218709D01*
X0121396Y0218761D01*
X0121429Y0218812D01*
X0121465Y0218861D01*
X0121503Y0218907D01*
X0121545Y0218951D01*
X0121589Y0218993D01*
X0121635Y0219031D01*
X0121684Y0219067D01*
X0121735Y0219100D01*
X0121787Y0219129D01*
X0121842Y0219156D01*
X0121897Y0219179D01*
X0121954Y0219199D01*
X0122013Y0219215D01*
X0122072Y0219228D01*
X0122131Y0219237D01*
X0122192Y0219242D01*
X0122252Y0219244D01*
D18*
X0162929Y0171925D02*
X0162931Y0171969D01*
X0162937Y0172013D01*
X0162947Y0172056D01*
X0162960Y0172098D01*
X0162978Y0172138D01*
X0162999Y0172177D01*
X0163023Y0172214D01*
X0163050Y0172249D01*
X0163081Y0172281D01*
X0163114Y0172310D01*
X0163150Y0172336D01*
X0163188Y0172358D01*
X0163228Y0172377D01*
X0163269Y0172393D01*
X0163312Y0172405D01*
X0163355Y0172413D01*
X0163399Y0172417D01*
X0163443Y0172417D01*
X0163487Y0172413D01*
X0163530Y0172405D01*
X0163573Y0172393D01*
X0163614Y0172377D01*
X0163654Y0172358D01*
X0163692Y0172336D01*
X0163728Y0172310D01*
X0163761Y0172281D01*
X0163792Y0172249D01*
X0163819Y0172214D01*
X0163843Y0172177D01*
X0163864Y0172138D01*
X0163882Y0172098D01*
X0163895Y0172056D01*
X0163905Y0172013D01*
X0163911Y0171969D01*
X0163913Y0171925D01*
X0163911Y0171881D01*
X0163905Y0171837D01*
X0163895Y0171794D01*
X0163882Y0171752D01*
X0163864Y0171712D01*
X0163843Y0171673D01*
X0163819Y0171636D01*
X0163792Y0171601D01*
X0163761Y0171569D01*
X0163728Y0171540D01*
X0163692Y0171514D01*
X0163654Y0171492D01*
X0163614Y0171473D01*
X0163573Y0171457D01*
X0163530Y0171445D01*
X0163487Y0171437D01*
X0163443Y0171433D01*
X0163399Y0171433D01*
X0163355Y0171437D01*
X0163312Y0171445D01*
X0163269Y0171457D01*
X0163228Y0171473D01*
X0163188Y0171492D01*
X0163150Y0171514D01*
X0163114Y0171540D01*
X0163081Y0171569D01*
X0163050Y0171601D01*
X0163023Y0171636D01*
X0162999Y0171673D01*
X0162978Y0171712D01*
X0162960Y0171752D01*
X0162947Y0171794D01*
X0162937Y0171837D01*
X0162931Y0171881D01*
X0162929Y0171925D01*
D19*
X0154898Y0150252D02*
X0154898Y0138441D01*
X0143087Y0138441D02*
X0143087Y0150252D01*
D20*
X0142516Y0228087D02*
X0140016Y0230587D01*
X0140016Y0245587D01*
X0137516Y0248087D01*
X0132516Y0248087D01*
X0130016Y0245587D01*
X0130016Y0230587D01*
X0127516Y0228087D01*
X0122516Y0228087D01*
X0120016Y0230587D01*
X0120016Y0245587D01*
X0122516Y0248087D01*
X0127516Y0248087D01*
X0130016Y0245587D01*
X0140016Y0245587D02*
X0142516Y0248087D01*
X0147516Y0248087D01*
X0150016Y0245587D01*
X0150016Y0230587D01*
X0147516Y0228087D01*
X0142516Y0228087D01*
X0140016Y0230587D02*
X0137516Y0228087D01*
X0132516Y0228087D01*
X0130016Y0230587D01*
X0150016Y0230587D02*
X0152516Y0228087D01*
X0157516Y0228087D01*
X0160016Y0230587D01*
X0160016Y0245587D01*
X0157516Y0248087D01*
X0152516Y0248087D01*
X0150016Y0245587D01*
X0160016Y0245587D02*
X0162516Y0248087D01*
X0167516Y0248087D01*
X0170016Y0245587D01*
X0170016Y0230587D01*
X0167516Y0228087D01*
X0162516Y0228087D01*
X0160016Y0230587D01*
X0170016Y0230587D02*
X0172516Y0228087D01*
X0177516Y0228087D01*
X0180016Y0230587D01*
X0180016Y0245587D01*
X0177516Y0248087D01*
X0180016Y0245587D01*
X0180016Y0230587D01*
X0177516Y0228087D01*
X0180016Y0230587D01*
X0180016Y0245587D01*
X0177516Y0248087D01*
X0172516Y0248087D01*
X0170016Y0245587D01*
X0172516Y0249587D02*
X0177516Y0249587D01*
M02*
