G75*
%MOIN*%
%OFA0B0*%
%FSLAX25Y25*%
%IPPOS*%
%LPD*%
%AMOC8*
5,1,8,0,0,1.08239X$1,22.5*
%
%ADD10C,0.00000*%
%ADD11C,0.03937*%
%ADD12C,0.10039*%
%ADD13C,0.05906*%
%ADD14C,0.07400*%
%ADD15C,0.03150*%
%ADD16C,0.01181*%
%ADD17C,0.00600*%
D10*
X0076394Y0056709D02*
X0076394Y0253559D01*
X0371669Y0253559D01*
X0371669Y0056709D01*
X0076394Y0056709D01*
X0081906Y0068520D02*
X0081908Y0068678D01*
X0081914Y0068836D01*
X0081924Y0068994D01*
X0081938Y0069152D01*
X0081956Y0069309D01*
X0081977Y0069466D01*
X0082003Y0069622D01*
X0082033Y0069778D01*
X0082066Y0069933D01*
X0082104Y0070086D01*
X0082145Y0070239D01*
X0082190Y0070391D01*
X0082239Y0070542D01*
X0082292Y0070691D01*
X0082348Y0070839D01*
X0082408Y0070985D01*
X0082472Y0071130D01*
X0082540Y0071273D01*
X0082611Y0071415D01*
X0082685Y0071555D01*
X0082763Y0071692D01*
X0082845Y0071828D01*
X0082929Y0071962D01*
X0083018Y0072093D01*
X0083109Y0072222D01*
X0083204Y0072349D01*
X0083301Y0072474D01*
X0083402Y0072596D01*
X0083506Y0072715D01*
X0083613Y0072832D01*
X0083723Y0072946D01*
X0083836Y0073057D01*
X0083951Y0073166D01*
X0084069Y0073271D01*
X0084190Y0073373D01*
X0084313Y0073473D01*
X0084439Y0073569D01*
X0084567Y0073662D01*
X0084697Y0073752D01*
X0084830Y0073838D01*
X0084965Y0073922D01*
X0085101Y0074001D01*
X0085240Y0074078D01*
X0085381Y0074150D01*
X0085523Y0074220D01*
X0085667Y0074285D01*
X0085813Y0074347D01*
X0085960Y0074405D01*
X0086109Y0074460D01*
X0086259Y0074511D01*
X0086410Y0074558D01*
X0086562Y0074601D01*
X0086715Y0074640D01*
X0086870Y0074676D01*
X0087025Y0074707D01*
X0087181Y0074735D01*
X0087337Y0074759D01*
X0087494Y0074779D01*
X0087652Y0074795D01*
X0087809Y0074807D01*
X0087968Y0074815D01*
X0088126Y0074819D01*
X0088284Y0074819D01*
X0088442Y0074815D01*
X0088601Y0074807D01*
X0088758Y0074795D01*
X0088916Y0074779D01*
X0089073Y0074759D01*
X0089229Y0074735D01*
X0089385Y0074707D01*
X0089540Y0074676D01*
X0089695Y0074640D01*
X0089848Y0074601D01*
X0090000Y0074558D01*
X0090151Y0074511D01*
X0090301Y0074460D01*
X0090450Y0074405D01*
X0090597Y0074347D01*
X0090743Y0074285D01*
X0090887Y0074220D01*
X0091029Y0074150D01*
X0091170Y0074078D01*
X0091309Y0074001D01*
X0091445Y0073922D01*
X0091580Y0073838D01*
X0091713Y0073752D01*
X0091843Y0073662D01*
X0091971Y0073569D01*
X0092097Y0073473D01*
X0092220Y0073373D01*
X0092341Y0073271D01*
X0092459Y0073166D01*
X0092574Y0073057D01*
X0092687Y0072946D01*
X0092797Y0072832D01*
X0092904Y0072715D01*
X0093008Y0072596D01*
X0093109Y0072474D01*
X0093206Y0072349D01*
X0093301Y0072222D01*
X0093392Y0072093D01*
X0093481Y0071962D01*
X0093565Y0071828D01*
X0093647Y0071692D01*
X0093725Y0071555D01*
X0093799Y0071415D01*
X0093870Y0071273D01*
X0093938Y0071130D01*
X0094002Y0070985D01*
X0094062Y0070839D01*
X0094118Y0070691D01*
X0094171Y0070542D01*
X0094220Y0070391D01*
X0094265Y0070239D01*
X0094306Y0070086D01*
X0094344Y0069933D01*
X0094377Y0069778D01*
X0094407Y0069622D01*
X0094433Y0069466D01*
X0094454Y0069309D01*
X0094472Y0069152D01*
X0094486Y0068994D01*
X0094496Y0068836D01*
X0094502Y0068678D01*
X0094504Y0068520D01*
X0094502Y0068362D01*
X0094496Y0068204D01*
X0094486Y0068046D01*
X0094472Y0067888D01*
X0094454Y0067731D01*
X0094433Y0067574D01*
X0094407Y0067418D01*
X0094377Y0067262D01*
X0094344Y0067107D01*
X0094306Y0066954D01*
X0094265Y0066801D01*
X0094220Y0066649D01*
X0094171Y0066498D01*
X0094118Y0066349D01*
X0094062Y0066201D01*
X0094002Y0066055D01*
X0093938Y0065910D01*
X0093870Y0065767D01*
X0093799Y0065625D01*
X0093725Y0065485D01*
X0093647Y0065348D01*
X0093565Y0065212D01*
X0093481Y0065078D01*
X0093392Y0064947D01*
X0093301Y0064818D01*
X0093206Y0064691D01*
X0093109Y0064566D01*
X0093008Y0064444D01*
X0092904Y0064325D01*
X0092797Y0064208D01*
X0092687Y0064094D01*
X0092574Y0063983D01*
X0092459Y0063874D01*
X0092341Y0063769D01*
X0092220Y0063667D01*
X0092097Y0063567D01*
X0091971Y0063471D01*
X0091843Y0063378D01*
X0091713Y0063288D01*
X0091580Y0063202D01*
X0091445Y0063118D01*
X0091309Y0063039D01*
X0091170Y0062962D01*
X0091029Y0062890D01*
X0090887Y0062820D01*
X0090743Y0062755D01*
X0090597Y0062693D01*
X0090450Y0062635D01*
X0090301Y0062580D01*
X0090151Y0062529D01*
X0090000Y0062482D01*
X0089848Y0062439D01*
X0089695Y0062400D01*
X0089540Y0062364D01*
X0089385Y0062333D01*
X0089229Y0062305D01*
X0089073Y0062281D01*
X0088916Y0062261D01*
X0088758Y0062245D01*
X0088601Y0062233D01*
X0088442Y0062225D01*
X0088284Y0062221D01*
X0088126Y0062221D01*
X0087968Y0062225D01*
X0087809Y0062233D01*
X0087652Y0062245D01*
X0087494Y0062261D01*
X0087337Y0062281D01*
X0087181Y0062305D01*
X0087025Y0062333D01*
X0086870Y0062364D01*
X0086715Y0062400D01*
X0086562Y0062439D01*
X0086410Y0062482D01*
X0086259Y0062529D01*
X0086109Y0062580D01*
X0085960Y0062635D01*
X0085813Y0062693D01*
X0085667Y0062755D01*
X0085523Y0062820D01*
X0085381Y0062890D01*
X0085240Y0062962D01*
X0085101Y0063039D01*
X0084965Y0063118D01*
X0084830Y0063202D01*
X0084697Y0063288D01*
X0084567Y0063378D01*
X0084439Y0063471D01*
X0084313Y0063567D01*
X0084190Y0063667D01*
X0084069Y0063769D01*
X0083951Y0063874D01*
X0083836Y0063983D01*
X0083723Y0064094D01*
X0083613Y0064208D01*
X0083506Y0064325D01*
X0083402Y0064444D01*
X0083301Y0064566D01*
X0083204Y0064691D01*
X0083109Y0064818D01*
X0083018Y0064947D01*
X0082929Y0065078D01*
X0082845Y0065212D01*
X0082763Y0065348D01*
X0082685Y0065485D01*
X0082611Y0065625D01*
X0082540Y0065767D01*
X0082472Y0065910D01*
X0082408Y0066055D01*
X0082348Y0066201D01*
X0082292Y0066349D01*
X0082239Y0066498D01*
X0082190Y0066649D01*
X0082145Y0066801D01*
X0082104Y0066954D01*
X0082066Y0067107D01*
X0082033Y0067262D01*
X0082003Y0067418D01*
X0081977Y0067574D01*
X0081956Y0067731D01*
X0081938Y0067888D01*
X0081924Y0068046D01*
X0081914Y0068204D01*
X0081908Y0068362D01*
X0081906Y0068520D01*
X0081906Y0241748D02*
X0081908Y0241906D01*
X0081914Y0242064D01*
X0081924Y0242222D01*
X0081938Y0242380D01*
X0081956Y0242537D01*
X0081977Y0242694D01*
X0082003Y0242850D01*
X0082033Y0243006D01*
X0082066Y0243161D01*
X0082104Y0243314D01*
X0082145Y0243467D01*
X0082190Y0243619D01*
X0082239Y0243770D01*
X0082292Y0243919D01*
X0082348Y0244067D01*
X0082408Y0244213D01*
X0082472Y0244358D01*
X0082540Y0244501D01*
X0082611Y0244643D01*
X0082685Y0244783D01*
X0082763Y0244920D01*
X0082845Y0245056D01*
X0082929Y0245190D01*
X0083018Y0245321D01*
X0083109Y0245450D01*
X0083204Y0245577D01*
X0083301Y0245702D01*
X0083402Y0245824D01*
X0083506Y0245943D01*
X0083613Y0246060D01*
X0083723Y0246174D01*
X0083836Y0246285D01*
X0083951Y0246394D01*
X0084069Y0246499D01*
X0084190Y0246601D01*
X0084313Y0246701D01*
X0084439Y0246797D01*
X0084567Y0246890D01*
X0084697Y0246980D01*
X0084830Y0247066D01*
X0084965Y0247150D01*
X0085101Y0247229D01*
X0085240Y0247306D01*
X0085381Y0247378D01*
X0085523Y0247448D01*
X0085667Y0247513D01*
X0085813Y0247575D01*
X0085960Y0247633D01*
X0086109Y0247688D01*
X0086259Y0247739D01*
X0086410Y0247786D01*
X0086562Y0247829D01*
X0086715Y0247868D01*
X0086870Y0247904D01*
X0087025Y0247935D01*
X0087181Y0247963D01*
X0087337Y0247987D01*
X0087494Y0248007D01*
X0087652Y0248023D01*
X0087809Y0248035D01*
X0087968Y0248043D01*
X0088126Y0248047D01*
X0088284Y0248047D01*
X0088442Y0248043D01*
X0088601Y0248035D01*
X0088758Y0248023D01*
X0088916Y0248007D01*
X0089073Y0247987D01*
X0089229Y0247963D01*
X0089385Y0247935D01*
X0089540Y0247904D01*
X0089695Y0247868D01*
X0089848Y0247829D01*
X0090000Y0247786D01*
X0090151Y0247739D01*
X0090301Y0247688D01*
X0090450Y0247633D01*
X0090597Y0247575D01*
X0090743Y0247513D01*
X0090887Y0247448D01*
X0091029Y0247378D01*
X0091170Y0247306D01*
X0091309Y0247229D01*
X0091445Y0247150D01*
X0091580Y0247066D01*
X0091713Y0246980D01*
X0091843Y0246890D01*
X0091971Y0246797D01*
X0092097Y0246701D01*
X0092220Y0246601D01*
X0092341Y0246499D01*
X0092459Y0246394D01*
X0092574Y0246285D01*
X0092687Y0246174D01*
X0092797Y0246060D01*
X0092904Y0245943D01*
X0093008Y0245824D01*
X0093109Y0245702D01*
X0093206Y0245577D01*
X0093301Y0245450D01*
X0093392Y0245321D01*
X0093481Y0245190D01*
X0093565Y0245056D01*
X0093647Y0244920D01*
X0093725Y0244783D01*
X0093799Y0244643D01*
X0093870Y0244501D01*
X0093938Y0244358D01*
X0094002Y0244213D01*
X0094062Y0244067D01*
X0094118Y0243919D01*
X0094171Y0243770D01*
X0094220Y0243619D01*
X0094265Y0243467D01*
X0094306Y0243314D01*
X0094344Y0243161D01*
X0094377Y0243006D01*
X0094407Y0242850D01*
X0094433Y0242694D01*
X0094454Y0242537D01*
X0094472Y0242380D01*
X0094486Y0242222D01*
X0094496Y0242064D01*
X0094502Y0241906D01*
X0094504Y0241748D01*
X0094502Y0241590D01*
X0094496Y0241432D01*
X0094486Y0241274D01*
X0094472Y0241116D01*
X0094454Y0240959D01*
X0094433Y0240802D01*
X0094407Y0240646D01*
X0094377Y0240490D01*
X0094344Y0240335D01*
X0094306Y0240182D01*
X0094265Y0240029D01*
X0094220Y0239877D01*
X0094171Y0239726D01*
X0094118Y0239577D01*
X0094062Y0239429D01*
X0094002Y0239283D01*
X0093938Y0239138D01*
X0093870Y0238995D01*
X0093799Y0238853D01*
X0093725Y0238713D01*
X0093647Y0238576D01*
X0093565Y0238440D01*
X0093481Y0238306D01*
X0093392Y0238175D01*
X0093301Y0238046D01*
X0093206Y0237919D01*
X0093109Y0237794D01*
X0093008Y0237672D01*
X0092904Y0237553D01*
X0092797Y0237436D01*
X0092687Y0237322D01*
X0092574Y0237211D01*
X0092459Y0237102D01*
X0092341Y0236997D01*
X0092220Y0236895D01*
X0092097Y0236795D01*
X0091971Y0236699D01*
X0091843Y0236606D01*
X0091713Y0236516D01*
X0091580Y0236430D01*
X0091445Y0236346D01*
X0091309Y0236267D01*
X0091170Y0236190D01*
X0091029Y0236118D01*
X0090887Y0236048D01*
X0090743Y0235983D01*
X0090597Y0235921D01*
X0090450Y0235863D01*
X0090301Y0235808D01*
X0090151Y0235757D01*
X0090000Y0235710D01*
X0089848Y0235667D01*
X0089695Y0235628D01*
X0089540Y0235592D01*
X0089385Y0235561D01*
X0089229Y0235533D01*
X0089073Y0235509D01*
X0088916Y0235489D01*
X0088758Y0235473D01*
X0088601Y0235461D01*
X0088442Y0235453D01*
X0088284Y0235449D01*
X0088126Y0235449D01*
X0087968Y0235453D01*
X0087809Y0235461D01*
X0087652Y0235473D01*
X0087494Y0235489D01*
X0087337Y0235509D01*
X0087181Y0235533D01*
X0087025Y0235561D01*
X0086870Y0235592D01*
X0086715Y0235628D01*
X0086562Y0235667D01*
X0086410Y0235710D01*
X0086259Y0235757D01*
X0086109Y0235808D01*
X0085960Y0235863D01*
X0085813Y0235921D01*
X0085667Y0235983D01*
X0085523Y0236048D01*
X0085381Y0236118D01*
X0085240Y0236190D01*
X0085101Y0236267D01*
X0084965Y0236346D01*
X0084830Y0236430D01*
X0084697Y0236516D01*
X0084567Y0236606D01*
X0084439Y0236699D01*
X0084313Y0236795D01*
X0084190Y0236895D01*
X0084069Y0236997D01*
X0083951Y0237102D01*
X0083836Y0237211D01*
X0083723Y0237322D01*
X0083613Y0237436D01*
X0083506Y0237553D01*
X0083402Y0237672D01*
X0083301Y0237794D01*
X0083204Y0237919D01*
X0083109Y0238046D01*
X0083018Y0238175D01*
X0082929Y0238306D01*
X0082845Y0238440D01*
X0082763Y0238576D01*
X0082685Y0238713D01*
X0082611Y0238853D01*
X0082540Y0238995D01*
X0082472Y0239138D01*
X0082408Y0239283D01*
X0082348Y0239429D01*
X0082292Y0239577D01*
X0082239Y0239726D01*
X0082190Y0239877D01*
X0082145Y0240029D01*
X0082104Y0240182D01*
X0082066Y0240335D01*
X0082033Y0240490D01*
X0082003Y0240646D01*
X0081977Y0240802D01*
X0081956Y0240959D01*
X0081938Y0241116D01*
X0081924Y0241274D01*
X0081914Y0241432D01*
X0081908Y0241590D01*
X0081906Y0241748D01*
X0353559Y0241748D02*
X0353561Y0241906D01*
X0353567Y0242064D01*
X0353577Y0242222D01*
X0353591Y0242380D01*
X0353609Y0242537D01*
X0353630Y0242694D01*
X0353656Y0242850D01*
X0353686Y0243006D01*
X0353719Y0243161D01*
X0353757Y0243314D01*
X0353798Y0243467D01*
X0353843Y0243619D01*
X0353892Y0243770D01*
X0353945Y0243919D01*
X0354001Y0244067D01*
X0354061Y0244213D01*
X0354125Y0244358D01*
X0354193Y0244501D01*
X0354264Y0244643D01*
X0354338Y0244783D01*
X0354416Y0244920D01*
X0354498Y0245056D01*
X0354582Y0245190D01*
X0354671Y0245321D01*
X0354762Y0245450D01*
X0354857Y0245577D01*
X0354954Y0245702D01*
X0355055Y0245824D01*
X0355159Y0245943D01*
X0355266Y0246060D01*
X0355376Y0246174D01*
X0355489Y0246285D01*
X0355604Y0246394D01*
X0355722Y0246499D01*
X0355843Y0246601D01*
X0355966Y0246701D01*
X0356092Y0246797D01*
X0356220Y0246890D01*
X0356350Y0246980D01*
X0356483Y0247066D01*
X0356618Y0247150D01*
X0356754Y0247229D01*
X0356893Y0247306D01*
X0357034Y0247378D01*
X0357176Y0247448D01*
X0357320Y0247513D01*
X0357466Y0247575D01*
X0357613Y0247633D01*
X0357762Y0247688D01*
X0357912Y0247739D01*
X0358063Y0247786D01*
X0358215Y0247829D01*
X0358368Y0247868D01*
X0358523Y0247904D01*
X0358678Y0247935D01*
X0358834Y0247963D01*
X0358990Y0247987D01*
X0359147Y0248007D01*
X0359305Y0248023D01*
X0359462Y0248035D01*
X0359621Y0248043D01*
X0359779Y0248047D01*
X0359937Y0248047D01*
X0360095Y0248043D01*
X0360254Y0248035D01*
X0360411Y0248023D01*
X0360569Y0248007D01*
X0360726Y0247987D01*
X0360882Y0247963D01*
X0361038Y0247935D01*
X0361193Y0247904D01*
X0361348Y0247868D01*
X0361501Y0247829D01*
X0361653Y0247786D01*
X0361804Y0247739D01*
X0361954Y0247688D01*
X0362103Y0247633D01*
X0362250Y0247575D01*
X0362396Y0247513D01*
X0362540Y0247448D01*
X0362682Y0247378D01*
X0362823Y0247306D01*
X0362962Y0247229D01*
X0363098Y0247150D01*
X0363233Y0247066D01*
X0363366Y0246980D01*
X0363496Y0246890D01*
X0363624Y0246797D01*
X0363750Y0246701D01*
X0363873Y0246601D01*
X0363994Y0246499D01*
X0364112Y0246394D01*
X0364227Y0246285D01*
X0364340Y0246174D01*
X0364450Y0246060D01*
X0364557Y0245943D01*
X0364661Y0245824D01*
X0364762Y0245702D01*
X0364859Y0245577D01*
X0364954Y0245450D01*
X0365045Y0245321D01*
X0365134Y0245190D01*
X0365218Y0245056D01*
X0365300Y0244920D01*
X0365378Y0244783D01*
X0365452Y0244643D01*
X0365523Y0244501D01*
X0365591Y0244358D01*
X0365655Y0244213D01*
X0365715Y0244067D01*
X0365771Y0243919D01*
X0365824Y0243770D01*
X0365873Y0243619D01*
X0365918Y0243467D01*
X0365959Y0243314D01*
X0365997Y0243161D01*
X0366030Y0243006D01*
X0366060Y0242850D01*
X0366086Y0242694D01*
X0366107Y0242537D01*
X0366125Y0242380D01*
X0366139Y0242222D01*
X0366149Y0242064D01*
X0366155Y0241906D01*
X0366157Y0241748D01*
X0366155Y0241590D01*
X0366149Y0241432D01*
X0366139Y0241274D01*
X0366125Y0241116D01*
X0366107Y0240959D01*
X0366086Y0240802D01*
X0366060Y0240646D01*
X0366030Y0240490D01*
X0365997Y0240335D01*
X0365959Y0240182D01*
X0365918Y0240029D01*
X0365873Y0239877D01*
X0365824Y0239726D01*
X0365771Y0239577D01*
X0365715Y0239429D01*
X0365655Y0239283D01*
X0365591Y0239138D01*
X0365523Y0238995D01*
X0365452Y0238853D01*
X0365378Y0238713D01*
X0365300Y0238576D01*
X0365218Y0238440D01*
X0365134Y0238306D01*
X0365045Y0238175D01*
X0364954Y0238046D01*
X0364859Y0237919D01*
X0364762Y0237794D01*
X0364661Y0237672D01*
X0364557Y0237553D01*
X0364450Y0237436D01*
X0364340Y0237322D01*
X0364227Y0237211D01*
X0364112Y0237102D01*
X0363994Y0236997D01*
X0363873Y0236895D01*
X0363750Y0236795D01*
X0363624Y0236699D01*
X0363496Y0236606D01*
X0363366Y0236516D01*
X0363233Y0236430D01*
X0363098Y0236346D01*
X0362962Y0236267D01*
X0362823Y0236190D01*
X0362682Y0236118D01*
X0362540Y0236048D01*
X0362396Y0235983D01*
X0362250Y0235921D01*
X0362103Y0235863D01*
X0361954Y0235808D01*
X0361804Y0235757D01*
X0361653Y0235710D01*
X0361501Y0235667D01*
X0361348Y0235628D01*
X0361193Y0235592D01*
X0361038Y0235561D01*
X0360882Y0235533D01*
X0360726Y0235509D01*
X0360569Y0235489D01*
X0360411Y0235473D01*
X0360254Y0235461D01*
X0360095Y0235453D01*
X0359937Y0235449D01*
X0359779Y0235449D01*
X0359621Y0235453D01*
X0359462Y0235461D01*
X0359305Y0235473D01*
X0359147Y0235489D01*
X0358990Y0235509D01*
X0358834Y0235533D01*
X0358678Y0235561D01*
X0358523Y0235592D01*
X0358368Y0235628D01*
X0358215Y0235667D01*
X0358063Y0235710D01*
X0357912Y0235757D01*
X0357762Y0235808D01*
X0357613Y0235863D01*
X0357466Y0235921D01*
X0357320Y0235983D01*
X0357176Y0236048D01*
X0357034Y0236118D01*
X0356893Y0236190D01*
X0356754Y0236267D01*
X0356618Y0236346D01*
X0356483Y0236430D01*
X0356350Y0236516D01*
X0356220Y0236606D01*
X0356092Y0236699D01*
X0355966Y0236795D01*
X0355843Y0236895D01*
X0355722Y0236997D01*
X0355604Y0237102D01*
X0355489Y0237211D01*
X0355376Y0237322D01*
X0355266Y0237436D01*
X0355159Y0237553D01*
X0355055Y0237672D01*
X0354954Y0237794D01*
X0354857Y0237919D01*
X0354762Y0238046D01*
X0354671Y0238175D01*
X0354582Y0238306D01*
X0354498Y0238440D01*
X0354416Y0238576D01*
X0354338Y0238713D01*
X0354264Y0238853D01*
X0354193Y0238995D01*
X0354125Y0239138D01*
X0354061Y0239283D01*
X0354001Y0239429D01*
X0353945Y0239577D01*
X0353892Y0239726D01*
X0353843Y0239877D01*
X0353798Y0240029D01*
X0353757Y0240182D01*
X0353719Y0240335D01*
X0353686Y0240490D01*
X0353656Y0240646D01*
X0353630Y0240802D01*
X0353609Y0240959D01*
X0353591Y0241116D01*
X0353577Y0241274D01*
X0353567Y0241432D01*
X0353561Y0241590D01*
X0353559Y0241748D01*
X0353559Y0068520D02*
X0353561Y0068678D01*
X0353567Y0068836D01*
X0353577Y0068994D01*
X0353591Y0069152D01*
X0353609Y0069309D01*
X0353630Y0069466D01*
X0353656Y0069622D01*
X0353686Y0069778D01*
X0353719Y0069933D01*
X0353757Y0070086D01*
X0353798Y0070239D01*
X0353843Y0070391D01*
X0353892Y0070542D01*
X0353945Y0070691D01*
X0354001Y0070839D01*
X0354061Y0070985D01*
X0354125Y0071130D01*
X0354193Y0071273D01*
X0354264Y0071415D01*
X0354338Y0071555D01*
X0354416Y0071692D01*
X0354498Y0071828D01*
X0354582Y0071962D01*
X0354671Y0072093D01*
X0354762Y0072222D01*
X0354857Y0072349D01*
X0354954Y0072474D01*
X0355055Y0072596D01*
X0355159Y0072715D01*
X0355266Y0072832D01*
X0355376Y0072946D01*
X0355489Y0073057D01*
X0355604Y0073166D01*
X0355722Y0073271D01*
X0355843Y0073373D01*
X0355966Y0073473D01*
X0356092Y0073569D01*
X0356220Y0073662D01*
X0356350Y0073752D01*
X0356483Y0073838D01*
X0356618Y0073922D01*
X0356754Y0074001D01*
X0356893Y0074078D01*
X0357034Y0074150D01*
X0357176Y0074220D01*
X0357320Y0074285D01*
X0357466Y0074347D01*
X0357613Y0074405D01*
X0357762Y0074460D01*
X0357912Y0074511D01*
X0358063Y0074558D01*
X0358215Y0074601D01*
X0358368Y0074640D01*
X0358523Y0074676D01*
X0358678Y0074707D01*
X0358834Y0074735D01*
X0358990Y0074759D01*
X0359147Y0074779D01*
X0359305Y0074795D01*
X0359462Y0074807D01*
X0359621Y0074815D01*
X0359779Y0074819D01*
X0359937Y0074819D01*
X0360095Y0074815D01*
X0360254Y0074807D01*
X0360411Y0074795D01*
X0360569Y0074779D01*
X0360726Y0074759D01*
X0360882Y0074735D01*
X0361038Y0074707D01*
X0361193Y0074676D01*
X0361348Y0074640D01*
X0361501Y0074601D01*
X0361653Y0074558D01*
X0361804Y0074511D01*
X0361954Y0074460D01*
X0362103Y0074405D01*
X0362250Y0074347D01*
X0362396Y0074285D01*
X0362540Y0074220D01*
X0362682Y0074150D01*
X0362823Y0074078D01*
X0362962Y0074001D01*
X0363098Y0073922D01*
X0363233Y0073838D01*
X0363366Y0073752D01*
X0363496Y0073662D01*
X0363624Y0073569D01*
X0363750Y0073473D01*
X0363873Y0073373D01*
X0363994Y0073271D01*
X0364112Y0073166D01*
X0364227Y0073057D01*
X0364340Y0072946D01*
X0364450Y0072832D01*
X0364557Y0072715D01*
X0364661Y0072596D01*
X0364762Y0072474D01*
X0364859Y0072349D01*
X0364954Y0072222D01*
X0365045Y0072093D01*
X0365134Y0071962D01*
X0365218Y0071828D01*
X0365300Y0071692D01*
X0365378Y0071555D01*
X0365452Y0071415D01*
X0365523Y0071273D01*
X0365591Y0071130D01*
X0365655Y0070985D01*
X0365715Y0070839D01*
X0365771Y0070691D01*
X0365824Y0070542D01*
X0365873Y0070391D01*
X0365918Y0070239D01*
X0365959Y0070086D01*
X0365997Y0069933D01*
X0366030Y0069778D01*
X0366060Y0069622D01*
X0366086Y0069466D01*
X0366107Y0069309D01*
X0366125Y0069152D01*
X0366139Y0068994D01*
X0366149Y0068836D01*
X0366155Y0068678D01*
X0366157Y0068520D01*
X0366155Y0068362D01*
X0366149Y0068204D01*
X0366139Y0068046D01*
X0366125Y0067888D01*
X0366107Y0067731D01*
X0366086Y0067574D01*
X0366060Y0067418D01*
X0366030Y0067262D01*
X0365997Y0067107D01*
X0365959Y0066954D01*
X0365918Y0066801D01*
X0365873Y0066649D01*
X0365824Y0066498D01*
X0365771Y0066349D01*
X0365715Y0066201D01*
X0365655Y0066055D01*
X0365591Y0065910D01*
X0365523Y0065767D01*
X0365452Y0065625D01*
X0365378Y0065485D01*
X0365300Y0065348D01*
X0365218Y0065212D01*
X0365134Y0065078D01*
X0365045Y0064947D01*
X0364954Y0064818D01*
X0364859Y0064691D01*
X0364762Y0064566D01*
X0364661Y0064444D01*
X0364557Y0064325D01*
X0364450Y0064208D01*
X0364340Y0064094D01*
X0364227Y0063983D01*
X0364112Y0063874D01*
X0363994Y0063769D01*
X0363873Y0063667D01*
X0363750Y0063567D01*
X0363624Y0063471D01*
X0363496Y0063378D01*
X0363366Y0063288D01*
X0363233Y0063202D01*
X0363098Y0063118D01*
X0362962Y0063039D01*
X0362823Y0062962D01*
X0362682Y0062890D01*
X0362540Y0062820D01*
X0362396Y0062755D01*
X0362250Y0062693D01*
X0362103Y0062635D01*
X0361954Y0062580D01*
X0361804Y0062529D01*
X0361653Y0062482D01*
X0361501Y0062439D01*
X0361348Y0062400D01*
X0361193Y0062364D01*
X0361038Y0062333D01*
X0360882Y0062305D01*
X0360726Y0062281D01*
X0360569Y0062261D01*
X0360411Y0062245D01*
X0360254Y0062233D01*
X0360095Y0062225D01*
X0359937Y0062221D01*
X0359779Y0062221D01*
X0359621Y0062225D01*
X0359462Y0062233D01*
X0359305Y0062245D01*
X0359147Y0062261D01*
X0358990Y0062281D01*
X0358834Y0062305D01*
X0358678Y0062333D01*
X0358523Y0062364D01*
X0358368Y0062400D01*
X0358215Y0062439D01*
X0358063Y0062482D01*
X0357912Y0062529D01*
X0357762Y0062580D01*
X0357613Y0062635D01*
X0357466Y0062693D01*
X0357320Y0062755D01*
X0357176Y0062820D01*
X0357034Y0062890D01*
X0356893Y0062962D01*
X0356754Y0063039D01*
X0356618Y0063118D01*
X0356483Y0063202D01*
X0356350Y0063288D01*
X0356220Y0063378D01*
X0356092Y0063471D01*
X0355966Y0063567D01*
X0355843Y0063667D01*
X0355722Y0063769D01*
X0355604Y0063874D01*
X0355489Y0063983D01*
X0355376Y0064094D01*
X0355266Y0064208D01*
X0355159Y0064325D01*
X0355055Y0064444D01*
X0354954Y0064566D01*
X0354857Y0064691D01*
X0354762Y0064818D01*
X0354671Y0064947D01*
X0354582Y0065078D01*
X0354498Y0065212D01*
X0354416Y0065348D01*
X0354338Y0065485D01*
X0354264Y0065625D01*
X0354193Y0065767D01*
X0354125Y0065910D01*
X0354061Y0066055D01*
X0354001Y0066201D01*
X0353945Y0066349D01*
X0353892Y0066498D01*
X0353843Y0066649D01*
X0353798Y0066801D01*
X0353757Y0066954D01*
X0353719Y0067107D01*
X0353686Y0067262D01*
X0353656Y0067418D01*
X0353630Y0067574D01*
X0353609Y0067731D01*
X0353591Y0067888D01*
X0353577Y0068046D01*
X0353567Y0068204D01*
X0353561Y0068362D01*
X0353559Y0068520D01*
D11*
X0153244Y0205488D03*
X0148244Y0205488D03*
X0143244Y0205488D03*
X0143244Y0210488D03*
X0148244Y0210488D03*
X0153244Y0210488D03*
D12*
X0126118Y0117220D03*
X0126118Y0097535D03*
X0315213Y0137929D03*
X0315213Y0151709D03*
X0315213Y0165488D03*
D13*
X0334898Y0177299D03*
X0334898Y0126118D03*
X0106433Y0129031D03*
X0106433Y0085724D03*
D14*
X0125016Y0233087D03*
X0125016Y0243087D03*
X0135016Y0243087D03*
X0145016Y0243087D03*
X0155016Y0243087D03*
X0165016Y0243087D03*
X0175016Y0243087D03*
X0175016Y0233087D03*
X0165016Y0233087D03*
X0155016Y0233087D03*
X0145016Y0233087D03*
X0135016Y0233087D03*
D15*
X0174465Y0213362D03*
X0187693Y0213598D03*
X0192102Y0210606D03*
X0195291Y0218913D03*
X0191354Y0222850D03*
X0187417Y0226787D03*
X0191354Y0230724D03*
X0195291Y0226787D03*
X0199228Y0230724D03*
X0203165Y0226787D03*
X0207102Y0230724D03*
X0211039Y0226787D03*
X0214976Y0230724D03*
X0211039Y0234661D03*
X0218913Y0234661D03*
X0222850Y0230724D03*
X0214976Y0238598D03*
X0211039Y0242535D03*
X0207102Y0238598D03*
X0203165Y0242535D03*
X0199228Y0238598D03*
X0195291Y0242535D03*
X0191354Y0238598D03*
X0187417Y0242535D03*
X0191354Y0246472D03*
X0199228Y0246472D03*
X0207102Y0246472D03*
X0214976Y0246472D03*
X0218913Y0242535D03*
X0203165Y0234661D03*
X0195291Y0234661D03*
X0187417Y0234661D03*
X0199228Y0222850D03*
X0203165Y0218913D03*
X0207102Y0222850D03*
X0211039Y0218913D03*
X0211354Y0200921D03*
X0213795Y0193323D03*
X0209858Y0184268D03*
X0214976Y0174031D03*
X0218520Y0166551D03*
X0222063Y0166945D03*
X0225606Y0166945D03*
X0229150Y0166945D03*
X0232693Y0166945D03*
X0232693Y0163402D03*
X0232693Y0159858D03*
X0232693Y0156315D03*
X0228756Y0156315D03*
X0228756Y0159858D03*
X0225213Y0159858D03*
X0225213Y0156315D03*
X0225213Y0152772D03*
X0228756Y0152772D03*
X0229150Y0149228D03*
X0231118Y0146472D03*
X0233087Y0149228D03*
X0232693Y0152772D03*
X0225213Y0149228D03*
X0227181Y0146472D03*
X0222850Y0146472D03*
X0219701Y0148441D03*
X0210252Y0155134D03*
X0208677Y0162220D03*
X0225213Y0163402D03*
X0228756Y0163402D03*
X0243717Y0167732D03*
X0248047Y0168913D03*
X0248835Y0153953D03*
X0256315Y0148835D03*
X0260252Y0148835D03*
X0264189Y0148835D03*
X0268126Y0148835D03*
X0272063Y0148835D03*
X0276000Y0148835D03*
X0276000Y0144898D03*
X0272063Y0144898D03*
X0268126Y0144898D03*
X0264189Y0144898D03*
X0260252Y0144898D03*
X0256315Y0144898D03*
X0256315Y0140961D03*
X0260252Y0140961D03*
X0264189Y0140961D03*
X0268126Y0140961D03*
X0272063Y0140961D03*
X0276000Y0140961D03*
X0276000Y0137024D03*
X0272063Y0137024D03*
X0268126Y0137024D03*
X0264189Y0137024D03*
X0260252Y0137024D03*
X0256315Y0137024D03*
X0256315Y0133087D03*
X0260252Y0133087D03*
X0264189Y0133087D03*
X0268126Y0133087D03*
X0272063Y0133087D03*
X0276000Y0133087D03*
X0290567Y0138205D03*
X0290567Y0142929D03*
X0299622Y0136236D03*
X0333087Y0140173D03*
X0344898Y0140173D03*
X0356709Y0140173D03*
X0356709Y0128362D03*
X0344898Y0128362D03*
X0344898Y0112614D03*
X0333087Y0112614D03*
X0333087Y0100803D03*
X0344898Y0100803D03*
X0356709Y0100803D03*
X0356709Y0088992D03*
X0344898Y0088992D03*
X0333087Y0088992D03*
X0333087Y0077181D03*
X0344898Y0077181D03*
X0321276Y0077181D03*
X0309465Y0077181D03*
X0276000Y0076787D03*
X0272063Y0076787D03*
X0268126Y0076787D03*
X0264189Y0076787D03*
X0260252Y0076787D03*
X0256315Y0076787D03*
X0256315Y0080724D03*
X0260252Y0080724D03*
X0264189Y0080724D03*
X0268126Y0080724D03*
X0272063Y0080724D03*
X0276000Y0080724D03*
X0276000Y0084661D03*
X0272063Y0084661D03*
X0268126Y0084661D03*
X0264189Y0084661D03*
X0260252Y0084661D03*
X0256315Y0084661D03*
X0256315Y0088598D03*
X0260252Y0088598D03*
X0264189Y0088598D03*
X0268126Y0088598D03*
X0272063Y0088598D03*
X0276000Y0088598D03*
X0276000Y0072850D03*
X0272063Y0072850D03*
X0268126Y0072850D03*
X0264189Y0072850D03*
X0260252Y0072850D03*
X0256315Y0072850D03*
X0217339Y0072850D03*
X0217339Y0068913D03*
X0217339Y0064976D03*
X0213402Y0064976D03*
X0213402Y0068913D03*
X0213402Y0072850D03*
X0209465Y0072850D03*
X0209465Y0068913D03*
X0209465Y0064976D03*
X0205528Y0064976D03*
X0205528Y0068913D03*
X0205528Y0072850D03*
X0205528Y0076787D03*
X0209465Y0076787D03*
X0213402Y0076787D03*
X0217339Y0076787D03*
X0213402Y0080724D03*
X0209465Y0080724D03*
X0205528Y0080724D03*
X0194898Y0085843D03*
X0194898Y0089780D03*
X0194898Y0093717D03*
X0190961Y0093717D03*
X0187024Y0093717D03*
X0183087Y0093717D03*
X0179150Y0093717D03*
X0179150Y0089780D03*
X0183087Y0089780D03*
X0187024Y0089780D03*
X0190961Y0089780D03*
X0190961Y0085843D03*
X0187024Y0085843D03*
X0183087Y0085843D03*
X0179150Y0085843D03*
X0179150Y0097654D03*
X0179150Y0101591D03*
X0179150Y0105528D03*
X0183087Y0105528D03*
X0187024Y0105528D03*
X0190961Y0105528D03*
X0190961Y0101591D03*
X0194898Y0101591D03*
X0194898Y0097654D03*
X0190961Y0097654D03*
X0187024Y0097654D03*
X0187024Y0101591D03*
X0183087Y0101591D03*
X0183087Y0097654D03*
X0175213Y0105528D03*
X0196866Y0113795D03*
X0189386Y0129543D03*
X0179543Y0132299D03*
X0170331Y0137181D03*
X0165921Y0138795D03*
X0161433Y0144110D03*
X0159071Y0140173D03*
X0165016Y0129740D03*
X0152772Y0119701D03*
X0145685Y0120882D03*
X0141748Y0116945D03*
X0137811Y0113008D03*
X0145685Y0113008D03*
X0137811Y0120882D03*
X0142929Y0127181D03*
X0122850Y0127181D03*
X0122850Y0135055D03*
X0122850Y0142929D03*
X0096866Y0124425D03*
X0088992Y0116551D03*
X0096866Y0108677D03*
X0088992Y0100803D03*
X0096866Y0092929D03*
X0104740Y0100803D03*
X0104740Y0116551D03*
X0084268Y0140173D03*
X0084661Y0157890D03*
X0105921Y0173638D03*
X0093717Y0182299D03*
X0118520Y0189386D03*
X0118126Y0197654D03*
X0118126Y0205134D03*
X0155921Y0190961D03*
X0155921Y0184661D03*
X0177024Y0200213D03*
X0191748Y0193323D03*
X0191630Y0175213D03*
X0187614Y0175252D03*
X0187142Y0167417D03*
X0182299Y0167732D03*
X0174819Y0167732D03*
X0176787Y0160252D03*
X0176787Y0156315D03*
X0180724Y0156315D03*
X0180724Y0160252D03*
X0168992Y0157732D03*
X0159819Y0161945D03*
X0160291Y0166315D03*
X0151984Y0160646D03*
X0170094Y0149228D03*
X0211433Y0138205D03*
X0216551Y0136630D03*
X0216551Y0132299D03*
X0228362Y0127181D03*
X0187417Y0073244D03*
X0187417Y0065370D03*
X0179543Y0065370D03*
X0171669Y0065370D03*
X0159858Y0065370D03*
X0151984Y0065370D03*
X0144110Y0065370D03*
X0136236Y0073244D03*
X0132299Y0065370D03*
X0124425Y0073244D03*
X0116551Y0065370D03*
X0108677Y0073244D03*
X0116551Y0081118D03*
X0159858Y0073244D03*
X0199228Y0065370D03*
X0333087Y0151984D03*
X0344898Y0151984D03*
X0356709Y0151984D03*
X0356709Y0163795D03*
X0344898Y0163795D03*
X0333087Y0163795D03*
X0344898Y0175606D03*
X0356709Y0175606D03*
X0356709Y0191354D03*
X0344898Y0191354D03*
X0344898Y0203165D03*
X0333087Y0203165D03*
X0333087Y0214976D03*
X0344898Y0214976D03*
X0356709Y0214976D03*
X0356709Y0203165D03*
X0356709Y0226787D03*
X0344898Y0226787D03*
X0333087Y0226787D03*
X0276000Y0208283D03*
X0276000Y0204346D03*
X0276000Y0200409D03*
X0272063Y0200409D03*
X0268126Y0200409D03*
X0264189Y0200409D03*
X0260252Y0200409D03*
X0256315Y0200409D03*
X0256315Y0204346D03*
X0260252Y0204346D03*
X0264189Y0204346D03*
X0268126Y0204346D03*
X0272063Y0204346D03*
X0272063Y0208283D03*
X0268126Y0208283D03*
X0264189Y0208283D03*
X0260252Y0208283D03*
X0256315Y0208283D03*
X0249622Y0214189D03*
X0251591Y0230724D03*
X0256315Y0196472D03*
X0256315Y0192535D03*
X0260252Y0192535D03*
X0264189Y0192535D03*
X0268126Y0192535D03*
X0272063Y0192535D03*
X0276000Y0192535D03*
X0276000Y0196472D03*
X0272063Y0196472D03*
X0268126Y0196472D03*
X0264189Y0196472D03*
X0260252Y0196472D03*
X0356709Y0112614D03*
D16*
X0369079Y0112151D02*
X0280755Y0112151D01*
X0280758Y0113330D02*
X0369079Y0113330D01*
X0369079Y0114510D02*
X0280761Y0114510D01*
X0280764Y0115689D02*
X0369079Y0115689D01*
X0369079Y0116869D02*
X0280768Y0116869D01*
X0280771Y0118049D02*
X0369079Y0118049D01*
X0369079Y0119228D02*
X0280774Y0119228D01*
X0280778Y0120408D02*
X0369079Y0120408D01*
X0369079Y0121587D02*
X0280781Y0121587D01*
X0280784Y0122767D02*
X0332389Y0122767D01*
X0332551Y0122606D02*
X0334073Y0121975D01*
X0335722Y0121975D01*
X0337245Y0122606D01*
X0338410Y0123771D01*
X0339041Y0125294D01*
X0339041Y0126942D01*
X0338410Y0128465D01*
X0337245Y0129631D01*
X0335722Y0130261D01*
X0334073Y0130261D01*
X0332551Y0129631D01*
X0331385Y0128465D01*
X0330754Y0126942D01*
X0330754Y0125294D01*
X0331385Y0123771D01*
X0332551Y0122606D01*
X0331312Y0123947D02*
X0280788Y0123947D01*
X0280791Y0125126D02*
X0330824Y0125126D01*
X0330754Y0126306D02*
X0280794Y0126306D01*
X0280798Y0127485D02*
X0330979Y0127485D01*
X0331585Y0128665D02*
X0280801Y0128665D01*
X0280804Y0129845D02*
X0333067Y0129845D01*
X0336728Y0129845D02*
X0369079Y0129845D01*
X0369079Y0131024D02*
X0280808Y0131024D01*
X0280811Y0132204D02*
X0312806Y0132204D01*
X0311695Y0132664D02*
X0313977Y0131719D01*
X0316448Y0131719D01*
X0318730Y0132664D01*
X0320477Y0134411D01*
X0321423Y0136694D01*
X0321423Y0139164D01*
X0320477Y0141447D01*
X0318730Y0143194D01*
X0316448Y0144139D01*
X0313977Y0144139D01*
X0311695Y0143194D01*
X0309948Y0141447D01*
X0309002Y0139164D01*
X0309002Y0136694D01*
X0309948Y0134411D01*
X0311695Y0132664D01*
X0310976Y0133384D02*
X0280814Y0133384D01*
X0280818Y0134563D02*
X0309885Y0134563D01*
X0309396Y0135743D02*
X0280821Y0135743D01*
X0280824Y0136922D02*
X0309002Y0136922D01*
X0309002Y0138102D02*
X0280828Y0138102D01*
X0280831Y0139282D02*
X0309051Y0139282D01*
X0309540Y0140461D02*
X0280834Y0140461D01*
X0280838Y0141641D02*
X0310142Y0141641D01*
X0311321Y0142820D02*
X0280841Y0142820D01*
X0280844Y0144000D02*
X0313641Y0144000D01*
X0313977Y0145498D02*
X0311695Y0146444D01*
X0309948Y0148191D01*
X0309002Y0150473D01*
X0309002Y0152944D01*
X0309948Y0155226D01*
X0311695Y0156973D01*
X0313977Y0157919D01*
X0316448Y0157919D01*
X0318730Y0156973D01*
X0320477Y0155226D01*
X0321423Y0152944D01*
X0321423Y0150473D01*
X0320477Y0148191D01*
X0318730Y0146444D01*
X0316448Y0145498D01*
X0313977Y0145498D01*
X0311899Y0146359D02*
X0280851Y0146359D01*
X0280848Y0145180D02*
X0369079Y0145180D01*
X0369079Y0146359D02*
X0318526Y0146359D01*
X0319825Y0147539D02*
X0369079Y0147539D01*
X0369079Y0148719D02*
X0320696Y0148719D01*
X0321185Y0149898D02*
X0369079Y0149898D01*
X0369079Y0151078D02*
X0321423Y0151078D01*
X0321423Y0152257D02*
X0369079Y0152257D01*
X0369079Y0153437D02*
X0321219Y0153437D01*
X0320730Y0154617D02*
X0369079Y0154617D01*
X0369079Y0155796D02*
X0319908Y0155796D01*
X0318725Y0156976D02*
X0369079Y0156976D01*
X0369079Y0158155D02*
X0280884Y0158155D01*
X0280881Y0156976D02*
X0311701Y0156976D01*
X0310518Y0155796D02*
X0280878Y0155796D01*
X0280874Y0154617D02*
X0309695Y0154617D01*
X0309207Y0153437D02*
X0280871Y0153437D01*
X0280868Y0152257D02*
X0309002Y0152257D01*
X0309002Y0151078D02*
X0280864Y0151078D01*
X0280861Y0149898D02*
X0309241Y0149898D01*
X0309729Y0148719D02*
X0280858Y0148719D01*
X0280854Y0147539D02*
X0310600Y0147539D01*
X0316784Y0144000D02*
X0369079Y0144000D01*
X0369079Y0142820D02*
X0319104Y0142820D01*
X0320283Y0141641D02*
X0369079Y0141641D01*
X0369079Y0140461D02*
X0320886Y0140461D01*
X0321374Y0139282D02*
X0369079Y0139282D01*
X0369079Y0138102D02*
X0321423Y0138102D01*
X0321423Y0136922D02*
X0369079Y0136922D01*
X0369079Y0135743D02*
X0321029Y0135743D01*
X0320540Y0134563D02*
X0369079Y0134563D01*
X0369079Y0133384D02*
X0319450Y0133384D01*
X0317619Y0132204D02*
X0369079Y0132204D01*
X0369079Y0128665D02*
X0338210Y0128665D01*
X0338816Y0127485D02*
X0369079Y0127485D01*
X0369079Y0126306D02*
X0339041Y0126306D01*
X0338971Y0125126D02*
X0369079Y0125126D01*
X0369079Y0123947D02*
X0338483Y0123947D01*
X0337406Y0122767D02*
X0369079Y0122767D01*
X0369079Y0110971D02*
X0280751Y0110971D01*
X0280748Y0109791D02*
X0369079Y0109791D01*
X0369079Y0108612D02*
X0280745Y0108612D01*
X0280741Y0107432D02*
X0369079Y0107432D01*
X0369079Y0106252D02*
X0280738Y0106252D01*
X0280735Y0105073D02*
X0369079Y0105073D01*
X0369079Y0103893D02*
X0280731Y0103893D01*
X0280728Y0102714D02*
X0369079Y0102714D01*
X0369079Y0101534D02*
X0280725Y0101534D01*
X0280721Y0100354D02*
X0369079Y0100354D01*
X0369079Y0099175D02*
X0280718Y0099175D01*
X0280715Y0097995D02*
X0369079Y0097995D01*
X0369079Y0096816D02*
X0280711Y0096816D01*
X0280708Y0095636D02*
X0369079Y0095636D01*
X0369079Y0094456D02*
X0280705Y0094456D01*
X0280701Y0093277D02*
X0369079Y0093277D01*
X0369079Y0092097D02*
X0280698Y0092097D01*
X0280695Y0090917D02*
X0369079Y0090917D01*
X0369079Y0089738D02*
X0280691Y0089738D01*
X0280688Y0088558D02*
X0369079Y0088558D01*
X0369079Y0087379D02*
X0280685Y0087379D01*
X0280681Y0086199D02*
X0369079Y0086199D01*
X0369079Y0085019D02*
X0280678Y0085019D01*
X0280675Y0083840D02*
X0369079Y0083840D01*
X0369079Y0082660D02*
X0280671Y0082660D01*
X0280668Y0081481D02*
X0369079Y0081481D01*
X0369079Y0080301D02*
X0280665Y0080301D01*
X0280661Y0079121D02*
X0369079Y0079121D01*
X0369079Y0077942D02*
X0280658Y0077942D01*
X0280655Y0076762D02*
X0356527Y0076762D01*
X0358090Y0077409D02*
X0354823Y0076056D01*
X0352322Y0073555D01*
X0350969Y0070288D01*
X0350969Y0066751D01*
X0352322Y0063484D01*
X0354823Y0060983D01*
X0358090Y0059630D01*
X0361627Y0059630D01*
X0364894Y0060983D01*
X0367395Y0063484D01*
X0368748Y0066751D01*
X0368748Y0070288D01*
X0367395Y0073555D01*
X0364894Y0076056D01*
X0361627Y0077409D01*
X0358090Y0077409D01*
X0354349Y0075582D02*
X0280651Y0075582D01*
X0280648Y0074403D02*
X0353169Y0074403D01*
X0352184Y0073223D02*
X0280645Y0073223D01*
X0280641Y0072119D02*
X0281032Y0210420D01*
X0281034Y0210422D01*
X0281034Y0211038D01*
X0281036Y0211653D01*
X0281034Y0211654D01*
X0281034Y0211657D01*
X0280599Y0212091D01*
X0280165Y0212528D01*
X0280162Y0212528D01*
X0279373Y0213317D01*
X0253729Y0213317D01*
X0252856Y0212444D01*
X0252781Y0212369D01*
X0252781Y0213549D01*
X0252387Y0213942D01*
X0252387Y0214739D01*
X0251966Y0215755D01*
X0251188Y0216533D01*
X0250172Y0216954D01*
X0249072Y0216954D01*
X0248056Y0216533D01*
X0247278Y0215755D01*
X0246857Y0214739D01*
X0246857Y0213639D01*
X0247278Y0212623D01*
X0248056Y0211845D01*
X0249072Y0211424D01*
X0249219Y0211424D01*
X0249219Y0171421D01*
X0248597Y0171679D01*
X0247497Y0171679D01*
X0246481Y0171258D01*
X0245703Y0170480D01*
X0245498Y0169984D01*
X0245498Y0171226D01*
X0221620Y0195104D01*
X0215925Y0195104D01*
X0215362Y0195667D01*
X0214352Y0196085D01*
X0247210Y0228943D01*
X0249461Y0228943D01*
X0250024Y0228380D01*
X0251040Y0227959D01*
X0252141Y0227959D01*
X0253157Y0228380D01*
X0253935Y0229158D01*
X0254356Y0230174D01*
X0254356Y0231274D01*
X0253935Y0232291D01*
X0253157Y0233069D01*
X0252141Y0233490D01*
X0251040Y0233490D01*
X0250024Y0233069D01*
X0249461Y0232505D01*
X0245735Y0232505D01*
X0209514Y0196285D01*
X0208471Y0195242D01*
X0208471Y0189829D01*
X0209514Y0188786D01*
X0213195Y0185105D01*
X0213195Y0183450D01*
X0212624Y0184021D01*
X0212624Y0184818D01*
X0212203Y0185834D01*
X0211425Y0186612D01*
X0210408Y0187033D01*
X0209308Y0187033D01*
X0208292Y0186612D01*
X0207514Y0185834D01*
X0207093Y0184818D01*
X0207093Y0183718D01*
X0207514Y0182701D01*
X0208292Y0181923D01*
X0209308Y0181502D01*
X0210046Y0181502D01*
X0210046Y0168627D01*
X0209052Y0167633D01*
X0209052Y0165114D01*
X0208924Y0164986D01*
X0208127Y0164986D01*
X0207111Y0164565D01*
X0206333Y0163787D01*
X0205912Y0162771D01*
X0205912Y0161670D01*
X0206333Y0160654D01*
X0207111Y0159876D01*
X0208127Y0159455D01*
X0209227Y0159455D01*
X0210244Y0159876D01*
X0210833Y0160466D01*
X0210833Y0158234D01*
X0210498Y0157899D01*
X0209702Y0157899D01*
X0208686Y0157478D01*
X0207908Y0156700D01*
X0207487Y0155684D01*
X0207487Y0154584D01*
X0207908Y0153567D01*
X0208686Y0152790D01*
X0209702Y0152369D01*
X0210802Y0152369D01*
X0211818Y0152790D01*
X0212596Y0153567D01*
X0213017Y0154584D01*
X0213017Y0155380D01*
X0214395Y0156758D01*
X0214395Y0165420D01*
X0217289Y0168313D01*
X0235892Y0168313D01*
X0242979Y0161227D01*
X0246423Y0161227D01*
X0247466Y0162270D01*
X0249219Y0164023D01*
X0249219Y0162368D01*
X0231955Y0145104D01*
X0217388Y0145104D01*
X0216345Y0144061D01*
X0216345Y0144061D01*
X0215813Y0143529D01*
X0214770Y0142486D01*
X0214770Y0138760D01*
X0214207Y0138196D01*
X0214198Y0138176D01*
X0214198Y0138755D01*
X0213777Y0139771D01*
X0213000Y0140549D01*
X0211983Y0140970D01*
X0210883Y0140970D01*
X0209867Y0140549D01*
X0209089Y0139771D01*
X0208668Y0138755D01*
X0208668Y0137655D01*
X0209089Y0136638D01*
X0209652Y0136075D01*
X0209652Y0129593D01*
X0212408Y0126837D01*
X0213451Y0125794D01*
X0225944Y0125794D01*
X0226018Y0125615D01*
X0226796Y0124837D01*
X0227812Y0124416D01*
X0228912Y0124416D01*
X0229929Y0124837D01*
X0230707Y0125615D01*
X0231128Y0126631D01*
X0231128Y0127731D01*
X0230707Y0128748D01*
X0229929Y0129525D01*
X0228912Y0129946D01*
X0227812Y0129946D01*
X0226796Y0129525D01*
X0226626Y0129356D01*
X0214927Y0129356D01*
X0213214Y0131068D01*
X0213214Y0136075D01*
X0213777Y0136638D01*
X0213786Y0136659D01*
X0213786Y0136080D01*
X0214207Y0135063D01*
X0214806Y0134465D01*
X0214207Y0133866D01*
X0213786Y0132849D01*
X0213786Y0131749D01*
X0214207Y0130733D01*
X0214985Y0129955D01*
X0216001Y0129534D01*
X0217101Y0129534D01*
X0218118Y0129955D01*
X0218896Y0130733D01*
X0219317Y0131749D01*
X0219317Y0132849D01*
X0219282Y0132932D01*
X0220054Y0133703D01*
X0221098Y0134747D01*
X0221098Y0139761D01*
X0237161Y0139761D01*
X0248588Y0151187D01*
X0249385Y0151187D01*
X0250401Y0151608D01*
X0251179Y0152386D01*
X0251600Y0153403D01*
X0251600Y0154503D01*
X0251179Y0155519D01*
X0250401Y0156297D01*
X0249385Y0156718D01*
X0248607Y0156718D01*
X0251738Y0159849D01*
X0252069Y0160180D01*
X0252069Y0112444D01*
X0248220Y0108596D01*
X0173661Y0108984D01*
X0173482Y0109092D01*
X0173064Y0108988D01*
X0172634Y0108990D01*
X0172486Y0108843D01*
X0172284Y0108792D01*
X0172062Y0108424D01*
X0171757Y0108121D01*
X0171756Y0107912D01*
X0170879Y0106452D01*
X0170572Y0106145D01*
X0170572Y0105940D01*
X0170467Y0105765D01*
X0170572Y0105344D01*
X0170572Y0086382D01*
X0170523Y0086322D01*
X0170572Y0085775D01*
X0170572Y0085225D01*
X0170627Y0085170D01*
X0170634Y0085093D01*
X0171057Y0084741D01*
X0171446Y0084352D01*
X0171523Y0084352D01*
X0173419Y0082772D01*
X0173808Y0082383D01*
X0173886Y0082383D01*
X0173945Y0082334D01*
X0174493Y0082383D01*
X0215934Y0082383D01*
X0229713Y0068604D01*
X0276640Y0068604D01*
X0277100Y0068512D01*
X0277239Y0068604D01*
X0277405Y0068604D01*
X0277737Y0068936D01*
X0279599Y0070177D01*
X0279763Y0070177D01*
X0280097Y0070510D01*
X0280490Y0070772D01*
X0280522Y0070932D01*
X0280638Y0071048D01*
X0280640Y0071520D01*
X0280732Y0071982D01*
X0280641Y0072119D01*
X0280691Y0072044D02*
X0351696Y0072044D01*
X0351207Y0070864D02*
X0280509Y0070864D01*
X0278859Y0069684D02*
X0350969Y0069684D01*
X0350969Y0068505D02*
X0097094Y0068505D01*
X0097094Y0069684D02*
X0228633Y0069684D01*
X0227453Y0070864D02*
X0096856Y0070864D01*
X0097094Y0070288D02*
X0095741Y0073555D01*
X0093240Y0076056D01*
X0089973Y0077409D01*
X0086436Y0077409D01*
X0083169Y0076056D01*
X0080668Y0073555D01*
X0079315Y0070288D01*
X0079315Y0066751D01*
X0080668Y0063484D01*
X0083169Y0060983D01*
X0086436Y0059630D01*
X0089973Y0059630D01*
X0093240Y0060983D01*
X0095741Y0063484D01*
X0097094Y0066751D01*
X0097094Y0070288D01*
X0096367Y0072044D02*
X0226274Y0072044D01*
X0225094Y0073223D02*
X0095879Y0073223D01*
X0094894Y0074403D02*
X0223914Y0074403D01*
X0222735Y0075582D02*
X0093714Y0075582D01*
X0091536Y0076762D02*
X0221555Y0076762D01*
X0220376Y0077942D02*
X0078984Y0077942D01*
X0078984Y0079121D02*
X0219196Y0079121D01*
X0218016Y0080301D02*
X0078984Y0080301D01*
X0078984Y0081481D02*
X0216837Y0081481D01*
X0245235Y0108612D02*
X0248236Y0108612D01*
X0249416Y0109791D02*
X0078984Y0109791D01*
X0078984Y0108612D02*
X0172175Y0108612D01*
X0171467Y0107432D02*
X0078984Y0107432D01*
X0078984Y0106252D02*
X0170680Y0106252D01*
X0170572Y0105073D02*
X0078984Y0105073D01*
X0078984Y0103893D02*
X0170572Y0103893D01*
X0170572Y0102714D02*
X0129723Y0102714D01*
X0129636Y0102800D02*
X0127353Y0103746D01*
X0124883Y0103746D01*
X0122600Y0102800D01*
X0120853Y0101053D01*
X0119908Y0098771D01*
X0119908Y0096300D01*
X0120853Y0094018D01*
X0122600Y0092271D01*
X0124883Y0091325D01*
X0127353Y0091325D01*
X0129636Y0092271D01*
X0131383Y0094018D01*
X0132328Y0096300D01*
X0132328Y0098771D01*
X0131383Y0101053D01*
X0129636Y0102800D01*
X0130902Y0101534D02*
X0170572Y0101534D01*
X0170572Y0100354D02*
X0131672Y0100354D01*
X0132161Y0099175D02*
X0170572Y0099175D01*
X0170572Y0097995D02*
X0132328Y0097995D01*
X0132328Y0096816D02*
X0170572Y0096816D01*
X0170572Y0095636D02*
X0132053Y0095636D01*
X0131565Y0094456D02*
X0170572Y0094456D01*
X0170572Y0093277D02*
X0130642Y0093277D01*
X0129217Y0092097D02*
X0170572Y0092097D01*
X0170572Y0090917D02*
X0078984Y0090917D01*
X0078984Y0089738D02*
X0105295Y0089738D01*
X0105609Y0089868D02*
X0104086Y0089237D01*
X0102921Y0088071D01*
X0102290Y0086549D01*
X0102290Y0084900D01*
X0102921Y0083377D01*
X0104086Y0082212D01*
X0105609Y0081581D01*
X0107257Y0081581D01*
X0108780Y0082212D01*
X0109946Y0083377D01*
X0110576Y0084900D01*
X0110576Y0086549D01*
X0109946Y0088071D01*
X0108780Y0089237D01*
X0107257Y0089868D01*
X0105609Y0089868D01*
X0107571Y0089738D02*
X0170572Y0089738D01*
X0170572Y0088558D02*
X0109459Y0088558D01*
X0110233Y0087379D02*
X0170572Y0087379D01*
X0170534Y0086199D02*
X0110576Y0086199D01*
X0110576Y0085019D02*
X0170722Y0085019D01*
X0172138Y0083840D02*
X0110137Y0083840D01*
X0109228Y0082660D02*
X0173531Y0082660D01*
X0131626Y0113540D02*
X0132059Y0114291D01*
X0132391Y0115091D01*
X0132615Y0115928D01*
X0132708Y0116630D01*
X0126709Y0116630D01*
X0126709Y0117811D01*
X0132708Y0117811D01*
X0132615Y0118513D01*
X0132391Y0119350D01*
X0132059Y0120150D01*
X0131626Y0120901D01*
X0131099Y0121588D01*
X0130486Y0122201D01*
X0129798Y0122728D01*
X0129048Y0123162D01*
X0128247Y0123493D01*
X0127410Y0123718D01*
X0126709Y0123810D01*
X0126709Y0117811D01*
X0125528Y0117811D01*
X0125528Y0123810D01*
X0124826Y0123718D01*
X0123989Y0123493D01*
X0123188Y0123162D01*
X0122438Y0122728D01*
X0121750Y0122201D01*
X0121138Y0121588D01*
X0120610Y0120901D01*
X0120177Y0120150D01*
X0119845Y0119350D01*
X0119621Y0118513D01*
X0119529Y0117811D01*
X0125527Y0117811D01*
X0125527Y0116630D01*
X0119529Y0116630D01*
X0119621Y0115928D01*
X0119845Y0115091D01*
X0120177Y0114291D01*
X0120610Y0113540D01*
X0121138Y0112853D01*
X0121750Y0112240D01*
X0122438Y0111712D01*
X0123188Y0111279D01*
X0123989Y0110948D01*
X0124826Y0110723D01*
X0125528Y0110631D01*
X0125528Y0116630D01*
X0126709Y0116630D01*
X0126709Y0110631D01*
X0127410Y0110723D01*
X0128247Y0110948D01*
X0129048Y0111279D01*
X0129798Y0111712D01*
X0130486Y0112240D01*
X0131099Y0112853D01*
X0131626Y0113540D01*
X0131465Y0113330D02*
X0252069Y0113330D01*
X0252069Y0114510D02*
X0132150Y0114510D01*
X0132551Y0115689D02*
X0252069Y0115689D01*
X0252069Y0116869D02*
X0126709Y0116869D01*
X0126709Y0118049D02*
X0125528Y0118049D01*
X0125528Y0119228D02*
X0126709Y0119228D01*
X0126709Y0120408D02*
X0125528Y0120408D01*
X0125528Y0121587D02*
X0126709Y0121587D01*
X0126709Y0122767D02*
X0125528Y0122767D01*
X0122505Y0122767D02*
X0078984Y0122767D01*
X0078984Y0121587D02*
X0121137Y0121587D01*
X0120325Y0120408D02*
X0078984Y0120408D01*
X0078984Y0119228D02*
X0119813Y0119228D01*
X0119560Y0118049D02*
X0078984Y0118049D01*
X0078984Y0116869D02*
X0125527Y0116869D01*
X0125528Y0115689D02*
X0126709Y0115689D01*
X0126709Y0114510D02*
X0125528Y0114510D01*
X0125528Y0113330D02*
X0126709Y0113330D01*
X0126709Y0112151D02*
X0125528Y0112151D01*
X0125528Y0110971D02*
X0126709Y0110971D01*
X0128304Y0110971D02*
X0250595Y0110971D01*
X0251775Y0112151D02*
X0130369Y0112151D01*
X0132676Y0118049D02*
X0252069Y0118049D01*
X0252069Y0119228D02*
X0132424Y0119228D01*
X0131911Y0120408D02*
X0252069Y0120408D01*
X0252069Y0121587D02*
X0131099Y0121587D01*
X0129732Y0122767D02*
X0252069Y0122767D01*
X0252069Y0123947D02*
X0078984Y0123947D01*
X0078984Y0125126D02*
X0105034Y0125126D01*
X0105609Y0124888D02*
X0107257Y0124888D01*
X0108780Y0125519D01*
X0109946Y0126684D01*
X0110576Y0128207D01*
X0110576Y0129856D01*
X0109946Y0131378D01*
X0108780Y0132544D01*
X0107257Y0133175D01*
X0105609Y0133175D01*
X0104086Y0132544D01*
X0102921Y0131378D01*
X0102290Y0129856D01*
X0102290Y0128207D01*
X0102921Y0126684D01*
X0104086Y0125519D01*
X0105609Y0124888D01*
X0107832Y0125126D02*
X0226506Y0125126D01*
X0228362Y0127181D02*
X0227969Y0127575D01*
X0214189Y0127575D01*
X0211433Y0130331D01*
X0211433Y0138205D01*
X0208886Y0139282D02*
X0172141Y0139282D01*
X0171897Y0139525D02*
X0170881Y0139946D01*
X0169781Y0139946D01*
X0168764Y0139525D01*
X0168657Y0139418D01*
X0168266Y0140362D01*
X0167488Y0141140D01*
X0166471Y0141561D01*
X0165371Y0141561D01*
X0164355Y0141140D01*
X0163792Y0140576D01*
X0161836Y0140576D01*
X0161836Y0140723D01*
X0161579Y0141345D01*
X0161983Y0141345D01*
X0163000Y0141766D01*
X0163777Y0142544D01*
X0164198Y0143560D01*
X0164198Y0144660D01*
X0163777Y0145677D01*
X0163000Y0146455D01*
X0161983Y0146876D01*
X0160883Y0146876D01*
X0159867Y0146455D01*
X0159303Y0145891D01*
X0157790Y0145891D01*
X0156234Y0147447D01*
X0167965Y0147447D01*
X0168528Y0146884D01*
X0169544Y0146463D01*
X0170645Y0146463D01*
X0171661Y0146884D01*
X0172439Y0147662D01*
X0172860Y0148678D01*
X0172860Y0149778D01*
X0172439Y0150795D01*
X0171661Y0151573D01*
X0170645Y0151994D01*
X0169544Y0151994D01*
X0168528Y0151573D01*
X0167965Y0151009D01*
X0155191Y0151009D01*
X0151882Y0154318D01*
X0158622Y0154318D01*
X0159665Y0155361D01*
X0164365Y0160062D01*
X0164365Y0163828D01*
X0162873Y0165321D01*
X0163057Y0165765D01*
X0163057Y0166865D01*
X0162636Y0167881D01*
X0161858Y0168659D01*
X0160841Y0169080D01*
X0159741Y0169080D01*
X0158725Y0168659D01*
X0157947Y0167881D01*
X0157526Y0166865D01*
X0157526Y0165765D01*
X0157947Y0164749D01*
X0158361Y0164334D01*
X0158252Y0164289D01*
X0157689Y0163726D01*
X0156457Y0163726D01*
X0154508Y0161778D01*
X0154329Y0162212D01*
X0153765Y0162775D01*
X0153765Y0190517D01*
X0141485Y0202797D01*
X0142616Y0202329D01*
X0143872Y0202329D01*
X0145034Y0202810D01*
X0145744Y0203521D01*
X0146455Y0202810D01*
X0147616Y0202329D01*
X0148872Y0202329D01*
X0148881Y0202333D01*
X0177743Y0173471D01*
X0185484Y0173471D01*
X0186048Y0172908D01*
X0187064Y0172487D01*
X0188164Y0172487D01*
X0189181Y0172908D01*
X0189602Y0173329D01*
X0190063Y0172868D01*
X0190071Y0172865D01*
X0187388Y0170183D01*
X0186592Y0170183D01*
X0185575Y0169762D01*
X0184797Y0168984D01*
X0184786Y0168956D01*
X0184644Y0169299D01*
X0183866Y0170077D01*
X0182849Y0170498D01*
X0181749Y0170498D01*
X0180733Y0170077D01*
X0179955Y0169299D01*
X0179534Y0168282D01*
X0179534Y0167182D01*
X0179943Y0166194D01*
X0174935Y0166194D01*
X0169239Y0160498D01*
X0168442Y0160498D01*
X0167426Y0160077D01*
X0166648Y0159299D01*
X0166227Y0158282D01*
X0166227Y0157182D01*
X0166648Y0156166D01*
X0167426Y0155388D01*
X0168442Y0154967D01*
X0169542Y0154967D01*
X0170559Y0155388D01*
X0171336Y0156166D01*
X0171757Y0157182D01*
X0171757Y0157979D01*
X0176410Y0162632D01*
X0182979Y0162632D01*
X0184521Y0161090D01*
X0189763Y0161090D01*
X0199739Y0171066D01*
X0199739Y0178571D01*
X0193529Y0184781D01*
X0193529Y0191193D01*
X0194092Y0191756D01*
X0194513Y0192773D01*
X0194513Y0193873D01*
X0194092Y0194889D01*
X0193314Y0195667D01*
X0192298Y0196088D01*
X0191198Y0196088D01*
X0190182Y0195667D01*
X0189404Y0194889D01*
X0188983Y0193873D01*
X0188983Y0192773D01*
X0189404Y0191756D01*
X0189967Y0191193D01*
X0189967Y0183361D01*
X0188481Y0183361D01*
X0171687Y0200154D01*
X0171687Y0229499D01*
X0172245Y0228941D01*
X0174043Y0228196D01*
X0175989Y0228196D01*
X0177786Y0228941D01*
X0179162Y0230316D01*
X0179906Y0232114D01*
X0179906Y0234059D01*
X0179162Y0235857D01*
X0177786Y0237233D01*
X0176151Y0237910D01*
X0176255Y0237926D01*
X0177047Y0238184D01*
X0177789Y0238562D01*
X0178462Y0239051D01*
X0179051Y0239640D01*
X0179541Y0240314D01*
X0179919Y0241056D01*
X0180176Y0241848D01*
X0180306Y0242670D01*
X0180306Y0242677D01*
X0175425Y0242677D01*
X0175425Y0243496D01*
X0174606Y0243496D01*
X0174606Y0248377D01*
X0174599Y0248377D01*
X0173777Y0248247D01*
X0172985Y0247990D01*
X0172243Y0247611D01*
X0171569Y0247122D01*
X0170980Y0246533D01*
X0170491Y0245859D01*
X0170113Y0245117D01*
X0169855Y0244325D01*
X0169839Y0244222D01*
X0169162Y0245857D01*
X0167786Y0247233D01*
X0165989Y0247977D01*
X0164043Y0247977D01*
X0162245Y0247233D01*
X0160870Y0245857D01*
X0160125Y0244059D01*
X0160125Y0242114D01*
X0160870Y0240316D01*
X0162245Y0238941D01*
X0164043Y0238196D01*
X0164304Y0238196D01*
X0164523Y0237977D01*
X0164043Y0237977D01*
X0162245Y0237233D01*
X0160870Y0235857D01*
X0160125Y0234059D01*
X0160125Y0232114D01*
X0160870Y0230316D01*
X0162245Y0228941D01*
X0163235Y0228531D01*
X0163235Y0199632D01*
X0164278Y0198589D01*
X0183069Y0179798D01*
X0181453Y0179798D01*
X0156400Y0204851D01*
X0156403Y0204860D01*
X0156403Y0206117D01*
X0155922Y0207278D01*
X0155212Y0207988D01*
X0155922Y0208699D01*
X0156403Y0209860D01*
X0156403Y0211117D01*
X0155922Y0212278D01*
X0155034Y0213166D01*
X0153872Y0213647D01*
X0152616Y0213647D01*
X0151455Y0213166D01*
X0150744Y0212456D01*
X0150034Y0213166D01*
X0150025Y0213170D01*
X0150025Y0213942D01*
X0147810Y0216157D01*
X0155872Y0224219D01*
X0156915Y0225262D01*
X0156915Y0228580D01*
X0157786Y0228941D01*
X0159162Y0230316D01*
X0159906Y0232114D01*
X0159906Y0234059D01*
X0159162Y0235857D01*
X0157786Y0237233D01*
X0155989Y0237977D01*
X0154043Y0237977D01*
X0152245Y0237233D01*
X0151719Y0236706D01*
X0151719Y0237271D01*
X0153054Y0238606D01*
X0154043Y0238196D01*
X0155989Y0238196D01*
X0157786Y0238941D01*
X0159162Y0240316D01*
X0159906Y0242114D01*
X0159906Y0244059D01*
X0159162Y0245857D01*
X0157786Y0247233D01*
X0155989Y0247977D01*
X0154043Y0247977D01*
X0152245Y0247233D01*
X0150870Y0245857D01*
X0150125Y0244059D01*
X0150125Y0242114D01*
X0150535Y0241125D01*
X0149200Y0239789D01*
X0149200Y0239789D01*
X0148156Y0238746D01*
X0148156Y0236862D01*
X0147786Y0237233D01*
X0145989Y0237977D01*
X0145509Y0237977D01*
X0145728Y0238196D01*
X0145989Y0238196D01*
X0147786Y0238941D01*
X0149162Y0240316D01*
X0149906Y0242114D01*
X0149906Y0244059D01*
X0149162Y0245857D01*
X0147786Y0247233D01*
X0145989Y0247977D01*
X0144043Y0247977D01*
X0142245Y0247233D01*
X0140870Y0245857D01*
X0140125Y0244059D01*
X0140125Y0242114D01*
X0140870Y0240316D01*
X0141840Y0239346D01*
X0139387Y0236893D01*
X0138756Y0236262D01*
X0137786Y0237233D01*
X0135989Y0237977D01*
X0135509Y0237977D01*
X0135728Y0238196D01*
X0135989Y0238196D01*
X0137786Y0238941D01*
X0139162Y0240316D01*
X0139906Y0242114D01*
X0139906Y0244059D01*
X0139162Y0245857D01*
X0137786Y0247233D01*
X0135989Y0247977D01*
X0134043Y0247977D01*
X0132245Y0247233D01*
X0130870Y0245857D01*
X0130192Y0244222D01*
X0130176Y0244325D01*
X0129919Y0245117D01*
X0129541Y0245859D01*
X0129051Y0246533D01*
X0128462Y0247122D01*
X0127789Y0247611D01*
X0127047Y0247990D01*
X0126255Y0248247D01*
X0125432Y0248377D01*
X0125425Y0248377D01*
X0125425Y0243496D01*
X0124606Y0243496D01*
X0124606Y0242677D01*
X0119725Y0242677D01*
X0119725Y0242670D01*
X0119855Y0241848D01*
X0120113Y0241056D01*
X0120491Y0240314D01*
X0120980Y0239640D01*
X0121569Y0239051D01*
X0122243Y0238562D01*
X0122985Y0238184D01*
X0123777Y0237926D01*
X0123881Y0237910D01*
X0122245Y0237233D01*
X0120870Y0235857D01*
X0120125Y0234059D01*
X0120125Y0232114D01*
X0120870Y0230316D01*
X0122245Y0228941D01*
X0123235Y0228531D01*
X0123235Y0224229D01*
X0108236Y0209230D01*
X0108236Y0182059D01*
X0156450Y0133846D01*
X0167401Y0133846D01*
X0168445Y0134889D01*
X0168578Y0135023D01*
X0168764Y0134837D01*
X0169781Y0134416D01*
X0170881Y0134416D01*
X0171897Y0134837D01*
X0172675Y0135615D01*
X0173096Y0136631D01*
X0173096Y0137731D01*
X0172675Y0138748D01*
X0171897Y0139525D01*
X0172942Y0138102D02*
X0208668Y0138102D01*
X0208971Y0136922D02*
X0173096Y0136922D01*
X0172728Y0135743D02*
X0209652Y0135743D01*
X0209652Y0134563D02*
X0171237Y0134563D01*
X0169425Y0134563D02*
X0168119Y0134563D01*
X0166664Y0135627D02*
X0157188Y0135627D01*
X0110017Y0182797D01*
X0110017Y0208493D01*
X0125016Y0223491D01*
X0125016Y0233087D01*
X0120466Y0231291D02*
X0078984Y0231291D01*
X0078984Y0230112D02*
X0121074Y0230112D01*
X0122266Y0228932D02*
X0078984Y0228932D01*
X0078984Y0227753D02*
X0123235Y0227753D01*
X0123235Y0226573D02*
X0078984Y0226573D01*
X0078984Y0225393D02*
X0123235Y0225393D01*
X0123220Y0224214D02*
X0078984Y0224214D01*
X0078984Y0223034D02*
X0122040Y0223034D01*
X0120860Y0221855D02*
X0078984Y0221855D01*
X0078984Y0220675D02*
X0119681Y0220675D01*
X0118501Y0219495D02*
X0078984Y0219495D01*
X0078984Y0218316D02*
X0117322Y0218316D01*
X0116142Y0217136D02*
X0078984Y0217136D01*
X0078984Y0215957D02*
X0114962Y0215957D01*
X0113783Y0214777D02*
X0078984Y0214777D01*
X0078984Y0213597D02*
X0112603Y0213597D01*
X0111424Y0212418D02*
X0078984Y0212418D01*
X0078984Y0211238D02*
X0110244Y0211238D01*
X0109064Y0210058D02*
X0078984Y0210058D01*
X0078984Y0208879D02*
X0108236Y0208879D01*
X0108236Y0207699D02*
X0078984Y0207699D01*
X0078984Y0206520D02*
X0108236Y0206520D01*
X0108236Y0205340D02*
X0078984Y0205340D01*
X0078984Y0204160D02*
X0108236Y0204160D01*
X0108236Y0202981D02*
X0078984Y0202981D01*
X0078984Y0201801D02*
X0108236Y0201801D01*
X0108236Y0200622D02*
X0078984Y0200622D01*
X0078984Y0199442D02*
X0108236Y0199442D01*
X0108236Y0198262D02*
X0078984Y0198262D01*
X0078984Y0197083D02*
X0108236Y0197083D01*
X0108236Y0195903D02*
X0078984Y0195903D01*
X0078984Y0194723D02*
X0108236Y0194723D01*
X0108236Y0193544D02*
X0078984Y0193544D01*
X0078984Y0192364D02*
X0108236Y0192364D01*
X0108236Y0191185D02*
X0078984Y0191185D01*
X0078984Y0190005D02*
X0108236Y0190005D01*
X0108236Y0188825D02*
X0078984Y0188825D01*
X0078984Y0187646D02*
X0108236Y0187646D01*
X0108236Y0186466D02*
X0078984Y0186466D01*
X0078984Y0185287D02*
X0108236Y0185287D01*
X0108236Y0184107D02*
X0078984Y0184107D01*
X0078984Y0182927D02*
X0108236Y0182927D01*
X0108548Y0181748D02*
X0078984Y0181748D01*
X0078984Y0180568D02*
X0109727Y0180568D01*
X0110907Y0179388D02*
X0078984Y0179388D01*
X0078984Y0178209D02*
X0112087Y0178209D01*
X0113266Y0177029D02*
X0078984Y0177029D01*
X0078984Y0175850D02*
X0114446Y0175850D01*
X0115626Y0174670D02*
X0078984Y0174670D01*
X0078984Y0173490D02*
X0116805Y0173490D01*
X0117985Y0172311D02*
X0078984Y0172311D01*
X0078984Y0171131D02*
X0119164Y0171131D01*
X0120344Y0169952D02*
X0078984Y0169952D01*
X0078984Y0168772D02*
X0121524Y0168772D01*
X0122703Y0167592D02*
X0078984Y0167592D01*
X0078984Y0166413D02*
X0123883Y0166413D01*
X0125062Y0165233D02*
X0078984Y0165233D01*
X0078984Y0164054D02*
X0126242Y0164054D01*
X0127422Y0162874D02*
X0078984Y0162874D01*
X0078984Y0161694D02*
X0128601Y0161694D01*
X0129781Y0160515D02*
X0078984Y0160515D01*
X0078984Y0159335D02*
X0130961Y0159335D01*
X0132140Y0158155D02*
X0078984Y0158155D01*
X0078984Y0156976D02*
X0133320Y0156976D01*
X0134499Y0155796D02*
X0078984Y0155796D01*
X0078984Y0154617D02*
X0135679Y0154617D01*
X0136859Y0153437D02*
X0078984Y0153437D01*
X0078984Y0152257D02*
X0138038Y0152257D01*
X0139218Y0151078D02*
X0078984Y0151078D01*
X0078984Y0149898D02*
X0140397Y0149898D01*
X0141577Y0148719D02*
X0078984Y0148719D01*
X0078984Y0147539D02*
X0142757Y0147539D01*
X0143936Y0146359D02*
X0078984Y0146359D01*
X0078984Y0145180D02*
X0145116Y0145180D01*
X0146295Y0144000D02*
X0078984Y0144000D01*
X0078984Y0142820D02*
X0147475Y0142820D01*
X0148655Y0141641D02*
X0078984Y0141641D01*
X0078984Y0140461D02*
X0149834Y0140461D01*
X0151014Y0139282D02*
X0078984Y0139282D01*
X0078984Y0138102D02*
X0152194Y0138102D01*
X0153373Y0136922D02*
X0078984Y0136922D01*
X0078984Y0135743D02*
X0154553Y0135743D01*
X0155732Y0134563D02*
X0078984Y0134563D01*
X0078984Y0133384D02*
X0209652Y0133384D01*
X0209652Y0132204D02*
X0190189Y0132204D01*
X0189936Y0132309D02*
X0188836Y0132309D01*
X0187819Y0131888D01*
X0187256Y0131324D01*
X0179960Y0131324D01*
X0179951Y0131315D01*
X0167352Y0131315D01*
X0166582Y0132084D01*
X0165566Y0132505D01*
X0164466Y0132505D01*
X0163449Y0132084D01*
X0162671Y0131307D01*
X0162250Y0130290D01*
X0162250Y0129190D01*
X0162671Y0128174D01*
X0163449Y0127396D01*
X0164466Y0126975D01*
X0165566Y0126975D01*
X0166582Y0127396D01*
X0166939Y0127753D01*
X0181427Y0127753D01*
X0181436Y0127762D01*
X0187256Y0127762D01*
X0187819Y0127199D01*
X0188836Y0126778D01*
X0189936Y0126778D01*
X0190952Y0127199D01*
X0191730Y0127977D01*
X0192151Y0128993D01*
X0192151Y0130093D01*
X0191730Y0131110D01*
X0190952Y0131888D01*
X0189936Y0132309D01*
X0188583Y0132204D02*
X0166294Y0132204D01*
X0163738Y0132204D02*
X0109120Y0132204D01*
X0110092Y0131024D02*
X0162554Y0131024D01*
X0162250Y0129845D02*
X0110576Y0129845D01*
X0110576Y0128665D02*
X0162468Y0128665D01*
X0163360Y0127485D02*
X0110277Y0127485D01*
X0109567Y0126306D02*
X0212939Y0126306D01*
X0211759Y0127485D02*
X0191239Y0127485D01*
X0192015Y0128665D02*
X0210580Y0128665D01*
X0209652Y0129845D02*
X0192151Y0129845D01*
X0191766Y0131024D02*
X0209652Y0131024D01*
X0213258Y0131024D02*
X0214086Y0131024D01*
X0213786Y0132204D02*
X0213214Y0132204D01*
X0213214Y0133384D02*
X0214007Y0133384D01*
X0214707Y0134563D02*
X0213214Y0134563D01*
X0213214Y0135743D02*
X0213925Y0135743D01*
X0216551Y0136630D02*
X0216551Y0141748D01*
X0218126Y0143323D01*
X0232693Y0143323D01*
X0251000Y0161630D01*
X0251000Y0212811D01*
X0249622Y0214189D01*
X0247483Y0212418D02*
X0230685Y0212418D01*
X0231864Y0213597D02*
X0246874Y0213597D01*
X0246872Y0214777D02*
X0233044Y0214777D01*
X0234223Y0215957D02*
X0247479Y0215957D01*
X0251765Y0215957D02*
X0369079Y0215957D01*
X0369079Y0217136D02*
X0235403Y0217136D01*
X0236583Y0218316D02*
X0369079Y0218316D01*
X0369079Y0219495D02*
X0237762Y0219495D01*
X0238942Y0220675D02*
X0369079Y0220675D01*
X0369079Y0221855D02*
X0240121Y0221855D01*
X0241301Y0223034D02*
X0369079Y0223034D01*
X0369079Y0224214D02*
X0242481Y0224214D01*
X0243660Y0225393D02*
X0369079Y0225393D01*
X0369079Y0226573D02*
X0244840Y0226573D01*
X0246020Y0227753D02*
X0369079Y0227753D01*
X0369079Y0228932D02*
X0253709Y0228932D01*
X0254330Y0230112D02*
X0369079Y0230112D01*
X0369079Y0231291D02*
X0254349Y0231291D01*
X0253755Y0232471D02*
X0369079Y0232471D01*
X0369079Y0233651D02*
X0363540Y0233651D01*
X0364894Y0234212D02*
X0367395Y0236712D01*
X0368748Y0239980D01*
X0368748Y0243516D01*
X0367395Y0246784D01*
X0364894Y0249284D01*
X0361627Y0250638D01*
X0358090Y0250638D01*
X0354823Y0249284D01*
X0352322Y0246784D01*
X0350969Y0243516D01*
X0350969Y0239980D01*
X0352322Y0236712D01*
X0354823Y0234212D01*
X0358090Y0232858D01*
X0361627Y0232858D01*
X0364894Y0234212D01*
X0365513Y0234830D02*
X0369079Y0234830D01*
X0369079Y0236010D02*
X0366692Y0236010D01*
X0367592Y0237190D02*
X0369079Y0237190D01*
X0369079Y0238369D02*
X0368081Y0238369D01*
X0368570Y0239549D02*
X0369079Y0239549D01*
X0369079Y0240728D02*
X0368748Y0240728D01*
X0368748Y0241908D02*
X0369079Y0241908D01*
X0369079Y0243088D02*
X0368748Y0243088D01*
X0368437Y0244267D02*
X0369079Y0244267D01*
X0369079Y0245447D02*
X0367948Y0245447D01*
X0367460Y0246626D02*
X0369079Y0246626D01*
X0369079Y0247806D02*
X0366372Y0247806D01*
X0365193Y0248986D02*
X0369079Y0248986D01*
X0369079Y0250165D02*
X0362767Y0250165D01*
X0356949Y0250165D02*
X0091114Y0250165D01*
X0089973Y0250638D02*
X0093240Y0249284D01*
X0095741Y0246784D01*
X0097094Y0243516D01*
X0097094Y0239980D01*
X0095741Y0236712D01*
X0093240Y0234212D01*
X0089973Y0232858D01*
X0086436Y0232858D01*
X0083169Y0234212D01*
X0080668Y0236712D01*
X0079315Y0239980D01*
X0079315Y0243516D01*
X0080668Y0246784D01*
X0083169Y0249284D01*
X0086436Y0250638D01*
X0089973Y0250638D01*
X0093539Y0248986D02*
X0354524Y0248986D01*
X0353344Y0247806D02*
X0177407Y0247806D01*
X0177047Y0247990D02*
X0176255Y0248247D01*
X0175432Y0248377D01*
X0175425Y0248377D01*
X0175425Y0243496D01*
X0180306Y0243496D01*
X0180306Y0243503D01*
X0180176Y0244325D01*
X0179919Y0245117D01*
X0179541Y0245859D01*
X0179051Y0246533D01*
X0178462Y0247122D01*
X0177789Y0247611D01*
X0177047Y0247990D01*
X0175425Y0247806D02*
X0174606Y0247806D01*
X0174606Y0246626D02*
X0175425Y0246626D01*
X0175425Y0245447D02*
X0174606Y0245447D01*
X0174606Y0244267D02*
X0175425Y0244267D01*
X0175425Y0243088D02*
X0350969Y0243088D01*
X0350969Y0241908D02*
X0180186Y0241908D01*
X0179752Y0240728D02*
X0350969Y0240728D01*
X0351147Y0239549D02*
X0178960Y0239549D01*
X0177411Y0238369D02*
X0351636Y0238369D01*
X0352124Y0237190D02*
X0177829Y0237190D01*
X0179009Y0236010D02*
X0353024Y0236010D01*
X0354204Y0234830D02*
X0179587Y0234830D01*
X0179906Y0233651D02*
X0356177Y0233651D01*
X0351280Y0244267D02*
X0180185Y0244267D01*
X0179751Y0245447D02*
X0351768Y0245447D01*
X0352257Y0246626D02*
X0178958Y0246626D01*
X0172625Y0247806D02*
X0166402Y0247806D01*
X0168392Y0246626D02*
X0171074Y0246626D01*
X0170281Y0245447D02*
X0169332Y0245447D01*
X0169820Y0244267D02*
X0169846Y0244267D01*
X0165016Y0243087D02*
X0165016Y0240003D01*
X0169906Y0235112D01*
X0169906Y0199417D01*
X0187743Y0181580D01*
X0191693Y0181580D01*
X0196176Y0177096D01*
X0196176Y0172541D01*
X0188287Y0164652D01*
X0185996Y0164652D01*
X0182916Y0167732D01*
X0182299Y0167732D01*
X0179737Y0168772D02*
X0161586Y0168772D01*
X0162755Y0167592D02*
X0179534Y0167592D01*
X0179853Y0166413D02*
X0163057Y0166413D01*
X0162960Y0165233D02*
X0173974Y0165233D01*
X0172795Y0164054D02*
X0164140Y0164054D01*
X0164365Y0162874D02*
X0171615Y0162874D01*
X0170435Y0161694D02*
X0164365Y0161694D01*
X0164365Y0160515D02*
X0169256Y0160515D01*
X0168992Y0157732D02*
X0175673Y0164413D01*
X0183717Y0164413D01*
X0185259Y0162871D01*
X0189025Y0162871D01*
X0197957Y0171803D01*
X0197957Y0177834D01*
X0191748Y0184043D01*
X0191748Y0193323D01*
X0190751Y0195903D02*
X0175939Y0195903D01*
X0177118Y0194723D02*
X0189335Y0194723D01*
X0188983Y0193544D02*
X0178298Y0193544D01*
X0179477Y0192364D02*
X0189152Y0192364D01*
X0189967Y0191185D02*
X0180657Y0191185D01*
X0181837Y0190005D02*
X0189967Y0190005D01*
X0189967Y0188825D02*
X0183016Y0188825D01*
X0184196Y0187646D02*
X0189967Y0187646D01*
X0189967Y0186466D02*
X0185376Y0186466D01*
X0186555Y0185287D02*
X0189967Y0185287D01*
X0189967Y0184107D02*
X0187735Y0184107D01*
X0185587Y0179798D02*
X0165016Y0200370D01*
X0165016Y0233087D01*
X0160466Y0231291D02*
X0159566Y0231291D01*
X0159906Y0232471D02*
X0160125Y0232471D01*
X0160125Y0233651D02*
X0159906Y0233651D01*
X0159587Y0234830D02*
X0160445Y0234830D01*
X0161023Y0236010D02*
X0159009Y0236010D01*
X0157829Y0237190D02*
X0162202Y0237190D01*
X0163625Y0238369D02*
X0156406Y0238369D01*
X0158394Y0239549D02*
X0161637Y0239549D01*
X0160699Y0240728D02*
X0159332Y0240728D01*
X0159821Y0241908D02*
X0160210Y0241908D01*
X0160125Y0243088D02*
X0159906Y0243088D01*
X0159820Y0244267D02*
X0160211Y0244267D01*
X0160700Y0245447D02*
X0159332Y0245447D01*
X0158392Y0246626D02*
X0161639Y0246626D01*
X0163630Y0247806D02*
X0156402Y0247806D01*
X0153630Y0247806D02*
X0146402Y0247806D01*
X0148392Y0246626D02*
X0151639Y0246626D01*
X0150700Y0245447D02*
X0149332Y0245447D01*
X0149820Y0244267D02*
X0150211Y0244267D01*
X0150125Y0243088D02*
X0149906Y0243088D01*
X0149821Y0241908D02*
X0150210Y0241908D01*
X0150139Y0240728D02*
X0149332Y0240728D01*
X0148959Y0239549D02*
X0148394Y0239549D01*
X0148156Y0238369D02*
X0146406Y0238369D01*
X0147829Y0237190D02*
X0148156Y0237190D01*
X0149937Y0238008D02*
X0155016Y0243087D01*
X0153625Y0238369D02*
X0152817Y0238369D01*
X0152202Y0237190D02*
X0151719Y0237190D01*
X0149937Y0238008D02*
X0149937Y0223322D01*
X0144760Y0218145D01*
X0140272Y0218145D01*
X0135824Y0213696D01*
X0135824Y0199484D01*
X0139229Y0196079D01*
X0140095Y0195213D01*
X0147438Y0187870D01*
X0147438Y0158762D01*
X0150101Y0156099D01*
X0157884Y0156099D01*
X0162584Y0160799D01*
X0162584Y0163090D01*
X0160291Y0165383D01*
X0160291Y0166315D01*
X0157746Y0165233D02*
X0153765Y0165233D01*
X0153765Y0164054D02*
X0158017Y0164054D01*
X0157194Y0161945D02*
X0153130Y0157880D01*
X0150839Y0157880D01*
X0149219Y0159500D01*
X0149219Y0188608D01*
X0137605Y0200222D01*
X0137605Y0201640D01*
X0137605Y0202378D01*
X0137605Y0212958D01*
X0141010Y0216364D01*
X0145498Y0216364D01*
X0155134Y0226000D01*
X0155134Y0232969D01*
X0155016Y0233087D01*
X0158957Y0230112D02*
X0161074Y0230112D01*
X0162266Y0228932D02*
X0157766Y0228932D01*
X0156915Y0227753D02*
X0163235Y0227753D01*
X0163235Y0226573D02*
X0156915Y0226573D01*
X0156915Y0225393D02*
X0163235Y0225393D01*
X0163235Y0224214D02*
X0155866Y0224214D01*
X0155872Y0224219D02*
X0155872Y0224219D01*
X0154687Y0223034D02*
X0163235Y0223034D01*
X0163235Y0221855D02*
X0153507Y0221855D01*
X0152328Y0220675D02*
X0163235Y0220675D01*
X0163235Y0219495D02*
X0151148Y0219495D01*
X0149968Y0218316D02*
X0163235Y0218316D01*
X0163235Y0217136D02*
X0148789Y0217136D01*
X0148011Y0215957D02*
X0163235Y0215957D01*
X0163235Y0214777D02*
X0149191Y0214777D01*
X0150025Y0213597D02*
X0152495Y0213597D01*
X0153993Y0213597D02*
X0163235Y0213597D01*
X0163235Y0212418D02*
X0155782Y0212418D01*
X0156353Y0211238D02*
X0163235Y0211238D01*
X0163235Y0210058D02*
X0156403Y0210058D01*
X0155997Y0208879D02*
X0163235Y0208879D01*
X0163235Y0207699D02*
X0155501Y0207699D01*
X0156236Y0206520D02*
X0163235Y0206520D01*
X0163235Y0205340D02*
X0156403Y0205340D01*
X0157091Y0204160D02*
X0163235Y0204160D01*
X0163235Y0202981D02*
X0158270Y0202981D01*
X0159450Y0201801D02*
X0163235Y0201801D01*
X0163235Y0200622D02*
X0160630Y0200622D01*
X0161809Y0199442D02*
X0163425Y0199442D01*
X0164278Y0198589D02*
X0164278Y0198589D01*
X0164605Y0198262D02*
X0162989Y0198262D01*
X0164168Y0197083D02*
X0165784Y0197083D01*
X0165348Y0195903D02*
X0166964Y0195903D01*
X0166528Y0194723D02*
X0168144Y0194723D01*
X0167707Y0193544D02*
X0169323Y0193544D01*
X0168887Y0192364D02*
X0170503Y0192364D01*
X0170066Y0191185D02*
X0171682Y0191185D01*
X0171246Y0190005D02*
X0172862Y0190005D01*
X0172426Y0188825D02*
X0174042Y0188825D01*
X0173605Y0187646D02*
X0175221Y0187646D01*
X0174785Y0186466D02*
X0176401Y0186466D01*
X0175965Y0185287D02*
X0177580Y0185287D01*
X0177144Y0184107D02*
X0178760Y0184107D01*
X0178324Y0182927D02*
X0179940Y0182927D01*
X0179503Y0181748D02*
X0181119Y0181748D01*
X0180683Y0180568D02*
X0182299Y0180568D01*
X0180715Y0178017D02*
X0188825Y0178017D01*
X0191630Y0175213D01*
X0192172Y0172447D02*
X0192775Y0172447D01*
X0194395Y0174067D01*
X0194395Y0176358D01*
X0190955Y0179798D01*
X0185587Y0179798D01*
X0180715Y0178017D02*
X0153244Y0205488D01*
X0148244Y0205488D02*
X0178480Y0175252D01*
X0187614Y0175252D01*
X0189516Y0172311D02*
X0153765Y0172311D01*
X0153765Y0173490D02*
X0177723Y0173490D01*
X0176543Y0174670D02*
X0153765Y0174670D01*
X0153765Y0175850D02*
X0175364Y0175850D01*
X0174184Y0177029D02*
X0153765Y0177029D01*
X0153765Y0178209D02*
X0173005Y0178209D01*
X0171825Y0179388D02*
X0153765Y0179388D01*
X0153765Y0180568D02*
X0170645Y0180568D01*
X0169466Y0181748D02*
X0153765Y0181748D01*
X0153765Y0182927D02*
X0168286Y0182927D01*
X0167106Y0184107D02*
X0153765Y0184107D01*
X0153765Y0185287D02*
X0165927Y0185287D01*
X0164747Y0186466D02*
X0153765Y0186466D01*
X0153765Y0187646D02*
X0163568Y0187646D01*
X0162388Y0188825D02*
X0153765Y0188825D01*
X0153765Y0190005D02*
X0161208Y0190005D01*
X0160029Y0191185D02*
X0153098Y0191185D01*
X0151918Y0192364D02*
X0158849Y0192364D01*
X0157670Y0193544D02*
X0150739Y0193544D01*
X0149559Y0194723D02*
X0156490Y0194723D01*
X0155310Y0195903D02*
X0148380Y0195903D01*
X0147200Y0197083D02*
X0154131Y0197083D01*
X0152951Y0198262D02*
X0146020Y0198262D01*
X0144841Y0199442D02*
X0151772Y0199442D01*
X0150592Y0200622D02*
X0143661Y0200622D01*
X0142481Y0201801D02*
X0149412Y0201801D01*
X0146284Y0202981D02*
X0145204Y0202981D01*
X0139386Y0202378D02*
X0139386Y0212220D01*
X0141748Y0214583D01*
X0146866Y0214583D01*
X0148244Y0213205D01*
X0148244Y0210488D01*
X0139386Y0202378D02*
X0151984Y0189780D01*
X0151984Y0160646D01*
X0153765Y0162874D02*
X0155604Y0162874D01*
X0157194Y0161945D02*
X0159819Y0161945D01*
X0162459Y0158155D02*
X0166227Y0158155D01*
X0166312Y0156976D02*
X0161279Y0156976D01*
X0160100Y0155796D02*
X0167017Y0155796D01*
X0170967Y0155796D02*
X0207533Y0155796D01*
X0207487Y0154617D02*
X0158920Y0154617D01*
X0155122Y0151078D02*
X0168033Y0151078D01*
X0170094Y0149228D02*
X0159071Y0149228D01*
X0157102Y0149228D01*
X0154453Y0149228D01*
X0145657Y0158025D01*
X0145657Y0160674D01*
X0135449Y0170882D01*
X0135449Y0187811D01*
X0118126Y0205134D01*
X0124386Y0205134D01*
X0145016Y0225764D01*
X0145016Y0233087D01*
X0140125Y0235112D02*
X0140125Y0223708D01*
X0139858Y0223441D01*
X0138933Y0222516D01*
X0124317Y0207899D01*
X0116981Y0207899D01*
X0115361Y0206279D01*
X0115361Y0203988D01*
X0118126Y0201223D01*
X0118126Y0197654D01*
X0131512Y0184268D01*
X0131512Y0170882D01*
X0143876Y0158518D01*
X0143876Y0157287D01*
X0157052Y0144110D01*
X0158283Y0144110D01*
X0159071Y0144110D01*
X0161433Y0144110D01*
X0163983Y0145180D02*
X0232031Y0145180D01*
X0233211Y0146359D02*
X0163095Y0146359D01*
X0164198Y0144000D02*
X0216284Y0144000D01*
X0215813Y0143529D02*
X0215813Y0143529D01*
X0215105Y0142820D02*
X0163892Y0142820D01*
X0162698Y0141641D02*
X0214770Y0141641D01*
X0214770Y0140461D02*
X0213087Y0140461D01*
X0213980Y0139282D02*
X0214770Y0139282D01*
X0219317Y0140576D02*
X0219317Y0135484D01*
X0216551Y0132719D01*
X0216551Y0132299D01*
X0219317Y0132204D02*
X0252069Y0132204D01*
X0252069Y0133384D02*
X0219734Y0133384D01*
X0220914Y0134563D02*
X0252069Y0134563D01*
X0252069Y0135743D02*
X0221098Y0135743D01*
X0221098Y0136922D02*
X0252069Y0136922D01*
X0252069Y0138102D02*
X0221098Y0138102D01*
X0221098Y0139282D02*
X0252069Y0139282D01*
X0252069Y0140461D02*
X0237862Y0140461D01*
X0239042Y0141641D02*
X0252069Y0141641D01*
X0252069Y0142820D02*
X0240221Y0142820D01*
X0241401Y0144000D02*
X0252069Y0144000D01*
X0252069Y0145180D02*
X0242580Y0145180D01*
X0243760Y0146359D02*
X0252069Y0146359D01*
X0252069Y0147539D02*
X0244940Y0147539D01*
X0246119Y0148719D02*
X0252069Y0148719D01*
X0252069Y0149898D02*
X0247299Y0149898D01*
X0248478Y0151078D02*
X0252069Y0151078D01*
X0252069Y0152257D02*
X0251050Y0152257D01*
X0251600Y0153437D02*
X0252069Y0153437D01*
X0252069Y0154617D02*
X0251553Y0154617D01*
X0252069Y0155796D02*
X0250902Y0155796D01*
X0252069Y0156976D02*
X0248865Y0156976D01*
X0250044Y0158155D02*
X0252069Y0158155D01*
X0252069Y0159335D02*
X0251224Y0159335D01*
X0248546Y0161694D02*
X0246890Y0161694D01*
X0247366Y0160515D02*
X0214395Y0160515D01*
X0214395Y0161694D02*
X0242511Y0161694D01*
X0241332Y0162874D02*
X0214395Y0162874D01*
X0214395Y0164054D02*
X0240152Y0164054D01*
X0238972Y0165233D02*
X0214395Y0165233D01*
X0215388Y0166413D02*
X0237793Y0166413D01*
X0236613Y0167592D02*
X0216568Y0167592D01*
X0216551Y0170094D02*
X0212614Y0166157D01*
X0212614Y0157496D01*
X0210252Y0155134D01*
X0208183Y0156976D02*
X0171672Y0156976D01*
X0171934Y0158155D02*
X0210755Y0158155D01*
X0210833Y0159335D02*
X0173114Y0159335D01*
X0174293Y0160515D02*
X0206472Y0160515D01*
X0205912Y0161694D02*
X0190367Y0161694D01*
X0191547Y0162874D02*
X0205955Y0162874D01*
X0206599Y0164054D02*
X0192726Y0164054D01*
X0193906Y0165233D02*
X0209052Y0165233D01*
X0209052Y0166413D02*
X0195086Y0166413D01*
X0196265Y0167592D02*
X0209052Y0167592D01*
X0210046Y0168772D02*
X0197445Y0168772D01*
X0198625Y0169952D02*
X0210046Y0169952D01*
X0210046Y0171131D02*
X0199739Y0171131D01*
X0199739Y0172311D02*
X0210046Y0172311D01*
X0210046Y0173490D02*
X0199739Y0173490D01*
X0199739Y0174670D02*
X0210046Y0174670D01*
X0210046Y0175850D02*
X0199739Y0175850D01*
X0199739Y0177029D02*
X0210046Y0177029D01*
X0210046Y0178209D02*
X0199739Y0178209D01*
X0198921Y0179388D02*
X0210046Y0179388D01*
X0210046Y0180568D02*
X0197742Y0180568D01*
X0196562Y0181748D02*
X0208716Y0181748D01*
X0207420Y0182927D02*
X0195383Y0182927D01*
X0194203Y0184107D02*
X0207093Y0184107D01*
X0207287Y0185287D02*
X0193529Y0185287D01*
X0193529Y0186466D02*
X0208146Y0186466D01*
X0209475Y0188825D02*
X0193529Y0188825D01*
X0193529Y0187646D02*
X0210654Y0187646D01*
X0211571Y0186466D02*
X0211834Y0186466D01*
X0212429Y0185287D02*
X0213013Y0185287D01*
X0213195Y0184107D02*
X0212624Y0184107D01*
X0211827Y0182299D02*
X0211827Y0167889D01*
X0210833Y0166895D01*
X0210833Y0164376D01*
X0208677Y0162220D01*
X0214395Y0159335D02*
X0246186Y0159335D01*
X0245007Y0158155D02*
X0214395Y0158155D01*
X0214395Y0156976D02*
X0243827Y0156976D01*
X0242647Y0155796D02*
X0213433Y0155796D01*
X0213017Y0154617D02*
X0241468Y0154617D01*
X0240288Y0153437D02*
X0212466Y0153437D01*
X0208038Y0153437D02*
X0152763Y0153437D01*
X0153943Y0152257D02*
X0239109Y0152257D01*
X0237929Y0151078D02*
X0172156Y0151078D01*
X0172810Y0149898D02*
X0236749Y0149898D01*
X0235570Y0148719D02*
X0172860Y0148719D01*
X0172316Y0147539D02*
X0234390Y0147539D01*
X0236424Y0141542D02*
X0248835Y0153953D01*
X0249219Y0162874D02*
X0248070Y0162874D01*
X0245685Y0163008D02*
X0248047Y0165370D01*
X0248047Y0168913D01*
X0246354Y0171131D02*
X0245498Y0171131D01*
X0244413Y0172311D02*
X0249219Y0172311D01*
X0249219Y0173490D02*
X0243233Y0173490D01*
X0242054Y0174670D02*
X0249219Y0174670D01*
X0249219Y0175850D02*
X0240874Y0175850D01*
X0239694Y0177029D02*
X0249219Y0177029D01*
X0249219Y0178209D02*
X0238515Y0178209D01*
X0237335Y0179388D02*
X0249219Y0179388D01*
X0249219Y0180568D02*
X0236155Y0180568D01*
X0234976Y0181748D02*
X0249219Y0181748D01*
X0249219Y0182927D02*
X0233796Y0182927D01*
X0232617Y0184107D02*
X0249219Y0184107D01*
X0249219Y0185287D02*
X0231437Y0185287D01*
X0230257Y0186466D02*
X0249219Y0186466D01*
X0249219Y0187646D02*
X0229078Y0187646D01*
X0227898Y0188825D02*
X0249219Y0188825D01*
X0249219Y0190005D02*
X0226719Y0190005D01*
X0225539Y0191185D02*
X0249219Y0191185D01*
X0249219Y0192364D02*
X0224359Y0192364D01*
X0223180Y0193544D02*
X0249219Y0193544D01*
X0249219Y0194723D02*
X0222000Y0194723D01*
X0220882Y0193323D02*
X0243717Y0170488D01*
X0243717Y0167732D01*
X0243717Y0163008D02*
X0236630Y0170094D01*
X0216551Y0170094D01*
X0214976Y0174031D02*
X0214976Y0185843D01*
X0210252Y0190567D01*
X0210252Y0194504D01*
X0246472Y0230724D01*
X0251591Y0230724D01*
X0249472Y0228932D02*
X0247199Y0228932D01*
X0244521Y0231291D02*
X0179566Y0231291D01*
X0179906Y0232471D02*
X0245700Y0232471D01*
X0243341Y0230112D02*
X0178957Y0230112D01*
X0177766Y0228932D02*
X0242161Y0228932D01*
X0240982Y0227753D02*
X0171687Y0227753D01*
X0171687Y0228932D02*
X0172266Y0228932D01*
X0171687Y0226573D02*
X0239802Y0226573D01*
X0238623Y0225393D02*
X0171687Y0225393D01*
X0171687Y0224214D02*
X0237443Y0224214D01*
X0236263Y0223034D02*
X0171687Y0223034D01*
X0171687Y0221855D02*
X0235084Y0221855D01*
X0233904Y0220675D02*
X0171687Y0220675D01*
X0171687Y0219495D02*
X0232725Y0219495D01*
X0231545Y0218316D02*
X0171687Y0218316D01*
X0171687Y0217136D02*
X0230365Y0217136D01*
X0229186Y0215957D02*
X0171687Y0215957D01*
X0171687Y0214777D02*
X0228006Y0214777D01*
X0226826Y0213597D02*
X0171687Y0213597D01*
X0171687Y0212418D02*
X0225647Y0212418D01*
X0224467Y0211238D02*
X0171687Y0211238D01*
X0171687Y0210058D02*
X0223288Y0210058D01*
X0222108Y0208879D02*
X0171687Y0208879D01*
X0171687Y0207699D02*
X0220928Y0207699D01*
X0219749Y0206520D02*
X0171687Y0206520D01*
X0171687Y0205340D02*
X0218569Y0205340D01*
X0217390Y0204160D02*
X0171687Y0204160D01*
X0171687Y0202981D02*
X0216210Y0202981D01*
X0215030Y0201801D02*
X0171687Y0201801D01*
X0171687Y0200622D02*
X0213851Y0200622D01*
X0212671Y0199442D02*
X0172400Y0199442D01*
X0173579Y0198262D02*
X0211491Y0198262D01*
X0210312Y0197083D02*
X0174759Y0197083D01*
X0192745Y0195903D02*
X0209132Y0195903D01*
X0208471Y0194723D02*
X0194161Y0194723D01*
X0194513Y0193544D02*
X0208471Y0193544D01*
X0208471Y0192364D02*
X0194344Y0192364D01*
X0193529Y0191185D02*
X0208471Y0191185D01*
X0208471Y0190005D02*
X0193529Y0190005D01*
X0209858Y0184268D02*
X0211827Y0182299D01*
X0213795Y0193323D02*
X0220882Y0193323D01*
X0215350Y0197083D02*
X0249219Y0197083D01*
X0249219Y0198262D02*
X0216529Y0198262D01*
X0217709Y0199442D02*
X0249219Y0199442D01*
X0249219Y0200622D02*
X0218888Y0200622D01*
X0220068Y0201801D02*
X0249219Y0201801D01*
X0249219Y0202981D02*
X0221248Y0202981D01*
X0222427Y0204160D02*
X0249219Y0204160D01*
X0249219Y0205340D02*
X0223607Y0205340D01*
X0224786Y0206520D02*
X0249219Y0206520D01*
X0249219Y0207699D02*
X0225966Y0207699D01*
X0227146Y0208879D02*
X0249219Y0208879D01*
X0249219Y0210058D02*
X0228325Y0210058D01*
X0229505Y0211238D02*
X0249219Y0211238D01*
X0252781Y0212418D02*
X0252829Y0212418D01*
X0252733Y0213597D02*
X0369079Y0213597D01*
X0369079Y0212418D02*
X0280275Y0212418D01*
X0281034Y0211238D02*
X0369079Y0211238D01*
X0369079Y0210058D02*
X0281031Y0210058D01*
X0281028Y0208879D02*
X0369079Y0208879D01*
X0369079Y0207699D02*
X0281024Y0207699D01*
X0281021Y0206520D02*
X0369079Y0206520D01*
X0369079Y0205340D02*
X0281018Y0205340D01*
X0281014Y0204160D02*
X0369079Y0204160D01*
X0369079Y0202981D02*
X0281011Y0202981D01*
X0281008Y0201801D02*
X0369079Y0201801D01*
X0369079Y0200622D02*
X0281004Y0200622D01*
X0281001Y0199442D02*
X0369079Y0199442D01*
X0369079Y0198262D02*
X0280998Y0198262D01*
X0280994Y0197083D02*
X0369079Y0197083D01*
X0369079Y0195903D02*
X0280991Y0195903D01*
X0280988Y0194723D02*
X0369079Y0194723D01*
X0369079Y0193544D02*
X0280984Y0193544D01*
X0280981Y0192364D02*
X0369079Y0192364D01*
X0369079Y0191185D02*
X0280978Y0191185D01*
X0280974Y0190005D02*
X0369079Y0190005D01*
X0369079Y0188825D02*
X0280971Y0188825D01*
X0280968Y0187646D02*
X0369079Y0187646D01*
X0369079Y0186466D02*
X0280964Y0186466D01*
X0280961Y0185287D02*
X0369079Y0185287D01*
X0369079Y0184107D02*
X0280958Y0184107D01*
X0280954Y0182927D02*
X0369079Y0182927D01*
X0369079Y0181748D02*
X0280951Y0181748D01*
X0280948Y0180568D02*
X0332307Y0180568D01*
X0332551Y0180812D02*
X0331385Y0179646D01*
X0330754Y0178123D01*
X0330754Y0176475D01*
X0331385Y0174952D01*
X0332551Y0173787D01*
X0334073Y0173156D01*
X0335722Y0173156D01*
X0337245Y0173787D01*
X0338410Y0174952D01*
X0339041Y0176475D01*
X0339041Y0178123D01*
X0338410Y0179646D01*
X0337245Y0180812D01*
X0335722Y0181443D01*
X0334073Y0181443D01*
X0332551Y0180812D01*
X0331278Y0179388D02*
X0280944Y0179388D01*
X0280941Y0178209D02*
X0330790Y0178209D01*
X0330754Y0177029D02*
X0280938Y0177029D01*
X0280934Y0175850D02*
X0331013Y0175850D01*
X0331667Y0174670D02*
X0280931Y0174670D01*
X0280928Y0173490D02*
X0333266Y0173490D01*
X0336529Y0173490D02*
X0369079Y0173490D01*
X0369079Y0172311D02*
X0280924Y0172311D01*
X0280921Y0171131D02*
X0312608Y0171131D01*
X0311695Y0170753D02*
X0309948Y0169006D01*
X0309002Y0166723D01*
X0309002Y0164253D01*
X0309948Y0161970D01*
X0311695Y0160223D01*
X0313977Y0159278D01*
X0316448Y0159278D01*
X0318730Y0160223D01*
X0320477Y0161970D01*
X0321423Y0164253D01*
X0321423Y0166723D01*
X0320477Y0169006D01*
X0318730Y0170753D01*
X0316448Y0171698D01*
X0313977Y0171698D01*
X0311695Y0170753D01*
X0310893Y0169952D02*
X0280918Y0169952D01*
X0280914Y0168772D02*
X0309851Y0168772D01*
X0309362Y0167592D02*
X0280911Y0167592D01*
X0280908Y0166413D02*
X0309002Y0166413D01*
X0309002Y0165233D02*
X0280904Y0165233D01*
X0280901Y0164054D02*
X0309085Y0164054D01*
X0309574Y0162874D02*
X0280898Y0162874D01*
X0280894Y0161694D02*
X0310224Y0161694D01*
X0311404Y0160515D02*
X0280891Y0160515D01*
X0280888Y0159335D02*
X0313839Y0159335D01*
X0316586Y0159335D02*
X0369079Y0159335D01*
X0369079Y0160515D02*
X0319022Y0160515D01*
X0320201Y0161694D02*
X0369079Y0161694D01*
X0369079Y0162874D02*
X0320852Y0162874D01*
X0321340Y0164054D02*
X0369079Y0164054D01*
X0369079Y0165233D02*
X0321423Y0165233D01*
X0321423Y0166413D02*
X0369079Y0166413D01*
X0369079Y0167592D02*
X0321063Y0167592D01*
X0320574Y0168772D02*
X0369079Y0168772D01*
X0369079Y0169952D02*
X0319532Y0169952D01*
X0317817Y0171131D02*
X0369079Y0171131D01*
X0369079Y0174670D02*
X0338128Y0174670D01*
X0338782Y0175850D02*
X0369079Y0175850D01*
X0369079Y0177029D02*
X0339041Y0177029D01*
X0339006Y0178209D02*
X0369079Y0178209D01*
X0369079Y0179388D02*
X0338517Y0179388D01*
X0337488Y0180568D02*
X0369079Y0180568D01*
X0369079Y0214777D02*
X0252372Y0214777D01*
X0249219Y0195903D02*
X0214792Y0195903D01*
X0192172Y0172447D02*
X0187142Y0167417D01*
X0186034Y0169952D02*
X0183991Y0169952D01*
X0180608Y0169952D02*
X0153765Y0169952D01*
X0153765Y0171131D02*
X0188337Y0171131D01*
X0183916Y0161694D02*
X0175473Y0161694D01*
X0166684Y0159335D02*
X0163639Y0159335D01*
X0157526Y0166413D02*
X0153765Y0166413D01*
X0153765Y0167592D02*
X0157827Y0167592D01*
X0158997Y0168772D02*
X0153765Y0168772D01*
X0127575Y0170882D02*
X0158283Y0140173D01*
X0159071Y0140173D01*
X0161604Y0138795D02*
X0160216Y0137408D01*
X0157925Y0137408D01*
X0111798Y0183535D01*
X0111798Y0207755D01*
X0115505Y0211461D01*
X0120910Y0211461D01*
X0130125Y0220676D01*
X0130125Y0235112D01*
X0135016Y0240003D01*
X0135016Y0243087D01*
X0139906Y0243088D02*
X0140125Y0243088D01*
X0140211Y0244267D02*
X0139820Y0244267D01*
X0139332Y0245447D02*
X0140700Y0245447D01*
X0141639Y0246626D02*
X0138392Y0246626D01*
X0136402Y0247806D02*
X0143630Y0247806D01*
X0145016Y0243087D02*
X0145016Y0240003D01*
X0140125Y0235112D01*
X0139684Y0237190D02*
X0137829Y0237190D01*
X0136406Y0238369D02*
X0140863Y0238369D01*
X0141637Y0239549D02*
X0138394Y0239549D01*
X0139332Y0240728D02*
X0140699Y0240728D01*
X0140210Y0241908D02*
X0139821Y0241908D01*
X0133630Y0247806D02*
X0127407Y0247806D01*
X0128958Y0246626D02*
X0131639Y0246626D01*
X0130700Y0245447D02*
X0129751Y0245447D01*
X0130185Y0244267D02*
X0130211Y0244267D01*
X0125425Y0244267D02*
X0124606Y0244267D01*
X0124606Y0243496D02*
X0124606Y0248377D01*
X0124599Y0248377D01*
X0123777Y0248247D01*
X0122985Y0247990D01*
X0122243Y0247611D01*
X0121569Y0247122D01*
X0120980Y0246533D01*
X0120491Y0245859D01*
X0120113Y0245117D01*
X0119855Y0244325D01*
X0119725Y0243503D01*
X0119725Y0243496D01*
X0124606Y0243496D01*
X0124606Y0243088D02*
X0097094Y0243088D01*
X0097094Y0241908D02*
X0119846Y0241908D01*
X0120280Y0240728D02*
X0097094Y0240728D01*
X0096916Y0239549D02*
X0121072Y0239549D01*
X0122621Y0238369D02*
X0096427Y0238369D01*
X0095939Y0237190D02*
X0122202Y0237190D01*
X0121023Y0236010D02*
X0095039Y0236010D01*
X0093859Y0234830D02*
X0120445Y0234830D01*
X0120125Y0233651D02*
X0091886Y0233651D01*
X0084523Y0233651D02*
X0078984Y0233651D01*
X0078984Y0234830D02*
X0082550Y0234830D01*
X0081371Y0236010D02*
X0078984Y0236010D01*
X0078984Y0237190D02*
X0080471Y0237190D01*
X0079982Y0238369D02*
X0078984Y0238369D01*
X0078984Y0239549D02*
X0079493Y0239549D01*
X0079315Y0240728D02*
X0078984Y0240728D01*
X0078984Y0241908D02*
X0079315Y0241908D01*
X0079315Y0243088D02*
X0078984Y0243088D01*
X0078984Y0244267D02*
X0079626Y0244267D01*
X0080115Y0245447D02*
X0078984Y0245447D01*
X0078984Y0246626D02*
X0080603Y0246626D01*
X0081691Y0247806D02*
X0078984Y0247806D01*
X0078984Y0248986D02*
X0082870Y0248986D01*
X0085296Y0250165D02*
X0078984Y0250165D01*
X0078984Y0250969D02*
X0369079Y0250969D01*
X0369079Y0059299D01*
X0078984Y0059299D01*
X0078984Y0250969D01*
X0094719Y0247806D02*
X0122625Y0247806D01*
X0121074Y0246626D02*
X0095806Y0246626D01*
X0096295Y0245447D02*
X0120281Y0245447D01*
X0119846Y0244267D02*
X0096783Y0244267D01*
X0078984Y0232471D02*
X0120125Y0232471D01*
X0135016Y0233087D02*
X0135016Y0221630D01*
X0123066Y0209680D01*
X0116243Y0209680D01*
X0113580Y0207017D01*
X0113580Y0198289D01*
X0118520Y0193349D01*
X0118520Y0189386D01*
X0127575Y0180331D01*
X0127575Y0170882D01*
X0157322Y0146359D02*
X0159771Y0146359D01*
X0161604Y0138795D02*
X0165921Y0138795D01*
X0168166Y0140461D02*
X0209779Y0140461D01*
X0219317Y0140576D02*
X0220282Y0141542D01*
X0236424Y0141542D01*
X0229158Y0129845D02*
X0252069Y0129845D01*
X0252069Y0131024D02*
X0219016Y0131024D01*
X0217852Y0129845D02*
X0227567Y0129845D01*
X0230741Y0128665D02*
X0252069Y0128665D01*
X0252069Y0127485D02*
X0231128Y0127485D01*
X0230993Y0126306D02*
X0252069Y0126306D01*
X0252069Y0125126D02*
X0230218Y0125126D01*
X0215251Y0129845D02*
X0214438Y0129845D01*
X0189386Y0129543D02*
X0180698Y0129543D01*
X0180689Y0129534D01*
X0165222Y0129534D01*
X0165016Y0129740D01*
X0166672Y0127485D02*
X0187533Y0127485D01*
X0170331Y0137181D02*
X0168218Y0137181D01*
X0166664Y0135627D01*
X0123933Y0110971D02*
X0078984Y0110971D01*
X0078984Y0112151D02*
X0121867Y0112151D01*
X0120771Y0113330D02*
X0078984Y0113330D01*
X0078984Y0114510D02*
X0120086Y0114510D01*
X0119685Y0115689D02*
X0078984Y0115689D01*
X0078984Y0126306D02*
X0103299Y0126306D01*
X0102589Y0127485D02*
X0078984Y0127485D01*
X0078984Y0128665D02*
X0102290Y0128665D01*
X0102290Y0129845D02*
X0078984Y0129845D01*
X0078984Y0131024D02*
X0102774Y0131024D01*
X0103746Y0132204D02*
X0078984Y0132204D01*
X0078984Y0102714D02*
X0122514Y0102714D01*
X0121334Y0101534D02*
X0078984Y0101534D01*
X0078984Y0100354D02*
X0120564Y0100354D01*
X0120075Y0099175D02*
X0078984Y0099175D01*
X0078984Y0097995D02*
X0119908Y0097995D01*
X0119908Y0096816D02*
X0078984Y0096816D01*
X0078984Y0095636D02*
X0120183Y0095636D01*
X0120672Y0094456D02*
X0078984Y0094456D01*
X0078984Y0093277D02*
X0121594Y0093277D01*
X0123019Y0092097D02*
X0078984Y0092097D01*
X0078984Y0088558D02*
X0103407Y0088558D01*
X0102634Y0087379D02*
X0078984Y0087379D01*
X0078984Y0086199D02*
X0102290Y0086199D01*
X0102290Y0085019D02*
X0078984Y0085019D01*
X0078984Y0083840D02*
X0102729Y0083840D01*
X0103638Y0082660D02*
X0078984Y0082660D01*
X0078984Y0076762D02*
X0084874Y0076762D01*
X0082695Y0075582D02*
X0078984Y0075582D01*
X0078984Y0074403D02*
X0081516Y0074403D01*
X0080531Y0073223D02*
X0078984Y0073223D01*
X0078984Y0072044D02*
X0080042Y0072044D01*
X0079554Y0070864D02*
X0078984Y0070864D01*
X0078984Y0069684D02*
X0079315Y0069684D01*
X0079315Y0068505D02*
X0078984Y0068505D01*
X0078984Y0067325D02*
X0079315Y0067325D01*
X0079566Y0066146D02*
X0078984Y0066146D01*
X0078984Y0064966D02*
X0080055Y0064966D01*
X0080543Y0063786D02*
X0078984Y0063786D01*
X0078984Y0062607D02*
X0081546Y0062607D01*
X0082725Y0061427D02*
X0078984Y0061427D01*
X0078984Y0060248D02*
X0084945Y0060248D01*
X0091464Y0060248D02*
X0356599Y0060248D01*
X0354379Y0061427D02*
X0093684Y0061427D01*
X0094864Y0062607D02*
X0353199Y0062607D01*
X0352197Y0063786D02*
X0095866Y0063786D01*
X0096355Y0064966D02*
X0351708Y0064966D01*
X0351219Y0066146D02*
X0096844Y0066146D01*
X0097094Y0067325D02*
X0350969Y0067325D01*
X0363118Y0060248D02*
X0369079Y0060248D01*
X0369079Y0061427D02*
X0365338Y0061427D01*
X0366517Y0062607D02*
X0369079Y0062607D01*
X0369079Y0063786D02*
X0367520Y0063786D01*
X0368008Y0064966D02*
X0369079Y0064966D01*
X0369079Y0066146D02*
X0368497Y0066146D01*
X0368748Y0067325D02*
X0369079Y0067325D01*
X0369079Y0068505D02*
X0368748Y0068505D01*
X0368748Y0069684D02*
X0369079Y0069684D01*
X0369079Y0070864D02*
X0368509Y0070864D01*
X0368021Y0072044D02*
X0369079Y0072044D01*
X0369079Y0073223D02*
X0367532Y0073223D01*
X0366547Y0074403D02*
X0369079Y0074403D01*
X0369079Y0075582D02*
X0365367Y0075582D01*
X0363189Y0076762D02*
X0369079Y0076762D01*
X0245685Y0163008D02*
X0243717Y0163008D01*
X0125425Y0245447D02*
X0124606Y0245447D01*
X0124606Y0246626D02*
X0125425Y0246626D01*
X0125425Y0247806D02*
X0124606Y0247806D01*
D17*
X0253559Y0211039D02*
X0253559Y0111827D01*
X0248835Y0107102D01*
X0173244Y0107496D01*
X0172063Y0105528D01*
X0172063Y0085843D01*
X0174425Y0083874D01*
X0216551Y0083874D01*
X0230331Y0070094D01*
X0276787Y0070094D01*
X0279150Y0071669D01*
X0279543Y0211039D01*
X0278756Y0211827D01*
X0254346Y0211827D01*
X0253559Y0211039D01*
X0253644Y0211125D02*
X0279458Y0211125D01*
X0279542Y0210526D02*
X0253559Y0210526D01*
X0253559Y0209928D02*
X0279540Y0209928D01*
X0279538Y0209329D02*
X0253559Y0209329D01*
X0253559Y0208731D02*
X0279537Y0208731D01*
X0279535Y0208132D02*
X0253559Y0208132D01*
X0253559Y0207534D02*
X0279533Y0207534D01*
X0279532Y0206935D02*
X0253559Y0206935D01*
X0253559Y0206336D02*
X0279530Y0206336D01*
X0279528Y0205738D02*
X0253559Y0205738D01*
X0253559Y0205139D02*
X0279527Y0205139D01*
X0279525Y0204541D02*
X0253559Y0204541D01*
X0253559Y0203942D02*
X0279523Y0203942D01*
X0279522Y0203344D02*
X0253559Y0203344D01*
X0253559Y0202745D02*
X0279520Y0202745D01*
X0279518Y0202147D02*
X0253559Y0202147D01*
X0253559Y0201548D02*
X0279516Y0201548D01*
X0279515Y0200950D02*
X0253559Y0200950D01*
X0253559Y0200351D02*
X0279513Y0200351D01*
X0279511Y0199753D02*
X0253559Y0199753D01*
X0253559Y0199154D02*
X0279510Y0199154D01*
X0279508Y0198556D02*
X0253559Y0198556D01*
X0253559Y0197957D02*
X0279506Y0197957D01*
X0279505Y0197359D02*
X0253559Y0197359D01*
X0253559Y0196760D02*
X0279503Y0196760D01*
X0279501Y0196162D02*
X0253559Y0196162D01*
X0253559Y0195563D02*
X0279500Y0195563D01*
X0279498Y0194965D02*
X0253559Y0194965D01*
X0253559Y0194366D02*
X0279496Y0194366D01*
X0279495Y0193768D02*
X0253559Y0193768D01*
X0253559Y0193169D02*
X0279493Y0193169D01*
X0279491Y0192571D02*
X0253559Y0192571D01*
X0253559Y0191972D02*
X0279489Y0191972D01*
X0279488Y0191374D02*
X0253559Y0191374D01*
X0253559Y0190775D02*
X0279486Y0190775D01*
X0279484Y0190177D02*
X0253559Y0190177D01*
X0253559Y0189578D02*
X0279483Y0189578D01*
X0279481Y0188980D02*
X0253559Y0188980D01*
X0253559Y0188381D02*
X0279479Y0188381D01*
X0279478Y0187783D02*
X0253559Y0187783D01*
X0253559Y0187184D02*
X0279476Y0187184D01*
X0279474Y0186586D02*
X0253559Y0186586D01*
X0253559Y0185987D02*
X0279473Y0185987D01*
X0279471Y0185389D02*
X0253559Y0185389D01*
X0253559Y0184790D02*
X0279469Y0184790D01*
X0279467Y0184192D02*
X0253559Y0184192D01*
X0253559Y0183593D02*
X0279466Y0183593D01*
X0279464Y0182995D02*
X0253559Y0182995D01*
X0253559Y0182396D02*
X0279462Y0182396D01*
X0279461Y0181798D02*
X0253559Y0181798D01*
X0253559Y0181199D02*
X0279459Y0181199D01*
X0279457Y0180601D02*
X0253559Y0180601D01*
X0253559Y0180002D02*
X0279456Y0180002D01*
X0279454Y0179403D02*
X0253559Y0179403D01*
X0253559Y0178805D02*
X0279452Y0178805D01*
X0279451Y0178206D02*
X0253559Y0178206D01*
X0253559Y0177608D02*
X0279449Y0177608D01*
X0279447Y0177009D02*
X0253559Y0177009D01*
X0253559Y0176411D02*
X0279445Y0176411D01*
X0279444Y0175812D02*
X0253559Y0175812D01*
X0253559Y0175214D02*
X0279442Y0175214D01*
X0279440Y0174615D02*
X0253559Y0174615D01*
X0253559Y0174017D02*
X0279439Y0174017D01*
X0279437Y0173418D02*
X0253559Y0173418D01*
X0253559Y0172820D02*
X0279435Y0172820D01*
X0279434Y0172221D02*
X0253559Y0172221D01*
X0253559Y0171623D02*
X0279432Y0171623D01*
X0279430Y0171024D02*
X0253559Y0171024D01*
X0253559Y0170426D02*
X0279429Y0170426D01*
X0279427Y0169827D02*
X0253559Y0169827D01*
X0253559Y0169229D02*
X0279425Y0169229D01*
X0279424Y0168630D02*
X0253559Y0168630D01*
X0253559Y0168032D02*
X0279422Y0168032D01*
X0279420Y0167433D02*
X0253559Y0167433D01*
X0253559Y0166835D02*
X0279418Y0166835D01*
X0279417Y0166236D02*
X0253559Y0166236D01*
X0253559Y0165638D02*
X0279415Y0165638D01*
X0279413Y0165039D02*
X0253559Y0165039D01*
X0253559Y0164441D02*
X0279412Y0164441D01*
X0279410Y0163842D02*
X0253559Y0163842D01*
X0253559Y0163244D02*
X0279408Y0163244D01*
X0279407Y0162645D02*
X0253559Y0162645D01*
X0253559Y0162047D02*
X0279405Y0162047D01*
X0279403Y0161448D02*
X0253559Y0161448D01*
X0253559Y0160850D02*
X0279402Y0160850D01*
X0279400Y0160251D02*
X0253559Y0160251D01*
X0253559Y0159653D02*
X0279398Y0159653D01*
X0279396Y0159054D02*
X0253559Y0159054D01*
X0253559Y0158456D02*
X0279395Y0158456D01*
X0279393Y0157857D02*
X0253559Y0157857D01*
X0253559Y0157259D02*
X0279391Y0157259D01*
X0279390Y0156660D02*
X0253559Y0156660D01*
X0253559Y0156062D02*
X0279388Y0156062D01*
X0279386Y0155463D02*
X0253559Y0155463D01*
X0253559Y0154865D02*
X0279385Y0154865D01*
X0279383Y0154266D02*
X0253559Y0154266D01*
X0253559Y0153667D02*
X0279381Y0153667D01*
X0279380Y0153069D02*
X0253559Y0153069D01*
X0253559Y0152470D02*
X0279378Y0152470D01*
X0279376Y0151872D02*
X0253559Y0151872D01*
X0253559Y0151273D02*
X0279374Y0151273D01*
X0279373Y0150675D02*
X0253559Y0150675D01*
X0253559Y0150076D02*
X0279371Y0150076D01*
X0279369Y0149478D02*
X0253559Y0149478D01*
X0253559Y0148879D02*
X0279368Y0148879D01*
X0279366Y0148281D02*
X0253559Y0148281D01*
X0253559Y0147682D02*
X0279364Y0147682D01*
X0279363Y0147084D02*
X0253559Y0147084D01*
X0253559Y0146485D02*
X0279361Y0146485D01*
X0279359Y0145887D02*
X0253559Y0145887D01*
X0253559Y0145288D02*
X0279358Y0145288D01*
X0279356Y0144690D02*
X0253559Y0144690D01*
X0253559Y0144091D02*
X0279354Y0144091D01*
X0279353Y0143493D02*
X0253559Y0143493D01*
X0253559Y0142894D02*
X0279351Y0142894D01*
X0279349Y0142296D02*
X0253559Y0142296D01*
X0253559Y0141697D02*
X0279347Y0141697D01*
X0279346Y0141099D02*
X0253559Y0141099D01*
X0253559Y0140500D02*
X0279344Y0140500D01*
X0279342Y0139902D02*
X0253559Y0139902D01*
X0253559Y0139303D02*
X0279341Y0139303D01*
X0279339Y0138705D02*
X0253559Y0138705D01*
X0253559Y0138106D02*
X0279337Y0138106D01*
X0279336Y0137508D02*
X0253559Y0137508D01*
X0253559Y0136909D02*
X0279334Y0136909D01*
X0279332Y0136311D02*
X0253559Y0136311D01*
X0253559Y0135712D02*
X0279331Y0135712D01*
X0279329Y0135114D02*
X0253559Y0135114D01*
X0253559Y0134515D02*
X0279327Y0134515D01*
X0279325Y0133917D02*
X0253559Y0133917D01*
X0253559Y0133318D02*
X0279324Y0133318D01*
X0279322Y0132720D02*
X0253559Y0132720D01*
X0253559Y0132121D02*
X0279320Y0132121D01*
X0279319Y0131523D02*
X0253559Y0131523D01*
X0253559Y0130924D02*
X0279317Y0130924D01*
X0279315Y0130326D02*
X0253559Y0130326D01*
X0253559Y0129727D02*
X0279314Y0129727D01*
X0279312Y0129129D02*
X0253559Y0129129D01*
X0253559Y0128530D02*
X0279310Y0128530D01*
X0279309Y0127932D02*
X0253559Y0127932D01*
X0253559Y0127333D02*
X0279307Y0127333D01*
X0279305Y0126734D02*
X0253559Y0126734D01*
X0253559Y0126136D02*
X0279303Y0126136D01*
X0279302Y0125537D02*
X0253559Y0125537D01*
X0253559Y0124939D02*
X0279300Y0124939D01*
X0279298Y0124340D02*
X0253559Y0124340D01*
X0253559Y0123742D02*
X0279297Y0123742D01*
X0279295Y0123143D02*
X0253559Y0123143D01*
X0253559Y0122545D02*
X0279293Y0122545D01*
X0279292Y0121946D02*
X0253559Y0121946D01*
X0253559Y0121348D02*
X0279290Y0121348D01*
X0279288Y0120749D02*
X0253559Y0120749D01*
X0253559Y0120151D02*
X0279287Y0120151D01*
X0279285Y0119552D02*
X0253559Y0119552D01*
X0253559Y0118954D02*
X0279283Y0118954D01*
X0279281Y0118355D02*
X0253559Y0118355D01*
X0253559Y0117757D02*
X0279280Y0117757D01*
X0279278Y0117158D02*
X0253559Y0117158D01*
X0253559Y0116560D02*
X0279276Y0116560D01*
X0279275Y0115961D02*
X0253559Y0115961D01*
X0253559Y0115363D02*
X0279273Y0115363D01*
X0279271Y0114764D02*
X0253559Y0114764D01*
X0253559Y0114166D02*
X0279270Y0114166D01*
X0279268Y0113567D02*
X0253559Y0113567D01*
X0253559Y0112969D02*
X0279266Y0112969D01*
X0279265Y0112370D02*
X0253559Y0112370D01*
X0253504Y0111772D02*
X0279263Y0111772D01*
X0279261Y0111173D02*
X0252905Y0111173D01*
X0252307Y0110575D02*
X0279260Y0110575D01*
X0279258Y0109976D02*
X0251708Y0109976D01*
X0251110Y0109378D02*
X0279256Y0109378D01*
X0279254Y0108779D02*
X0250511Y0108779D01*
X0249913Y0108181D02*
X0279253Y0108181D01*
X0279251Y0107582D02*
X0249314Y0107582D01*
X0279249Y0106984D02*
X0172937Y0106984D01*
X0172578Y0106385D02*
X0279248Y0106385D01*
X0279246Y0105787D02*
X0172218Y0105787D01*
X0172063Y0105188D02*
X0279244Y0105188D01*
X0279243Y0104590D02*
X0172063Y0104590D01*
X0172063Y0103991D02*
X0279241Y0103991D01*
X0279239Y0103393D02*
X0172063Y0103393D01*
X0172063Y0102794D02*
X0279238Y0102794D01*
X0279236Y0102196D02*
X0172063Y0102196D01*
X0172063Y0101597D02*
X0279234Y0101597D01*
X0279232Y0100998D02*
X0172063Y0100998D01*
X0172063Y0100400D02*
X0279231Y0100400D01*
X0279229Y0099801D02*
X0172063Y0099801D01*
X0172063Y0099203D02*
X0279227Y0099203D01*
X0279226Y0098604D02*
X0172063Y0098604D01*
X0172063Y0098006D02*
X0279224Y0098006D01*
X0279222Y0097407D02*
X0172063Y0097407D01*
X0172063Y0096809D02*
X0279221Y0096809D01*
X0279219Y0096210D02*
X0172063Y0096210D01*
X0172063Y0095612D02*
X0279217Y0095612D01*
X0279216Y0095013D02*
X0172063Y0095013D01*
X0172063Y0094415D02*
X0279214Y0094415D01*
X0279212Y0093816D02*
X0172063Y0093816D01*
X0172063Y0093218D02*
X0279210Y0093218D01*
X0279209Y0092619D02*
X0172063Y0092619D01*
X0172063Y0092021D02*
X0279207Y0092021D01*
X0279205Y0091422D02*
X0172063Y0091422D01*
X0172063Y0090824D02*
X0279204Y0090824D01*
X0279202Y0090225D02*
X0172063Y0090225D01*
X0172063Y0089627D02*
X0279200Y0089627D01*
X0279199Y0089028D02*
X0172063Y0089028D01*
X0172063Y0088430D02*
X0279197Y0088430D01*
X0279195Y0087831D02*
X0172063Y0087831D01*
X0172063Y0087233D02*
X0279194Y0087233D01*
X0279192Y0086634D02*
X0172063Y0086634D01*
X0172063Y0086036D02*
X0279190Y0086036D01*
X0279189Y0085437D02*
X0172549Y0085437D01*
X0173268Y0084839D02*
X0279187Y0084839D01*
X0279185Y0084240D02*
X0173986Y0084240D01*
X0216784Y0083642D02*
X0279183Y0083642D01*
X0279182Y0083043D02*
X0217382Y0083043D01*
X0217981Y0082445D02*
X0279180Y0082445D01*
X0279178Y0081846D02*
X0218579Y0081846D01*
X0219178Y0081248D02*
X0279177Y0081248D01*
X0279175Y0080649D02*
X0219776Y0080649D01*
X0220375Y0080051D02*
X0279173Y0080051D01*
X0279172Y0079452D02*
X0220973Y0079452D01*
X0221572Y0078854D02*
X0279170Y0078854D01*
X0279168Y0078255D02*
X0222170Y0078255D01*
X0222769Y0077657D02*
X0279167Y0077657D01*
X0279165Y0077058D02*
X0223367Y0077058D01*
X0223966Y0076460D02*
X0279163Y0076460D01*
X0279161Y0075861D02*
X0224564Y0075861D01*
X0225163Y0075263D02*
X0279160Y0075263D01*
X0279158Y0074664D02*
X0225761Y0074664D01*
X0226360Y0074065D02*
X0279156Y0074065D01*
X0279155Y0073467D02*
X0226958Y0073467D01*
X0227557Y0072868D02*
X0279153Y0072868D01*
X0279151Y0072270D02*
X0228155Y0072270D01*
X0228754Y0071671D02*
X0279150Y0071671D01*
X0278255Y0071073D02*
X0229352Y0071073D01*
X0229951Y0070474D02*
X0277357Y0070474D01*
X0278860Y0211723D02*
X0254243Y0211723D01*
M02*
